<svg width="112" height="112" viewBox="0 0 112 112" fill="none" xmlns="http://www.w3.org/2000/svg">
<g id="Frame" opacity="0.3">
<path id="Vector" d="M90.5583 14.2181H21.2828C17.6095 14.2221 14.0877 15.6831 11.4902 18.2806C8.89276 20.878 7.43175 24.3998 7.42773 28.0732V83.4935C7.43175 87.1669 8.89276 90.6887 11.4902 93.2861C14.0877 95.8836 17.6095 97.3446 21.2828 97.3486H90.5583C94.2317 97.3446 97.7534 95.8836 100.351 93.2861C102.948 90.6887 104.409 87.1669 104.413 83.4935V28.0732C104.409 24.3998 102.948 20.878 100.351 18.2806C97.7534 15.6831 94.2317 14.2221 90.5583 14.2181ZM73.2394 28.0732C75.2946 28.0732 77.3037 28.6826 79.0125 29.8244C80.7214 30.9662 82.0533 32.5891 82.8398 34.4879C83.6262 36.3867 83.832 38.476 83.4311 40.4917C83.0301 42.5075 82.0404 44.359 80.5872 45.8123C79.1339 47.2655 77.2824 48.2552 75.2667 48.6561C73.251 49.0571 71.1616 48.8513 69.2628 48.0648C67.3641 47.2783 65.7412 45.9464 64.5994 44.2376C63.4575 42.5288 62.8481 40.5197 62.8481 38.4645C62.851 35.7094 63.9467 33.068 65.8948 31.1199C67.8429 29.1718 70.4844 28.076 73.2394 28.0732ZM21.2828 90.4211C19.4455 90.4211 17.6835 89.6912 16.3843 88.392C15.0851 87.0929 14.3553 85.3308 14.3553 83.4935V68.8526L34.8868 50.6028C36.8677 48.846 39.444 47.9104 42.0907 47.9869C44.7373 48.0633 47.2553 49.1459 49.1316 51.0142L63.1923 65.0446L37.8158 90.4211H21.2828ZM97.4858 83.4935C97.4858 85.3308 96.756 87.0929 95.4568 88.392C94.1576 89.6912 92.3956 90.4211 90.5583 90.4211H47.614L73.8997 64.1354C75.7607 62.5527 78.1225 61.6808 80.5655 61.6745C83.0085 61.6681 85.3747 62.5278 87.2439 64.1007L97.4858 72.6346V83.4935Z" fill="black"/>
</g>
</svg>
