
<svg width="36" height="35" viewBox="0 0 36 35" fill="none" xmlns="http://www.w3.org/2000/svg">
<g id="Frame 5585">
<rect x="0.674805" width="35" height="35" rx="7" fill="#B70000" fill-opacity="0.11"/>
<path id="Vector" d="M25.6748 13.2927C25.6748 13.6679 25.3904 13.9772 25.0239 14.0195L24.938 14.0244H24.3156L23.4082 23.1848C23.3062 24.2148 22.4339 25 21.3916 25H15.958C14.9157 25 14.0435 24.2148 13.9414 23.1848L13.0341 14.0244H12.4116C12.0047 14.0244 11.6748 13.6968 11.6748 13.2927C11.6748 12.8886 12.0047 12.561 12.4116 12.561H16.0959C16.0959 11.1466 17.2505 10 18.6748 10C20.0991 10 21.2538 11.1466 21.2538 12.561H24.938C25.3449 12.561 25.6748 12.8886 25.6748 13.2927ZM20.3327 15.6707C20.0529 15.6707 19.8217 15.8772 19.7851 16.145L19.7801 16.2195V21.3415L19.7851 21.416C19.8217 21.6838 20.0529 21.8902 20.3327 21.8902C20.6125 21.8902 20.8437 21.6838 20.8803 21.416L20.8853 21.3415V16.2195L20.8803 16.145C20.8437 15.8772 20.6125 15.6707 20.3327 15.6707ZM17.0169 15.6707C16.7371 15.6707 16.5059 15.8772 16.4693 16.145L16.4643 16.2195V21.3415L16.4693 21.416C16.5059 21.6838 16.7371 21.8902 17.0169 21.8902C17.2967 21.8902 17.5279 21.6838 17.5645 21.416L17.5695 21.3415V16.2195L17.5645 16.145C17.5279 15.8772 17.2967 15.6707 17.0169 15.6707ZM18.6748 11.4634C18.0644 11.4634 17.5695 11.9548 17.5695 12.561H19.7801C19.7801 11.9548 19.2852 11.4634 18.6748 11.4634Z" fill="#910707"/>
</g>
</svg>
