<svg width="64" height="64" viewBox="0 0 64 64" fill="none" xmlns="http://www.w3.org/2000/svg">
<g clip-path="url(#clip0_5907_51336)">
<path d="M59.4275 32.0001C59.4275 16.8517 47.1473 4.57153 31.9989 4.57153C16.8505 4.57153 4.57031 16.8517 4.57031 32.0001C4.57031 47.1485 16.8505 59.4287 31.9989 59.4287C47.1473 59.4287 59.4275 47.1485 59.4275 32.0001Z" fill="#EDB01A"/>
<path d="M59.4275 32.0001C59.4275 16.8517 47.1473 4.57153 31.9989 4.57153C16.8505 4.57153 4.57031 16.8517 4.57031 32.0001C4.57031 47.1485 16.8505 59.4287 31.9989 59.4287C47.1473 59.4287 59.4275 47.1485 59.4275 32.0001Z" stroke="#FFF5DE" stroke-width="9.14286"/>
<path opacity="0.15" fill-rule="evenodd" clip-rule="evenodd" d="M21.5542 20.3943C20.1501 21.1047 20.0051 21.8736 20.0001 28.6278C19.9951 35.3659 20.1488 36.1828 21.6154 37.21C21.9958 37.4767 22.8351 37.6947 23.4803 37.6947C24.5714 37.6947 24.6531 37.631 24.6531 36.7808C24.6531 35.9282 24.5652 35.8611 23.3334 35.7717C22.1582 35.6869 22.0138 35.5913 22.0138 34.9001C22.0138 34.1937 22.1327 34.1238 23.3337 34.1238H24.654L24.6534 29.8388C24.6528 23.2665 25.0925 22.7902 31.1583 22.7902H34.8999V22.0139C34.8999 21.587 34.6205 20.9582 34.2789 20.6166C33.7029 20.0406 33.2474 19.9959 27.9911 20.0003C24.07 20.0034 22.0871 20.1248 21.5542 20.3943ZM28.0749 25.0519C26.6708 25.7624 26.5258 26.5312 26.5208 33.2854C26.514 42.5955 26.2926 42.3523 34.7757 42.3523C39.684 42.3523 40.7912 42.271 41.1101 41.8866C41.416 41.5183 41.4169 41.3249 41.1154 40.9616C40.8074 40.5902 39.565 40.4862 34.6345 40.4182L28.5345 40.334V39.5577V38.7815L34.5376 38.6262C40.0209 38.4843 40.5785 38.4188 40.9807 37.8682C41.3222 37.4 41.4206 35.9956 41.4206 31.5804C41.4206 24.0946 41.9768 24.6517 34.5118 24.6579C30.5907 24.661 28.6078 24.7824 28.0749 25.0519ZM30.3584 28.8349C30.2581 29.0967 30.2581 29.5252 30.3584 29.7869C30.5106 30.1831 31.1279 30.248 34.0401 30.1751L37.5393 30.0872V29.3109V28.5346L34.0401 28.4468C31.1279 28.3738 30.5106 28.4387 30.3584 28.8349Z" fill="white"/>
<path opacity="0.33" fill-rule="evenodd" clip-rule="evenodd" d="M22.7652 21.5769C21.361 22.2874 21.216 23.0562 21.2111 29.8104C21.2061 36.5485 21.3598 37.3654 22.8263 38.3926C23.2067 38.6593 24.046 38.8773 24.6912 38.8773C25.7824 38.8773 25.864 38.8136 25.864 37.9635C25.864 37.1108 25.7762 37.0437 24.5444 36.9543C23.3691 36.8695 23.2247 36.7739 23.2247 36.0827C23.2247 35.3763 23.3436 35.3064 24.5447 35.3064H25.865L25.8644 31.0214C25.8637 24.4491 26.3034 23.9728 32.3692 23.9728H36.1109V23.1965C36.1109 22.7696 35.8314 22.1408 35.4899 21.7992C34.9139 21.2232 34.4583 21.1785 29.202 21.1829C25.2809 21.186 23.298 21.3074 22.7652 21.5769ZM29.2859 26.2346C27.8817 26.945 27.7367 27.7138 27.7318 34.468C27.7249 43.7781 27.5035 43.5349 35.9867 43.5349C40.8949 43.5349 42.0022 43.4536 42.3211 43.0692C42.6269 42.7009 42.6279 42.5075 42.3264 42.1442C42.0183 41.7728 40.776 41.6688 35.8454 41.6008L29.7454 41.5166V40.7404V39.9641L35.7485 39.8088C41.2318 39.6669 41.7895 39.6014 42.1916 39.0509C42.5332 38.5826 42.6316 37.1782 42.6316 32.763C42.6316 25.2773 43.1877 25.8343 35.7227 25.8405C31.8016 25.8436 29.8187 25.965 29.2859 26.2346ZM31.5694 30.0175C31.4691 30.2793 31.4691 30.7078 31.5694 30.9695C31.7215 31.3657 32.3388 31.4306 35.2511 31.3577L38.7502 31.2698V30.4935V29.7172L35.2511 29.6294C32.3388 29.5564 31.7215 29.6213 31.5694 30.0175Z" fill="white"/>
<path fill-rule="evenodd" clip-rule="evenodd" d="M23.7652 22.5769C22.361 23.2874 22.216 24.0562 22.2111 30.8104C22.2061 37.5485 22.3598 38.3654 23.8263 39.3926C24.2067 39.6593 25.046 39.8773 25.6912 39.8773C26.7824 39.8773 26.864 39.8136 26.864 38.9635C26.864 38.1108 26.7762 38.0437 25.5444 37.9543C24.3691 37.8695 24.2247 37.7739 24.2247 37.0827C24.2247 36.3763 24.3436 36.3064 25.5447 36.3064H26.865L26.8644 32.0214C26.8637 25.4491 27.3034 24.9728 33.3692 24.9728H37.1109V24.1965C37.1109 23.7696 36.8314 23.1408 36.4899 22.7992C35.9139 22.2232 35.4583 22.1785 30.202 22.1829C26.2809 22.186 24.298 22.3074 23.7652 22.5769ZM30.2859 27.2346C28.8817 27.945 28.7367 28.7138 28.7318 35.468C28.7249 44.7781 28.5035 44.5349 36.9867 44.5349C41.8949 44.5349 43.0022 44.4536 43.3211 44.0692C43.6269 43.7009 43.6279 43.5075 43.3264 43.1442C43.0183 42.7728 41.776 42.6688 36.8454 42.6008L30.7454 42.5166V41.7404V40.9641L36.7485 40.8088C42.2318 40.6669 42.7895 40.6014 43.1916 40.0509C43.5332 39.5826 43.6316 38.1782 43.6316 33.763C43.6316 26.2773 44.1877 26.8343 36.7227 26.8405C32.8016 26.8436 30.8187 26.965 30.2859 27.2346ZM32.5694 31.0175C32.4691 31.2793 32.4691 31.7078 32.5694 31.9695C32.7215 32.3657 33.3388 32.4306 36.2511 32.3577L39.7502 32.2698V31.4935V30.7172L36.2511 30.6294C33.3388 30.5564 32.7215 30.6213 32.5694 31.0175Z" fill="white"/>
</g>
<defs>
<clipPath id="clip0_5907_51336">
<rect width="64" height="64" fill="white"/>
</clipPath>
</defs>
</svg>
