<svg width="64" height="64" viewBox="0 0 64 64" fill="none" xmlns="http://www.w3.org/2000/svg">
<g clip-path="url(#clip0_5906_50861)">
<path d="M59.4275 32C59.4275 16.8516 47.1473 4.57141 31.9989 4.57141C16.8505 4.57141 4.57031 16.8516 4.57031 32C4.57031 47.1484 16.8505 59.4286 31.9989 59.4286C47.1473 59.4286 59.4275 47.1484 59.4275 32Z" fill="#EDB01A"/>
<g opacity="0.15">
<path d="M25.8827 21.8466C26.1092 21.7246 26.3819 21.7246 26.6084 21.8466L36.5573 27.2037C36.8052 27.3372 36.9598 27.596 36.9598 27.8776C36.9598 28.1591 36.8052 28.4179 36.5573 28.5514L26.6084 33.9086C26.3819 34.0305 26.1092 34.0305 25.8827 33.9086L15.9337 28.5514C15.6858 28.4179 15.5312 28.1591 15.5312 27.8776C15.5312 27.596 15.6858 27.3372 15.9337 27.2037L25.8827 21.8466Z" fill="white"/>
<path d="M17.332 31.0427L25.1571 35.2562C25.8366 35.6221 26.6545 35.6221 27.334 35.2562L35.1591 31.0427L36.5573 31.7956C36.8052 31.9291 36.9598 32.1879 36.9598 32.4694C36.9598 32.751 36.8052 33.0098 36.5573 33.1432L26.6084 38.5004C26.3819 38.6224 26.1092 38.6224 25.8827 38.5004L15.9337 33.1432C15.6858 33.0098 15.5312 32.751 15.5312 32.4694C15.5312 32.1879 15.6858 31.9291 15.9337 31.7956L17.332 31.0427Z" fill="white"/>
<path d="M25.1571 39.848L17.332 35.6345L15.9337 36.3874C15.6858 36.5209 15.5312 36.7797 15.5312 37.0612C15.5312 37.3428 15.6858 37.6016 15.9337 37.735L25.8827 43.0922C26.1092 43.2142 26.3819 43.2142 26.6084 43.0922L36.5573 37.735C36.8052 37.6016 36.9598 37.3428 36.9598 37.0612C36.9598 36.7797 36.8052 36.5209 36.5573 36.3874L35.1591 35.6345L27.334 39.848C26.6545 40.2139 25.8366 40.2139 25.1571 39.848Z" fill="white"/>
</g>
<g opacity="0.33">
<path d="M28.6405 21.8466C28.867 21.7246 29.1397 21.7246 29.3662 21.8466L39.3151 27.2037C39.563 27.3372 39.7176 27.596 39.7176 27.8776C39.7176 28.1591 39.563 28.4179 39.3151 28.5514L29.3662 33.9086C29.1397 34.0305 28.867 34.0305 28.6405 33.9086L18.6916 28.5514C18.4437 28.4179 18.2891 28.1591 18.2891 27.8776C18.2891 27.596 18.4437 27.3372 18.6916 27.2037L28.6405 21.8466Z" fill="white"/>
<path d="M20.0898 31.0427L27.9149 35.2562C28.5944 35.6221 29.4123 35.6221 30.0918 35.2562L37.9169 31.0427L39.3151 31.7956C39.563 31.9291 39.7176 32.1879 39.7176 32.4694C39.7176 32.751 39.563 33.0098 39.3151 33.1432L29.3662 38.5004C29.1397 38.6224 28.867 38.6224 28.6405 38.5004L18.6916 33.1432C18.4437 33.0098 18.2891 32.751 18.2891 32.4694C18.2891 32.1879 18.4437 31.9291 18.6916 31.7956L20.0898 31.0427Z" fill="white"/>
<path d="M27.9149 39.848L20.0898 35.6345L18.6916 36.3874C18.4437 36.5209 18.2891 36.7797 18.2891 37.0612C18.2891 37.3428 18.4437 37.6016 18.6916 37.735L28.6405 43.0922C28.867 43.2142 29.1397 43.2142 29.3662 43.0922L39.3151 37.735C39.563 37.6016 39.7176 37.3428 39.7176 37.0612C39.7176 36.7797 39.563 36.5209 39.3151 36.3874L37.9169 35.6345L30.0918 39.848C29.4123 40.2139 28.5944 40.2139 27.9149 39.848Z" fill="white"/>
</g>
<path d="M31.3905 21.8466C31.617 21.7246 31.8897 21.7246 32.1162 21.8466L42.0651 27.2037C42.313 27.3372 42.4676 27.596 42.4676 27.8776C42.4676 28.1591 42.313 28.4179 42.0651 28.5514L32.1162 33.9086C31.8897 34.0305 31.617 34.0305 31.3905 33.9086L21.4416 28.5514C21.1937 28.4179 21.0391 28.1591 21.0391 27.8776C21.0391 27.596 21.1937 27.3372 21.4416 27.2037L31.3905 21.8466Z" fill="white"/>
<path d="M22.8398 31.0427L30.6649 35.2562C31.3444 35.6221 32.1623 35.6221 32.8418 35.2562L40.6669 31.0427L42.0651 31.7956C42.313 31.9291 42.4676 32.1879 42.4676 32.4694C42.4676 32.751 42.313 33.0098 42.0651 33.1432L32.1162 38.5004C31.8897 38.6224 31.617 38.6224 31.3905 38.5004L21.4416 33.1432C21.1937 33.0098 21.0391 32.751 21.0391 32.4694C21.0391 32.1879 21.1937 31.9291 21.4416 31.7956L22.8398 31.0427Z" fill="white"/>
<path d="M30.6649 39.848L22.8398 35.6345L21.4416 36.3874C21.1937 36.5209 21.0391 36.7797 21.0391 37.0612C21.0391 37.3428 21.1937 37.6016 21.4416 37.735L31.3905 43.0922C31.617 43.2142 31.8897 43.2142 32.1162 43.0922L42.0651 37.735C42.313 37.6016 42.4676 37.3428 42.4676 37.0612C42.4676 36.7797 42.313 36.5209 42.0651 36.3874L40.6669 35.6345L32.8418 39.848C32.1623 40.2139 31.3444 40.2139 30.6649 39.848Z" fill="white"/>
<path d="M59.4275 32C59.4275 16.8516 47.1473 4.57141 31.9989 4.57141C16.8505 4.57141 4.57031 16.8516 4.57031 32C4.57031 47.1484 16.8505 59.4286 31.9989 59.4286C47.1473 59.4286 59.4275 47.1484 59.4275 32Z" stroke="#FFF5DE" stroke-width="9.14286"/>
</g>
<defs>
<clipPath id="clip0_5906_50861">
<rect width="64" height="64" fill="white"/>
</clipPath>
</defs>
</svg>
