<svg width="64" height="64" viewBox="0 0 64 64" fill="none" xmlns="http://www.w3.org/2000/svg">
<g clip-path="url(#clip0_5907_51375)">
<path d="M59.4275 32.0001C59.4275 16.8517 47.1473 4.57153 31.9989 4.57153C16.8505 4.57153 4.57031 16.8517 4.57031 32.0001C4.57031 47.1485 16.8505 59.4287 31.9989 59.4287C47.1473 59.4287 59.4275 47.1485 59.4275 32.0001Z" fill="#EDB01A"/>
<path d="M59.4275 32.0001C59.4275 16.8517 47.1473 4.57153 31.9989 4.57153C16.8505 4.57153 4.57031 16.8517 4.57031 32.0001C4.57031 47.1485 16.8505 59.4287 31.9989 59.4287C47.1473 59.4287 59.4275 47.1485 59.4275 32.0001Z" stroke="#FFF5DE" stroke-width="9.14286"/>
<path opacity="0.15" fill-rule="evenodd" clip-rule="evenodd" d="M22.5495 19.5495C22.0209 20.0781 22 20.4652 22 29.715C22 38.9648 22.0209 39.3519 22.5495 39.8805C23.0707 40.4017 23.4652 40.43 30.2423 40.43C37.0194 40.43 37.4139 40.4017 37.9351 39.8805C38.4566 39.359 38.4846 38.9648 38.4846 32.1143V24.8976L35.5267 21.9488L32.5686 19H27.8339C23.4652 19 23.0564 19.0426 22.5495 19.5495ZM31.8908 22.9294C31.8908 24.6864 31.99 25.3743 32.2584 25.4774C32.4609 25.5551 33.5766 25.582 34.7385 25.5375L36.8507 25.4565L34.3709 22.9896L31.8908 20.5226V22.9294ZM26.8292 27.8583C25.9412 29.2133 24.279 35.1329 24.5719 35.8965C24.8568 36.6383 25.8497 36.3814 26.1624 35.4846C26.4278 34.723 26.55 34.6604 27.7696 34.6604C28.9892 34.6604 29.1115 34.723 29.3769 35.4846C29.6936 36.3929 30.6838 36.635 30.9753 35.8753C31.1937 35.3066 29.8516 30.1977 29.0686 28.616C28.3419 27.1481 27.4847 26.8579 26.8292 27.8583ZM33.734 29.0622C33.6269 29.1694 33.5392 29.5372 33.5392 29.8798C33.5392 30.3552 33.3601 30.5233 32.7837 30.5898C32.1842 30.6587 32.0281 30.8184 32.0281 31.3635C32.0281 31.9047 32.1847 32.0685 32.7669 32.1358C33.3381 32.2017 33.5252 32.3888 33.5912 32.96C33.6585 33.5422 33.8222 33.6988 34.3635 33.6988C34.9047 33.6988 35.0685 33.5422 35.1358 32.96C35.2017 32.3888 35.3888 32.2017 35.96 32.1358C36.5422 32.0685 36.6988 31.9047 36.6988 31.3635C36.6988 30.8222 36.5422 30.6585 35.96 30.5912C35.3888 30.5252 35.2017 30.3381 35.1358 29.7669C35.052 29.0422 34.1884 28.6081 33.734 29.0622ZM27.1646 31.5008L26.744 33.0119H27.7696H28.7952L28.3746 31.5008C28.1433 30.6697 27.871 29.9897 27.7696 29.9897C27.6682 29.9897 27.396 30.6697 27.1646 31.5008Z" fill="white"/>
<path opacity="0.33" fill-rule="evenodd" clip-rule="evenodd" d="M23.7917 21.2643C23.2631 21.7929 23.2422 22.1801 23.2422 31.4298C23.2422 40.6796 23.2631 41.0667 23.7917 41.5954C24.3129 42.1165 24.7074 42.1448 31.4845 42.1448C38.2616 42.1448 38.6561 42.1165 39.1773 41.5954C39.6988 41.0739 39.7268 40.6796 39.7268 33.8292V26.6125L36.7689 23.6637L33.8107 20.7148H29.0761C24.7074 20.7148 24.2986 20.7574 23.7917 21.2643ZM33.133 24.6442C33.133 26.4012 33.2321 27.0892 33.5006 27.1922C33.703 27.27 34.8188 27.2969 35.9807 27.2524L38.0929 27.1713L35.6131 24.7044L33.133 22.2375V24.6442ZM28.0714 29.5731C27.1834 30.9282 25.5212 36.8478 25.8141 37.6113C26.099 38.3531 27.0919 38.0962 27.4046 37.1995C27.67 36.4379 27.7922 36.3752 29.0118 36.3752C30.2314 36.3752 30.3537 36.4379 30.6191 37.1995C30.9358 38.1078 31.926 38.3498 32.2175 37.5901C32.4359 37.0214 31.0938 31.9126 30.3108 30.3309C29.5841 28.8629 28.7269 28.5728 28.0714 29.5731ZM34.9762 30.7771C34.8691 30.8842 34.7814 31.2521 34.7814 31.5947C34.7814 32.07 34.6023 32.2381 34.0259 32.3046C33.4264 32.3736 33.2703 32.5332 33.2703 33.0783C33.2703 33.6195 33.4269 33.7833 34.0091 33.8506C34.5803 33.9165 34.7674 34.1036 34.8333 34.6748C34.9007 35.257 35.0644 35.4136 35.6056 35.4136C36.1469 35.4136 36.3106 35.257 36.378 34.6748C36.4439 34.1036 36.631 33.9165 37.2022 33.8506C37.7844 33.7833 37.941 33.6195 37.941 33.0783C37.941 32.5371 37.7844 32.3733 37.2022 32.306C36.631 32.2401 36.4439 32.053 36.378 31.4818C36.2942 30.757 35.4306 30.3229 34.9762 30.7771ZM28.4068 33.2157L27.9862 34.7268H29.0118H30.0374L29.6168 33.2157C29.3855 32.3846 29.1132 31.7046 29.0118 31.7046C28.9104 31.7046 28.6382 32.3846 28.4068 33.2157Z" fill="white"/>
<path fill-rule="evenodd" clip-rule="evenodd" d="M25.7917 23.2643C25.2631 23.7929 25.2422 24.1801 25.2422 33.4298C25.2422 42.6796 25.2631 43.0667 25.7917 43.5954C26.3129 44.1165 26.7074 44.1448 33.4845 44.1448C40.2616 44.1448 40.6561 44.1165 41.1773 43.5954C41.6988 43.0739 41.7268 42.6796 41.7268 35.8292V28.6125L38.7689 25.6637L35.8107 22.7148H31.0761C26.7074 22.7148 26.2986 22.7574 25.7917 23.2643ZM35.133 26.6442C35.133 28.4012 35.2321 29.0892 35.5006 29.1922C35.703 29.27 36.8188 29.2969 37.9807 29.2524L40.0929 29.1713L37.6131 26.7044L35.133 24.2375V26.6442ZM30.0714 31.5731C29.1834 32.9282 27.5212 38.8478 27.8141 39.6113C28.099 40.3531 29.0919 40.0962 29.4046 39.1995C29.67 38.4379 29.7922 38.3752 31.0118 38.3752C32.2314 38.3752 32.3537 38.4379 32.6191 39.1995C32.9358 40.1078 33.926 40.3498 34.2175 39.5901C34.4359 39.0214 33.0938 33.9126 32.3108 32.3309C31.5841 30.8629 30.7269 30.5728 30.0714 31.5731ZM36.9762 32.7771C36.8691 32.8842 36.7814 33.2521 36.7814 33.5947C36.7814 34.07 36.6023 34.2381 36.0259 34.3046C35.4264 34.3736 35.2703 34.5332 35.2703 35.0783C35.2703 35.6195 35.4269 35.7833 36.0091 35.8506C36.5803 35.9165 36.7674 36.1036 36.8333 36.6748C36.9007 37.257 37.0644 37.4136 37.6056 37.4136C38.1469 37.4136 38.3106 37.257 38.378 36.6748C38.4439 36.1036 38.631 35.9165 39.2022 35.8506C39.7844 35.7833 39.941 35.6195 39.941 35.0783C39.941 34.5371 39.7844 34.3733 39.2022 34.306C38.631 34.2401 38.4439 34.053 38.378 33.4818C38.2942 32.757 37.4306 32.3229 36.9762 32.7771ZM30.4068 35.2157L29.9862 36.7268H31.0118H32.0374L31.6168 35.2157C31.3855 34.3846 31.1132 33.7046 31.0118 33.7046C30.9104 33.7046 30.6382 34.3846 30.4068 35.2157Z" fill="white"/>
</g>
<defs>
<clipPath id="clip0_5907_51375">
<rect width="64" height="64" fill="white"/>
</clipPath>
</defs>
</svg>
