<svg width="64" height="64" viewBox="0 0 64 64" fill="none" xmlns="http://www.w3.org/2000/svg">
<g clip-path="url(#clip0_5906_50843)">
<path d="M59.4275 32C59.4275 16.8516 47.1473 4.57141 31.9989 4.57141C16.8505 4.57141 4.57031 16.8516 4.57031 32C4.57031 47.1484 16.8505 59.4286 31.9989 59.4286C47.1473 59.4286 59.4275 47.1484 59.4275 32Z" fill="#EDB01A"/>
<g opacity="0.15">
<path d="M29.5 34.875C31.2259 34.875 32.625 33.4759 32.625 31.75C32.625 30.0241 31.2259 28.625 29.5 28.625C27.7741 28.625 26.375 30.0241 26.375 31.75C26.375 33.4759 27.7741 34.875 29.5 34.875Z" fill="white"/>
<path fill-rule="evenodd" clip-rule="evenodd" d="M18.375 31.1737C19.9242 26.5164 24.3172 23.1562 29.497 23.1562C34.6744 23.1562 39.0657 26.5133 40.6168 31.1671C40.7422 31.5433 40.7423 31.9502 40.6172 32.3264C39.0679 36.9836 34.675 40.3438 29.4952 40.3438C24.3178 40.3438 19.9265 36.9867 18.3754 32.3329C18.25 31.9567 18.2499 31.5498 18.375 31.1737ZM34.9652 31.75C34.9652 34.7703 32.5168 37.2188 29.4965 37.2188C26.4761 37.2188 24.0277 34.7703 24.0277 31.75C24.0277 28.7297 26.4761 26.2812 29.4965 26.2812C32.5168 26.2812 34.9652 28.7297 34.9652 31.75Z" fill="white"/>
</g>
<g opacity="0.33">
<path d="M32 34.875C33.7259 34.875 35.125 33.4759 35.125 31.75C35.125 30.0241 33.7259 28.625 32 28.625C30.2741 28.625 28.875 30.0241 28.875 31.75C28.875 33.4759 30.2741 34.875 32 34.875Z" fill="white"/>
<path fill-rule="evenodd" clip-rule="evenodd" d="M20.875 31.1737C22.4242 26.5164 26.8172 23.1562 31.997 23.1562C37.1744 23.1562 41.5657 26.5133 43.1168 31.1671C43.2422 31.5433 43.2423 31.9502 43.1172 32.3264C41.5679 36.9836 37.175 40.3438 31.9952 40.3438C26.8178 40.3438 22.4265 36.9867 20.8754 32.3329C20.75 31.9567 20.7499 31.5498 20.875 31.1737ZM37.4652 31.75C37.4652 34.7703 35.0168 37.2188 31.9965 37.2188C28.9762 37.2188 26.5277 34.7703 26.5277 31.75C26.5277 28.7297 28.9762 26.2812 31.9965 26.2812C35.0168 26.2812 37.4652 28.7297 37.4652 31.75Z" fill="white"/>
</g>
<path d="M34.5 34.875C36.2259 34.875 37.625 33.4759 37.625 31.75C37.625 30.0241 36.2259 28.625 34.5 28.625C32.7741 28.625 31.375 30.0241 31.375 31.75C31.375 33.4759 32.7741 34.875 34.5 34.875Z" fill="white"/>
<path fill-rule="evenodd" clip-rule="evenodd" d="M23.375 31.1737C24.9242 26.5164 29.3172 23.1562 34.497 23.1562C39.6744 23.1562 44.0657 26.5133 45.6168 31.1671C45.7422 31.5433 45.7423 31.9502 45.6172 32.3264C44.0679 36.9836 39.675 40.3438 34.4952 40.3438C29.3178 40.3438 24.9265 36.9867 23.3754 32.3329C23.25 31.9567 23.2499 31.5498 23.375 31.1737ZM39.9652 31.75C39.9652 34.7703 37.5168 37.2188 34.4965 37.2188C31.4762 37.2188 29.0277 34.7703 29.0277 31.75C29.0277 28.7297 31.4762 26.2812 34.4965 26.2812C37.5168 26.2812 39.9652 28.7297 39.9652 31.75Z" fill="white"/>
<path d="M59.4275 32C59.4275 16.8516 47.1473 4.57141 31.9989 4.57141C16.8505 4.57141 4.57031 16.8516 4.57031 32C4.57031 47.1484 16.8505 59.4286 31.9989 59.4286C47.1473 59.4286 59.4275 47.1484 59.4275 32Z" stroke="#FFF5DE" stroke-width="9.14286"/>
</g>
<defs>
<clipPath id="clip0_5906_50843">
<rect width="64" height="64" fill="white"/>
</clipPath>
</defs>
</svg>
