<svg width="36" height="36" viewBox="0 0 36 36" fill="none" xmlns="http://www.w3.org/2000/svg">
<rect x="2" y="2" width="32" height="32" rx="16" fill="#F4EBFF"/>
<path d="M18.667 11.333H14.0003C13.6467 11.333 13.3076 11.4735 13.0575 11.7235C12.8075 11.9736 12.667 12.3127 12.667 12.6663V23.333C12.667 23.6866 12.8075 24.0258 13.0575 24.2758C13.3076 24.5259 13.6467 24.6663 14.0003 24.6663H22.0003C22.3539 24.6663 22.6931 24.5259 22.9431 24.2758C23.1932 24.0258 23.3337 23.6866 23.3337 23.333V15.9997M18.667 11.333L23.3337 15.9997M18.667 11.333V15.9997H23.3337" stroke="#7F56D9" stroke-width="1.33333" stroke-linecap="round" stroke-linejoin="round"/>
<rect x="2" y="2" width="32" height="32" rx="16" stroke="#F9F5FF" stroke-width="4"/>
</svg>
