<svg width="64" height="64" viewBox="0 0 64 64" fill="none" xmlns="http://www.w3.org/2000/svg">
<g clip-path="url(#clip0_5907_51310)">
<path d="M59.4275 32.0001C59.4275 16.8517 47.1473 4.57153 31.9989 4.57153C16.8505 4.57153 4.57031 16.8517 4.57031 32.0001C4.57031 47.1485 16.8505 59.4287 31.9989 59.4287C47.1473 59.4287 59.4275 47.1485 59.4275 32.0001Z" fill="#EDB01A"/>
<path d="M59.4275 32.0001C59.4275 16.8517 47.1473 4.57153 31.9989 4.57153C16.8505 4.57153 4.57031 16.8517 4.57031 32.0001C4.57031 47.1485 16.8505 59.4287 31.9989 59.4287C47.1473 59.4287 59.4275 47.1485 59.4275 32.0001Z" stroke="#FFF5DE" stroke-width="9.14286"/>
<path opacity="0.15" fill-rule="evenodd" clip-rule="evenodd" d="M22.7205 19.5512C22.0657 19.8542 21.1686 20.4876 20.7272 20.9585C19.1816 22.6068 19 23.5256 19 29.7019C19 35.8782 19.1816 36.797 20.7272 38.4453C22.3708 40.1981 23.3149 40.4038 29.715 40.4038C36.1151 40.4038 37.0592 40.1981 38.7028 38.4453C40.2484 36.797 40.43 35.8782 40.43 29.7019C40.43 23.5256 40.2484 22.6068 38.7028 20.9585C37.0592 19.2057 36.1151 19 29.715 19C24.6926 19 23.7506 19.0741 22.7205 19.5512ZM35.3576 23.0199C35.0415 23.4012 35.0609 23.5676 35.4701 23.9765C35.9321 24.4388 35.9988 24.4388 36.4607 23.9765C36.8699 23.5676 36.8893 23.4012 36.5732 23.0199C36.3625 22.7663 36.0889 22.5586 35.9654 22.5586C35.8419 22.5586 35.5684 22.7663 35.3576 23.0199ZM27.3839 24.9662C23.7637 26.8059 23.4226 31.8586 26.7693 34.0733C31.2267 37.0232 36.7934 32.2545 34.4775 27.4702C33.1679 24.765 29.9885 23.6426 27.3839 24.9662ZM27.8914 26.6315C25.5772 28.0676 25.6043 31.4065 27.9411 32.7866C30.2451 34.1477 33.2867 32.3926 33.2867 29.7019C33.2867 27.005 30.1582 25.2245 27.8914 26.6315Z" fill="white"/>
<path opacity="0.33" fill-rule="evenodd" clip-rule="evenodd" d="M24.4392 21.2971C23.7844 21.6001 22.8873 22.2334 22.4459 22.7043C20.9003 24.3526 20.7188 25.2714 20.7188 31.4478C20.7188 37.6241 20.9003 38.5429 22.4459 40.1912C24.0895 41.944 25.0336 42.1497 31.4338 42.1497C37.8339 42.1497 38.778 41.944 40.4216 40.1912C41.9672 38.5429 42.1488 37.6241 42.1488 31.4478C42.1488 25.2714 41.9672 24.3526 40.4216 22.7043C38.778 20.9515 37.8339 20.7458 31.4338 20.7458C26.4114 20.7458 25.4694 20.82 24.4392 21.2971ZM37.0764 24.7658C36.7603 25.147 36.7796 25.3134 37.1889 25.7224C37.6508 26.1846 37.7175 26.1846 38.1794 25.7224C38.5887 25.3134 38.608 25.147 38.2919 24.7658C38.0812 24.5122 37.8077 24.3044 37.6842 24.3044C37.5606 24.3044 37.2871 24.5122 37.0764 24.7658ZM29.1026 26.712C25.4825 28.5517 25.1414 33.6044 28.488 35.8192C32.9455 38.7691 38.5122 34.0003 36.1963 29.2161C34.8867 26.5108 31.7073 25.3884 29.1026 26.712ZM29.6101 28.3773C27.296 29.8134 27.3231 33.1523 29.6598 34.5325C31.9638 35.8936 35.0054 34.1384 35.0054 31.4478C35.0054 28.7508 31.8769 26.9704 29.6101 28.3773Z" fill="white"/>
<path fill-rule="evenodd" clip-rule="evenodd" d="M26.4392 23.2971C25.7844 23.6001 24.8873 24.2334 24.4459 24.7043C22.9003 26.3526 22.7188 27.2714 22.7188 33.4478C22.7188 39.6241 22.9003 40.5429 24.4459 42.1912C26.0895 43.944 27.0336 44.1497 33.4338 44.1497C39.8339 44.1497 40.778 43.944 42.4216 42.1912C43.9672 40.5429 44.1488 39.6241 44.1488 33.4478C44.1488 27.2714 43.9672 26.3526 42.4216 24.7043C40.778 22.9515 39.8339 22.7458 33.4338 22.7458C28.4114 22.7458 27.4694 22.82 26.4392 23.2971ZM39.0764 26.7658C38.7603 27.147 38.7796 27.3134 39.1889 27.7224C39.6508 28.1846 39.7175 28.1846 40.1794 27.7224C40.5887 27.3134 40.608 27.147 40.2919 26.7658C40.0812 26.5122 39.8077 26.3044 39.6842 26.3044C39.5606 26.3044 39.2871 26.5122 39.0764 26.7658ZM31.1026 28.712C27.4825 30.5517 27.1414 35.6044 30.488 37.8192C34.9455 40.7691 40.5122 36.0003 38.1963 31.2161C36.8867 28.5108 33.7073 27.3884 31.1026 28.712ZM31.6101 30.3773C29.296 31.8134 29.3231 35.1523 31.6598 36.5325C33.9638 37.8936 37.0054 36.1384 37.0054 33.4478C37.0054 30.7508 33.8769 28.9704 31.6101 30.3773Z" fill="white"/>
</g>
<defs>
<clipPath id="clip0_5907_51310">
<rect width="64" height="64" fill="white"/>
</clipPath>
</defs>
</svg>
