<svg width="64" height="64" viewBox="0 0 64 64" fill="none" xmlns="http://www.w3.org/2000/svg">
<g clip-path="url(#clip0_5907_51284)">
<path d="M59.4275 32.0001C59.4275 16.8517 47.1473 4.57153 31.9989 4.57153C16.8505 4.57153 4.57031 16.8517 4.57031 32.0001C4.57031 47.1485 16.8505 59.4287 31.9989 59.4287C47.1473 59.4287 59.4275 47.1485 59.4275 32.0001Z" fill="#EDB01A"/>
<path opacity="0.15" fill-rule="evenodd" clip-rule="evenodd" d="M20 20.9741V21.9482H30.715H41.43V20.9741V20H30.715H20V20.9741ZM31.6079 24.4506L29.7409 24.9406V28.3148V31.6891H28.5899C26.0838 31.6891 24.8334 34.9286 26.6417 36.7365C27.7492 37.844 29.7844 37.844 30.892 36.7365C31.6417 35.9871 31.6891 35.7273 31.6891 32.3658V28.7918L33.0691 28.4353C33.8279 28.2392 34.7049 28.0044 35.0172 27.9138C35.476 27.7807 35.5855 27.3781 35.5855 25.8228V23.8964L34.5302 23.9285C33.9496 23.9464 32.6349 24.1811 31.6079 24.4506ZM20 25.8445V26.8186H23.8584C27.5856 26.8186 27.7236 26.7936 27.9129 26.0881C28.0203 25.6861 28.1106 25.2481 28.1129 25.114C28.1155 24.9799 26.291 24.8705 24.0587 24.8705H20V25.8445ZM37.5336 25.8445V26.8186H39.4818H41.43V25.8445V24.8705H39.4818H37.5336V25.8445ZM20 30.715V31.6891H22.4239C24.5594 31.6891 25.0309 31.5732 26.3839 30.715L27.92 29.7409H23.96H20V30.715ZM33.6373 30.715V31.6891H37.5336H41.43V30.715V29.7409H37.5336H33.6373V30.715ZM20 35.5855V36.5595H22.2167H24.4334L24.2902 35.5855C24.1487 34.6198 24.1295 34.6114 22.0738 34.6114H20V35.5855ZM33.2434 35.5855L33.1002 36.5595H37.2651H41.43V35.5855V34.6114H37.408H33.3863L33.2434 35.5855ZM20 40.4559V41.43H30.715H41.43V40.4559V39.4818H30.715H20V40.4559Z" fill="white"/>
<path opacity="0.33" fill-rule="evenodd" clip-rule="evenodd" d="M21 21.9741V22.9482H31.715H42.43V21.9741V21H31.715H21V21.9741ZM32.6079 25.4506L30.7409 25.9406V29.3148V32.6891H29.5899C27.0838 32.6891 25.8334 35.9286 27.6417 37.7365C28.7492 38.844 30.7844 38.844 31.892 37.7365C32.6417 36.9871 32.6891 36.7273 32.6891 33.3658V29.7918L34.0691 29.4353C34.8279 29.2392 35.7049 29.0044 36.0172 28.9138C36.476 28.7807 36.5855 28.3781 36.5855 26.8228V24.8964L35.5302 24.9285C34.9496 24.9464 33.6349 25.1811 32.6079 25.4506ZM21 26.8445V27.8186H24.8584C28.5856 27.8186 28.7236 27.7936 28.9129 27.0881C29.0203 26.6861 29.1106 26.2481 29.1129 26.114C29.1155 25.9799 27.291 25.8705 25.0587 25.8705H21V26.8445ZM38.5336 26.8445V27.8186H40.4818H42.43V26.8445V25.8705H40.4818H38.5336V26.8445ZM21 31.715V32.6891H23.4239C25.5594 32.6891 26.0309 32.5732 27.3839 31.715L28.92 30.7409H24.96H21V31.715ZM34.6373 31.715V32.6891H38.5336H42.43V31.715V30.7409H38.5336H34.6373V31.715ZM21 36.5855V37.5595H23.2167H25.4334L25.2902 36.5855C25.1487 35.6198 25.1295 35.6114 23.0738 35.6114H21V36.5855ZM34.2434 36.5855L34.1002 37.5595H38.2651H42.43V36.5855V35.6114H38.408H34.3863L34.2434 36.5855ZM21 41.4559V42.43H31.715H42.43V41.4559V40.4818H31.715H21V41.4559Z" fill="white"/>
<path fill-rule="evenodd" clip-rule="evenodd" d="M22 22.9741V23.9482H32.715H43.43V22.9741V22H32.715H22V22.9741ZM33.6079 26.4506L31.7409 26.9406V30.3148V33.6891H30.5899C28.0838 33.6891 26.8334 36.9286 28.6417 38.7365C29.7492 39.844 31.7844 39.844 32.892 38.7365C33.6417 37.9871 33.6891 37.7273 33.6891 34.3658V30.7918L35.0691 30.4353C35.8279 30.2392 36.7049 30.0044 37.0172 29.9138C37.476 29.7807 37.5855 29.3781 37.5855 27.8228V25.8964L36.5302 25.9285C35.9496 25.9464 34.6349 26.1811 33.6079 26.4506ZM22 27.8445V28.8186H25.8584C29.5856 28.8186 29.7236 28.7936 29.9129 28.0881C30.0203 27.6861 30.1106 27.2481 30.1129 27.114C30.1155 26.9799 28.291 26.8705 26.0587 26.8705H22V27.8445ZM39.5336 27.8445V28.8186H41.4818H43.43V27.8445V26.8705H41.4818H39.5336V27.8445ZM22 32.715V33.6891H24.4239C26.5594 33.6891 27.0309 33.5732 28.3839 32.715L29.92 31.7409H25.96H22V32.715ZM35.6373 32.715V33.6891H39.5336H43.43V32.715V31.7409H39.5336H35.6373V32.715ZM22 37.5855V38.5595H24.2167H26.4334L26.2902 37.5855C26.1487 36.6198 26.1295 36.6114 24.0738 36.6114H22V37.5855ZM35.2434 37.5855L35.1002 38.5595H39.2651H43.43V37.5855V36.6114H39.408H35.3863L35.2434 37.5855ZM22 42.4559V43.43H32.715H43.43V42.4559V41.4818H32.715H22V42.4559Z" fill="white"/>
<path d="M59.4275 32.0001C59.4275 16.8517 47.1473 4.57153 31.9989 4.57153C16.8505 4.57153 4.57031 16.8517 4.57031 32.0001C4.57031 47.1485 16.8505 59.4287 31.9989 59.4287C47.1473 59.4287 59.4275 47.1485 59.4275 32.0001Z" stroke="#FFF5DE" stroke-width="9.14286"/>
</g>
<defs>
<clipPath id="clip0_5907_51284">
<rect width="64" height="64" fill="white"/>
</clipPath>
</defs>
</svg>
