<svg width="64" height="64" viewBox="0 0 64 64" fill="none" xmlns="http://www.w3.org/2000/svg">
<g clip-path="url(#clip0_5906_50941)">
<path d="M59.4275 32C59.4275 16.8516 47.1473 4.57141 31.9989 4.57141C16.8505 4.57141 4.57031 16.8516 4.57031 32C4.57031 47.1484 16.8505 59.4286 31.9989 59.4286C47.1473 59.4286 59.4275 47.1484 59.4275 32Z" fill="#EDB01A"/>
<g opacity="0.15">
<path d="M22.559 23.8889C21.0249 23.8889 19.7812 25.1326 19.7812 26.6667V28.75C19.7812 30.2841 21.0249 31.5278 22.559 31.5278H24.6424C26.1765 31.5278 27.4201 30.2841 27.4201 28.75V26.6667C27.4201 25.1326 26.1765 23.8889 24.6424 23.8889H22.559Z" fill="white"/>
<path d="M31.5903 23.8889C30.0562 23.8889 28.8125 25.1326 28.8125 26.6667V28.75C28.8125 30.2841 30.0562 31.5278 31.5903 31.5278H33.6736C35.2077 31.5278 36.4514 30.2841 36.4514 28.75V26.6667C36.4514 25.1326 35.2077 23.8889 33.6736 23.8889H31.5903Z" fill="white"/>
<path d="M22.559 32.9167C21.0249 32.9167 19.7812 34.1604 19.7812 35.6945V37.7779C19.7812 39.312 21.0249 40.5556 22.559 40.5556H24.6424C26.1765 40.5556 27.4201 39.312 27.4201 37.7779V35.6945C27.4201 34.1604 26.1765 32.9167 24.6424 32.9167H22.559Z" fill="white"/>
<path d="M33.3264 33.6112C33.3264 33.2277 33.0155 32.9167 32.6319 32.9167C32.2484 32.9167 31.9375 33.2277 31.9375 33.6112V36.0417H29.5069C29.1234 36.0417 28.8125 36.3527 28.8125 36.7362C28.8125 37.1197 29.1234 37.4306 29.5069 37.4306H31.9375V39.8612C31.9375 40.2447 32.2484 40.5556 32.6319 40.5556C33.0155 40.5556 33.3264 40.2447 33.3264 39.8612V37.4306H35.7569C36.1405 37.4306 36.4514 37.1197 36.4514 36.7362C36.4514 36.3527 36.1405 36.0417 35.7569 36.0417H33.3264V33.6112Z" fill="white"/>
</g>
<g opacity="0.33">
<path d="M26.4418 23.8889C24.9077 23.8889 23.6641 25.1326 23.6641 26.6667V28.75C23.6641 30.2841 24.9077 31.5278 26.4418 31.5278H28.5252C30.0593 31.5278 31.303 30.2841 31.303 28.75V26.6667C31.303 25.1326 30.0593 23.8889 28.5252 23.8889H26.4418Z" fill="white"/>
<path d="M35.4731 23.8889C33.939 23.8889 32.6953 25.1326 32.6953 26.6667V28.75C32.6953 30.2841 33.939 31.5278 35.4731 31.5278H37.5564C39.0905 31.5278 40.3342 30.2841 40.3342 28.75V26.6667C40.3342 25.1326 39.0905 23.8889 37.5564 23.8889H35.4731Z" fill="white"/>
<path d="M26.4418 32.9167C24.9077 32.9167 23.6641 34.1604 23.6641 35.6945V37.7779C23.6641 39.312 24.9077 40.5556 26.4418 40.5556H28.5252C30.0593 40.5556 31.303 39.312 31.303 37.7779V35.6945C31.303 34.1604 30.0593 32.9167 28.5252 32.9167H26.4418Z" fill="white"/>
<path d="M37.2092 33.6112C37.2092 33.2277 36.8983 32.9167 36.5148 32.9167C36.1312 32.9167 35.8203 33.2277 35.8203 33.6112V36.0417H33.3898C33.0062 36.0417 32.6953 36.3527 32.6953 36.7362C32.6953 37.1197 33.0062 37.4306 33.3898 37.4306H35.8203V39.8612C35.8203 40.2447 36.1312 40.5556 36.5148 40.5556C36.8983 40.5556 37.2092 40.2447 37.2092 39.8612V37.4306H39.6398C40.0233 37.4306 40.3342 37.1197 40.3342 36.7362C40.3342 36.3527 40.0233 36.0417 39.6398 36.0417H37.2092V33.6112Z" fill="white"/>
</g>
<path d="M30.3325 23.8889C28.7984 23.8889 27.5547 25.1326 27.5547 26.6667V28.75C27.5547 30.2841 28.7984 31.5278 30.3325 31.5278H32.4158C33.9499 31.5278 35.1936 30.2841 35.1936 28.75V26.6667C35.1936 25.1326 33.9499 23.8889 32.4158 23.8889H30.3325Z" fill="white"/>
<path d="M39.3637 23.8889C37.8296 23.8889 36.5859 25.1326 36.5859 26.6667V28.75C36.5859 30.2841 37.8296 31.5278 39.3637 31.5278H41.447C42.9812 31.5278 44.2248 30.2841 44.2248 28.75V26.6667C44.2248 25.1326 42.9812 23.8889 41.447 23.8889H39.3637Z" fill="white"/>
<path d="M30.3325 32.9166C28.7984 32.9166 27.5547 34.1603 27.5547 35.6944V37.7777C27.5547 39.3118 28.7984 40.5555 30.3325 40.5555H32.4158C33.9499 40.5555 35.1936 39.3118 35.1936 37.7777V35.6944C35.1936 34.1603 33.9499 32.9166 32.4158 32.9166H30.3325Z" fill="white"/>
<path d="M41.0998 33.6111C41.0998 33.2275 40.7889 32.9166 40.4054 32.9166C40.0219 32.9166 39.7109 33.2275 39.7109 33.6111V36.0416H37.2804C36.8969 36.0416 36.5859 36.3525 36.5859 36.7361C36.5859 37.1196 36.8969 37.4305 37.2804 37.4305H39.7109V39.8611C39.7109 40.2446 40.0219 40.5555 40.4054 40.5555C40.7889 40.5555 41.0998 40.2446 41.0998 39.8611V37.4305H43.5304C43.9139 37.4305 44.2248 37.1196 44.2248 36.7361C44.2248 36.3525 43.9139 36.0416 43.5304 36.0416H41.0998V33.6111Z" fill="white"/>
<path d="M59.4275 32C59.4275 16.8516 47.1473 4.57141 31.9989 4.57141C16.8505 4.57141 4.57031 16.8516 4.57031 32C4.57031 47.1484 16.8505 59.4286 31.9989 59.4286C47.1473 59.4286 59.4275 47.1484 59.4275 32Z" stroke="#FFF5DE" stroke-width="9.14286"/>
</g>
<defs>
<clipPath id="clip0_5906_50941">
<rect width="64" height="64" fill="white"/>
</clipPath>
</defs>
</svg>
