<svg width="64" height="64" viewBox="0 0 64 64" fill="none" xmlns="http://www.w3.org/2000/svg">
<g clip-path="url(#clip0_5906_50901)">
<path d="M59.4275 32C59.4275 16.8516 47.1473 4.57141 31.9989 4.57141C16.8505 4.57141 4.57031 16.8516 4.57031 32C4.57031 47.1484 16.8505 59.4286 31.9989 59.4286C47.1473 59.4286 59.4275 47.1484 59.4275 32Z" fill="#EDB01A"/>
<g opacity="0.15">
<path d="M22.6583 22.9773C21.0953 22.9773 19.8281 24.2492 19.8281 25.8182V27.2387C19.8281 27.6309 20.1449 27.9489 20.5357 27.9489C20.9264 27.9489 21.2432 27.6309 21.2432 27.2387V25.8182C21.2432 25.0337 21.8768 24.3977 22.6583 24.3977H24.0734C24.4642 24.3977 24.781 24.0798 24.781 23.6875C24.781 23.2953 24.4642 22.9773 24.0734 22.9773H22.6583Z" fill="white"/>
<path d="M32.5669 22.9773C32.1762 22.9773 31.8594 23.2953 31.8594 23.6875C31.8594 24.0798 32.1762 24.3977 32.5669 24.3977H33.982C34.7635 24.3977 35.3971 25.0337 35.3971 25.8182V27.2387C35.3971 27.6309 35.7139 27.9489 36.1047 27.9489C36.4954 27.9489 36.8122 27.6309 36.8122 27.2387V25.8182C36.8122 24.2492 35.5451 22.9773 33.982 22.9773H32.5669Z" fill="white"/>
<path d="M28.319 27.9489C26.3651 27.9489 24.7812 29.5387 24.7812 31.5C24.7812 33.4612 26.3651 35.0511 28.319 35.0511C30.2728 35.0511 31.8567 33.4612 31.8567 31.5C31.8567 29.5387 30.2728 27.9489 28.319 27.9489Z" fill="white"/>
<path d="M21.2432 35.7614C21.2432 35.3691 20.9264 35.0511 20.5357 35.0511C20.1449 35.0511 19.8281 35.3691 19.8281 35.7614V37.1818C19.8281 38.7508 21.0953 40.0227 22.6583 40.0227H24.0734C24.4642 40.0227 24.781 39.7048 24.781 39.3125C24.781 38.9203 24.4642 38.6023 24.0734 38.6023H22.6583C21.8768 38.6023 21.2432 37.9663 21.2432 37.1818V35.7614Z" fill="white"/>
<path d="M36.8122 35.7614C36.8122 35.3691 36.4954 35.0511 36.1047 35.0511C35.7139 35.0511 35.3971 35.3691 35.3971 35.7614V37.1818C35.3971 37.9663 34.7635 38.6023 33.982 38.6023H32.5669C32.1762 38.6023 31.8594 38.9203 31.8594 39.3125C31.8594 39.7048 32.1762 40.0227 32.5669 40.0227H33.982C35.5451 40.0227 36.8122 38.7508 36.8122 37.1818V35.7614Z" fill="white"/>
</g>
<g opacity="0.33">
<path d="M26.338 22.9773C24.7749 22.9773 23.5078 24.2492 23.5078 25.8182V27.2387C23.5078 27.6309 23.8246 27.9489 24.2154 27.9489C24.6061 27.9489 24.9229 27.6309 24.9229 27.2387V25.8182C24.9229 25.0337 25.5565 24.3977 26.338 24.3977H27.7531C28.1439 24.3977 28.4606 24.0798 28.4606 23.6875C28.4606 23.2953 28.1439 22.9773 27.7531 22.9773H26.338Z" fill="white"/>
<path d="M36.2466 22.9773C35.8558 22.9773 35.5391 23.2953 35.5391 23.6875C35.5391 24.0798 35.8558 24.3977 36.2466 24.3977H37.6617C38.4432 24.3977 39.0768 25.0337 39.0768 25.8182V27.2387C39.0768 27.6309 39.3936 27.9489 39.7843 27.9489C40.1751 27.9489 40.4919 27.6309 40.4919 27.2387V25.8182C40.4919 24.2492 39.2248 22.9773 37.6617 22.9773H36.2466Z" fill="white"/>
<path d="M31.9987 27.9489C30.0448 27.9489 28.4609 29.5387 28.4609 31.5C28.4609 33.4612 30.0448 35.0511 31.9987 35.0511C33.9525 35.0511 35.5364 33.4612 35.5364 31.5C35.5364 29.5387 33.9525 27.9489 31.9987 27.9489Z" fill="white"/>
<path d="M24.9229 35.7614C24.9229 35.3691 24.6061 35.0511 24.2154 35.0511C23.8246 35.0511 23.5078 35.3691 23.5078 35.7614V37.1818C23.5078 38.7508 24.7749 40.0227 26.338 40.0227H27.7531C28.1439 40.0227 28.4606 39.7048 28.4606 39.3125C28.4606 38.9203 28.1439 38.6023 27.7531 38.6023H26.338C25.5565 38.6023 24.9229 37.9663 24.9229 37.1818V35.7614Z" fill="white"/>
<path d="M40.4919 35.7614C40.4919 35.3691 40.1751 35.0511 39.7843 35.0511C39.3936 35.0511 39.0768 35.3691 39.0768 35.7614V37.1818C39.0768 37.9663 38.4432 38.6023 37.6617 38.6023H36.2466C35.8558 38.6023 35.5391 38.9203 35.5391 39.3125C35.5391 39.7048 35.8558 40.0227 36.2466 40.0227H37.6617C39.2248 40.0227 40.4919 38.7508 40.4919 37.1818V35.7614Z" fill="white"/>
</g>
<path d="M30.0177 22.9773C28.4546 22.9773 27.1875 24.2492 27.1875 25.8182V27.2387C27.1875 27.6309 27.5043 27.9489 27.895 27.9489C28.2858 27.9489 28.6026 27.6309 28.6026 27.2387V25.8182C28.6026 25.0337 29.2362 24.3977 30.0177 24.3977H31.4328C31.8235 24.3977 32.1403 24.0798 32.1403 23.6875C32.1403 23.2953 31.8235 22.9773 31.4328 22.9773H30.0177Z" fill="white"/>
<path d="M39.9263 22.9773C39.5355 22.9773 39.2188 23.2953 39.2188 23.6875C39.2188 24.0798 39.5355 24.3977 39.9263 24.3977H41.3414C42.1229 24.3977 42.7565 25.0337 42.7565 25.8182V27.2387C42.7565 27.6309 43.0733 27.9489 43.464 27.9489C43.8548 27.9489 44.1716 27.6309 44.1716 27.2387V25.8182C44.1716 24.2492 42.9044 22.9773 41.3414 22.9773H39.9263Z" fill="white"/>
<path d="M35.6784 27.9489C33.7245 27.9489 32.1406 29.5387 32.1406 31.5C32.1406 33.4612 33.7245 35.0511 35.6784 35.0511C37.6322 35.0511 39.2161 33.4612 39.2161 31.5C39.2161 29.5387 37.6322 27.9489 35.6784 27.9489Z" fill="white"/>
<path d="M28.6026 35.7614C28.6026 35.3691 28.2858 35.0511 27.895 35.0511C27.5043 35.0511 27.1875 35.3691 27.1875 35.7614V37.1818C27.1875 38.7508 28.4546 40.0227 30.0177 40.0227H31.4328C31.8235 40.0227 32.1403 39.7048 32.1403 39.3125C32.1403 38.9203 31.8235 38.6023 31.4328 38.6023H30.0177C29.2362 38.6023 28.6026 37.9663 28.6026 37.1818V35.7614Z" fill="white"/>
<path d="M44.1716 35.7614C44.1716 35.3691 43.8548 35.0511 43.464 35.0511C43.0733 35.0511 42.7565 35.3691 42.7565 35.7614V37.1818C42.7565 37.9663 42.1229 38.6023 41.3414 38.6023H39.9263C39.5355 38.6023 39.2188 38.9203 39.2188 39.3125C39.2188 39.7048 39.5355 40.0227 39.9263 40.0227H41.3414C42.9044 40.0227 44.1716 38.7508 44.1716 37.1818V35.7614Z" fill="white"/>
<path d="M59.4275 32C59.4275 16.8516 47.1473 4.57141 31.9989 4.57141C16.8505 4.57141 4.57031 16.8516 4.57031 32C4.57031 47.1484 16.8505 59.4286 31.9989 59.4286C47.1473 59.4286 59.4275 47.1484 59.4275 32Z" stroke="#FFF5DE" stroke-width="9.14286"/>
</g>
<defs>
<clipPath id="clip0_5906_50901">
<rect width="64" height="64" fill="white"/>
</clipPath>
</defs>
</svg>
