<svg width="64" height="64" viewBox="0 0 64 64" fill="none" xmlns="http://www.w3.org/2000/svg">
<g clip-path="url(#clip0_5907_51388)">
<path d="M59.4275 32.0001C59.4275 16.8517 47.1473 4.57153 31.9989 4.57153C16.8505 4.57153 4.57031 16.8517 4.57031 32.0001C4.57031 47.1485 16.8505 59.4287 31.9989 59.4287C47.1473 59.4287 59.4275 47.1485 59.4275 32.0001Z" fill="#EDB01A"/>
<path d="M59.4275 32.0001C59.4275 16.8517 47.1473 4.57153 31.9989 4.57153C16.8505 4.57153 4.57031 16.8517 4.57031 32.0001C4.57031 47.1485 16.8505 59.4287 31.9989 59.4287C47.1473 59.4287 59.4275 47.1485 59.4275 32.0001Z" stroke="#FFF5DE" stroke-width="9.14286"/>
<path opacity="0.15" fill-rule="evenodd" clip-rule="evenodd" d="M19.6494 19.6494C19.0299 20.2689 19 20.7316 19 29.715C19 38.6984 19.0299 39.1611 19.6494 39.7806C20.2689 40.4001 20.7316 40.43 29.715 40.43C38.6984 40.43 39.1611 40.4001 39.7806 39.7806C40.4001 39.1611 40.43 38.6984 40.43 29.715C40.43 20.7316 40.4001 20.2689 39.7806 19.6494C39.1611 19.0299 38.6984 19 29.715 19C20.7316 19 20.2689 19.0299 19.6494 19.6494ZM23.0165 25.3248C22.9123 25.5965 22.9123 26.0407 23.0165 26.3125C23.1789 26.7359 24.1422 26.7937 29.7887 26.7184L36.3713 26.6304V25.8186V25.0069L29.7887 24.9189C24.1422 24.8436 23.1789 24.9014 23.0165 25.3248ZM23.0165 29.2211C22.9123 29.4929 22.9123 29.9371 23.0165 30.2089C23.1789 30.6323 24.1422 30.6901 29.7887 30.6147L36.3713 30.5267V29.715V28.9033L29.7887 28.8153C24.1422 28.7399 23.1789 28.7977 23.0165 29.2211ZM23.0172 33.1152C22.9126 33.3883 22.9126 33.8344 23.0172 34.1075C23.1779 34.526 23.9286 34.5894 27.8412 34.5134L32.4749 34.4231V33.6114V32.7996L27.8412 32.7094C23.9286 32.6334 23.1779 32.6967 23.0172 33.1152Z" fill="white"/>
<path opacity="0.33" fill-rule="evenodd" clip-rule="evenodd" d="M21.3681 21.3642C20.7486 21.9838 20.7188 22.4465 20.7188 31.4298C20.7188 40.4132 20.7486 40.8759 21.3681 41.4955C21.9877 42.115 22.4504 42.1448 31.4338 42.1448C40.4171 42.1448 40.8798 42.115 41.4994 41.4955C42.1189 40.8759 42.1488 40.4132 42.1488 31.4298C42.1488 22.4465 42.1189 21.9838 41.4994 21.3642C40.8798 20.7447 40.4171 20.7148 31.4338 20.7148C22.4504 20.7148 21.9877 20.7447 21.3681 21.3642ZM24.7353 27.0396C24.631 27.3114 24.631 27.7556 24.7353 28.0273C24.8976 28.4507 25.861 28.5085 31.5075 28.4332L38.09 28.3452V27.5335V26.7217L31.5075 26.6337C25.861 26.5584 24.8976 26.6162 24.7353 27.0396ZM24.7353 30.936C24.631 31.2078 24.631 31.6519 24.7353 31.9237C24.8976 32.3471 25.861 32.4049 31.5075 32.3296L38.09 32.2416V31.4298V30.6181L31.5075 30.5301C25.861 30.4548 24.8976 30.5126 24.7353 30.936ZM24.7359 34.8301C24.6313 35.1031 24.6313 35.5493 24.7359 35.8223C24.8966 36.2409 25.6473 36.3042 29.5599 36.2282L34.1937 36.138V35.3262V34.5145L29.5599 34.4242C25.6473 34.3482 24.8966 34.4115 24.7359 34.8301Z" fill="white"/>
<path fill-rule="evenodd" clip-rule="evenodd" d="M23.3681 23.3642C22.7486 23.9838 22.7188 24.4465 22.7188 33.4298C22.7188 42.4132 22.7486 42.8759 23.3681 43.4955C23.9877 44.115 24.4504 44.1448 33.4338 44.1448C42.4171 44.1448 42.8798 44.115 43.4994 43.4955C44.1189 42.8759 44.1488 42.4132 44.1488 33.4298C44.1488 24.4465 44.1189 23.9838 43.4994 23.3642C42.8798 22.7447 42.4171 22.7148 33.4338 22.7148C24.4504 22.7148 23.9877 22.7447 23.3681 23.3642ZM26.7353 29.0396C26.631 29.3114 26.631 29.7556 26.7353 30.0273C26.8976 30.4507 27.861 30.5085 33.5075 30.4332L40.09 30.3452V29.5335V28.7217L33.5075 28.6337C27.861 28.5584 26.8976 28.6162 26.7353 29.0396ZM26.7353 32.936C26.631 33.2078 26.631 33.6519 26.7353 33.9237C26.8976 34.3471 27.861 34.4049 33.5075 34.3296L40.09 34.2416V33.4298V32.6181L33.5075 32.5301C27.861 32.4548 26.8976 32.5126 26.7353 32.936ZM26.7359 36.8301C26.6313 37.1031 26.6313 37.5493 26.7359 37.8223C26.8966 38.2409 27.6473 38.3042 31.5599 38.2282L36.1937 38.138V37.3262V36.5145L31.5599 36.4242C27.6473 36.3482 26.8966 36.4115 26.7359 36.8301Z" fill="white"/>
</g>
<defs>
<clipPath id="clip0_5907_51388">
<rect width="64" height="64" fill="white"/>
</clipPath>
</defs>
</svg>
