<svg width="64" height="64" viewBox="0 0 64 64" fill="none" xmlns="http://www.w3.org/2000/svg">
<g clip-path="url(#clip0_5907_51297)">
<path d="M59.4275 32.0001C59.4275 16.8517 47.1473 4.57153 31.9989 4.57153C16.8505 4.57153 4.57031 16.8517 4.57031 32.0001C4.57031 47.1485 16.8505 59.4287 31.9989 59.4287C47.1473 59.4287 59.4275 47.1485 59.4275 32.0001Z" fill="#EDB01A"/>
<path d="M59.4275 32.0001C59.4275 16.8517 47.1473 4.57153 31.9989 4.57153C16.8505 4.57153 4.57031 16.8517 4.57031 32.0001C4.57031 47.1485 16.8505 59.4287 31.9989 59.4287C47.1473 59.4287 59.4275 47.1485 59.4275 32.0001Z" stroke="#FFF5DE" stroke-width="9.14286"/>
<path opacity="0.15" fill-rule="evenodd" clip-rule="evenodd" d="M36.4215 20.3852C31.6532 21.5592 28.6005 24.5488 27.6493 28.9756C26.9702 32.1357 27.1012 32.0087 24.4071 32.1111C22.096 32.1986 22.0232 32.2251 22.0232 32.9795V33.7576H27.0032H31.9831V32.9795C31.9831 32.25 31.8708 32.1955 30.1835 32.1077L28.3842 32.014L29.4007 30.1067C29.96 29.0575 31.3233 27.2933 32.4301 26.1865C34.5186 24.0984 35.368 24.014 33.7625 26.0546C32.6965 27.4088 31.4011 29.8558 31.6292 30.084C32.028 30.4824 37.2644 28.1711 38.017 27.2644C38.3441 26.8704 38.3011 26.7206 37.7649 26.3857C36.7981 25.7822 36.9783 25.5096 38.3441 25.5096C39.5408 25.5096 39.5928 25.4626 40.549 23.5204C41.0878 22.4261 41.4815 21.2007 41.4245 20.797C41.3324 20.1468 41.1422 20.0559 39.7643 20.0039C38.9084 19.9716 37.4041 20.1431 36.4215 20.3852ZM20.5152 36.35C20.1389 36.7659 20.0001 37.5076 20.0001 39.103C20.0001 42.3671 19.8902 42.317 27.0573 42.317C34.1441 42.317 34.0062 42.3829 34.0062 38.9947C34.0062 35.7306 34.1161 35.7808 26.949 35.7808C21.6105 35.7808 20.9799 35.8365 20.5152 36.35Z" fill="white"/>
<path opacity="0.33" fill-rule="evenodd" clip-rule="evenodd" d="M37.4215 21.3852C32.6532 22.5592 29.6005 25.5488 28.6493 29.9756C27.9702 33.1357 28.1012 33.0087 25.4071 33.1111C23.096 33.1986 23.0232 33.2251 23.0232 33.9795V34.7576H28.0032H32.9831V33.9795C32.9831 33.25 32.8708 33.1955 31.1835 33.1077L29.3842 33.014L30.4007 31.1067C30.96 30.0575 32.3233 28.2933 33.4301 27.1865C35.5186 25.0984 36.368 25.014 34.7625 27.0546C33.6965 28.4088 32.4011 30.8558 32.6292 31.084C33.028 31.4824 38.2644 29.1711 39.017 28.2644C39.3441 27.8704 39.3011 27.7206 38.7649 27.3857C37.7981 26.7822 37.9783 26.5096 39.3441 26.5096C40.5408 26.5096 40.5928 26.4626 41.549 24.5204C42.0878 23.4261 42.4815 22.2007 42.4245 21.797C42.3324 21.1468 42.1422 21.0559 40.7643 21.0039C39.9084 20.9716 38.4041 21.1431 37.4215 21.3852ZM21.5152 37.35C21.1389 37.7659 21.0001 38.5076 21.0001 40.103C21.0001 43.3671 20.8902 43.317 28.0573 43.317C35.1441 43.317 35.0062 43.3829 35.0062 39.9947C35.0062 36.7306 35.1161 36.7808 27.949 36.7808C22.6105 36.7808 21.9799 36.8365 21.5152 37.35Z" fill="white"/>
<path fill-rule="evenodd" clip-rule="evenodd" d="M38.4215 22.3852C33.6532 23.5592 30.6005 26.5488 29.6493 30.9756C28.9702 34.1357 29.1012 34.0087 26.4071 34.1111C24.096 34.1986 24.0232 34.2251 24.0232 34.9795V35.7576H29.0032H33.9831V34.9795C33.9831 34.25 33.8708 34.1955 32.1835 34.1077L30.3842 34.014L31.4007 32.1067C31.96 31.0575 33.3233 29.2933 34.4301 28.1865C36.5186 26.0984 37.368 26.014 35.7625 28.0546C34.6965 29.4088 33.4011 31.8558 33.6292 32.084C34.028 32.4824 39.2644 30.1711 40.017 29.2644C40.3441 28.8704 40.3011 28.7206 39.7649 28.3857C38.7981 27.7822 38.9783 27.5096 40.3441 27.5096C41.5408 27.5096 41.5928 27.4626 42.549 25.5204C43.0878 24.4261 43.4815 23.2007 43.4245 22.797C43.3324 22.1468 43.1422 22.0559 41.7643 22.0039C40.9084 21.9716 39.4041 22.1431 38.4215 22.3852ZM22.5152 38.35C22.1389 38.7659 22.0001 39.5076 22.0001 41.103C22.0001 44.3671 21.8902 44.317 29.0573 44.317C36.1441 44.317 36.0062 44.3829 36.0062 40.9947C36.0062 37.7306 36.1161 37.7808 28.949 37.7808C23.6105 37.7808 22.9799 37.8365 22.5152 38.35Z" fill="white"/>
</g>
<defs>
<clipPath id="clip0_5907_51297">
<rect width="64" height="64" fill="white"/>
</clipPath>
</defs>
</svg>
