<svg width="64" height="64" viewBox="0 0 64 64" fill="none" xmlns="http://www.w3.org/2000/svg">
<g clip-path="url(#clip0_5907_51323)">
<path d="M59.4275 32.0001C59.4275 16.8517 47.1473 4.57153 31.9989 4.57153C16.8505 4.57153 4.57031 16.8517 4.57031 32.0001C4.57031 47.1485 16.8505 59.4287 31.9989 59.4287C47.1473 59.4287 59.4275 47.1485 59.4275 32.0001Z" fill="#EDB01A"/>
<path d="M59.4275 32.0001C59.4275 16.8517 47.1473 4.57153 31.9989 4.57153C16.8505 4.57153 4.57031 16.8517 4.57031 32.0001C4.57031 47.1485 16.8505 59.4287 31.9989 59.4287C47.1473 59.4287 59.4275 47.1485 59.4275 32.0001Z" stroke="#FFF5DE" stroke-width="9.14286"/>
<path opacity="0.15" fill-rule="evenodd" clip-rule="evenodd" d="M33.4275 17.0434C30.7646 17.6561 28.3081 18.2639 27.9682 18.3941C27.4398 18.597 27.3504 19.6976 27.3504 25.9891C27.3504 32.8173 27.2933 33.4037 26.5564 34.1406C26.0454 34.6516 25.2315 34.9351 24.2734 34.9363C20.1677 34.9403 17.6246 39.6019 19.7909 43.1538C21.8205 46.4829 26.9248 46.4829 28.9545 43.1538C29.6584 42 29.7299 41.1142 29.7311 33.5383L29.7327 25.1942L34.1684 24.2715C40.9613 22.8588 40.5055 23.2201 40.3697 19.3546C40.2577 16.1747 40.224 16.0731 39.2616 16.0024C38.7156 15.9623 36.0904 16.4308 33.4275 17.0434Z" fill="white"/>
<path opacity="0.33" fill-rule="evenodd" clip-rule="evenodd" d="M35.4275 19.0434C32.7646 19.6561 30.3081 20.2639 29.9682 20.3941C29.4398 20.597 29.3504 21.6976 29.3504 27.9891C29.3504 34.8173 29.2933 35.4037 28.5564 36.1406C28.0454 36.6516 27.2315 36.9351 26.2734 36.9363C22.1677 36.9403 19.6246 41.6019 21.7909 45.1538C23.8205 48.4829 28.9248 48.4829 30.9545 45.1538C31.6584 44 31.7299 43.1142 31.7311 35.5383L31.7327 27.1942L36.1684 26.2715C42.9613 24.8588 42.5055 25.2201 42.3697 21.3546C42.2577 18.1747 42.224 18.0731 41.2616 18.0024C40.7156 17.9623 38.0904 18.4308 35.4275 19.0434Z" fill="white"/>
<path fill-rule="evenodd" clip-rule="evenodd" d="M37.4275 20.0434C34.7646 20.6561 32.3081 21.2639 31.9682 21.3941C31.4398 21.597 31.3504 22.6976 31.3504 28.9891C31.3504 35.8173 31.2933 36.4037 30.5564 37.1406C30.0454 37.6516 29.2315 37.9351 28.2734 37.9363C24.1677 37.9403 21.6246 42.6019 23.7909 46.1538C25.8205 49.4829 30.9248 49.4829 32.9545 46.1538C33.6584 45 33.7299 44.1142 33.7311 36.5383L33.7327 28.1942L38.1684 27.2715C44.9613 25.8588 44.5055 26.2201 44.3697 22.3546C44.2577 19.1747 44.224 19.0731 43.2616 19.0024C42.7156 18.9623 40.0904 19.4308 37.4275 20.0434Z" fill="white"/>
</g>
<defs>
<clipPath id="clip0_5907_51323">
<rect width="64" height="64" fill="white"/>
</clipPath>
</defs>
</svg>
