<svg xmlns="http://www.w3.org/2000/svg" width="20" height="22" viewBox="0 0 20 22" fill="none">
  <g clip-path="url(#clip0_3785_23819)">
    <path d="M9.99041 0.00196361C7.82784 -0.000336133 5.7154 0.664075 3.93182 1.90753C2.14824 3.15098 0.777334 4.91505 0 6.96695L1.65654 7.6563C2.22636 6.14022 3.18629 4.80764 4.43597 3.79788C5.68565 2.78812 7.17918 2.13827 8.76041 1.91629C10.3416 1.6943 11.9525 1.90832 13.4245 2.53597C14.8965 3.16362 16.1757 4.18186 17.1282 5.48421H13.5849V7.29862H19.8721V0.905916H18.0876V3.73483C17.0786 2.56051 15.8338 1.61969 14.437 0.975779C13.0403 0.331864 11.524 -0.000198085 9.99041 0.00196361ZM18.3307 14.3091C17.6923 16.0271 16.555 17.5071 15.07 18.5525C13.5849 19.5978 11.8222 20.1592 10.016 20.1621C8.61984 20.1492 7.24565 19.8072 6.00154 19.1628C4.75743 18.5185 3.67732 17.5894 2.84618 16.4487H6.39591V14.6278H0.134314V21.027H1.91877V18.2111C3.13346 19.6265 4.6873 20.6987 6.42956 21.3236C8.17182 21.9485 10.0434 22.105 11.8626 21.7778C13.6819 21.4506 15.3871 20.651 16.8128 19.4563C18.2386 18.2617 19.3365 16.7126 20 14.9595L18.3435 14.3091H18.3307Z" fill="white" stroke="white" stroke-width="0.2"/>
  </g>
  <defs>
    <clipPath id="clip0_3785_23819">
      <rect width="20" height="21.9355" fill="white"/>
    </clipPath>
  </defs>
</svg>