<svg xmlns="http://www.w3.org/2000/svg" width="21" height="20" viewBox="0 0 21 20" fill="none">
  <g clip-path="url(#clip0_3785_23798)">
    <path d="M10.9768 10.36L7.81018 5.59963M5.22949 19L14.1436 5.59954M16.7241 19L13.0972 13.5476M15.5268 6.04C14.1737 6.04 13.0768 4.91176 13.0768 3.52C13.0768 2.12824 14.1737 1 15.5268 1C16.8799 1 17.9768 2.12824 17.9768 3.52C17.9768 4.91176 16.8799 6.04 15.5268 6.04ZM6.42681 6.04C5.07371 6.04 3.97681 4.91176 3.97681 3.52C3.97681 2.12824 5.07371 0.999999 6.42681 0.999999C7.77991 1 8.87681 2.12824 8.87681 3.52C8.87681 4.91176 7.77991 6.04 6.42681 6.04Z" stroke="white" stroke-width="2.2" stroke-linecap="round" stroke-linejoin="round"/>
  </g>
  <defs>
    <clipPath id="clip0_3785_23798">
      <rect width="20" height="20" fill="white" transform="translate(0.976807)"/>
    </clipPath>
  </defs>
</svg>