<svg xmlns="http://www.w3.org/2000/svg" width="21" height="20" viewBox="0 0 21 20" fill="none">
  <g clip-path="url(#clip0_3785_23860)">
    <path d="M1.73155 8.74778C2.48136 8.74778 2.98124 8.24791 2.98124 7.4981V6.24842H5.4806V7.4981C5.4806 8.24791 5.98048 8.74778 6.73029 8.74778C7.4801 8.74778 7.97997 8.24791 7.97997 7.4981V3.74905C7.97997 1.62459 6.35538 0 4.23092 0C2.10646 0 0.48187 1.62459 0.48187 3.74905V7.4981C0.48187 8.24791 0.981743 8.74778 1.73155 8.74778ZM4.23092 2.49937C4.98073 2.49937 5.4806 2.99924 5.4806 3.74905H2.98124C2.98124 2.99924 3.48111 2.49937 4.23092 2.49937ZM1.73155 14.9962H3.73105L0.856775 17.8705C0.48187 18.2454 0.356902 18.7453 0.606838 19.2451C0.731807 19.745 1.23168 19.9949 1.73155 19.9949H6.73029C7.4801 19.9949 7.97997 19.4951 7.97997 18.7453C7.97997 17.9954 7.4801 17.4956 6.73029 17.4956H4.73079L7.60506 14.6213C7.97997 14.2464 8.10494 13.7465 7.855 13.2466C7.73003 12.7468 7.23016 12.4968 6.73029 12.4968H1.73155C0.981743 12.4968 0.48187 12.9967 0.48187 13.7465C0.48187 14.4963 0.981743 14.9962 1.73155 14.9962ZM15.853 18.3703C16.1029 18.6203 16.4778 18.7453 16.7278 18.7453C16.9777 18.7453 17.3526 18.6203 17.6025 18.3703L20.1019 15.871C20.6018 15.3711 20.6018 14.6213 20.1019 14.1214C19.602 13.6216 18.8522 13.6216 18.3523 14.1214L17.9774 14.4963V2.49937C17.9774 1.74956 17.4776 1.24968 16.7278 1.24968C15.9779 1.24968 15.4781 1.74956 15.4781 2.49937V14.4963L15.1032 14.1214C14.6033 13.6216 13.8535 13.6216 13.3536 14.1214C12.8537 14.6213 12.8537 15.3711 13.3536 15.871L15.853 18.3703Z" fill="white"/>
  </g>
  <defs>
    <clipPath id="clip0_3785_23860">
      <rect width="20" height="20" fill="white" transform="translate(0.476807)"/>
    </clipPath>
  </defs>
</svg>