<svg xmlns="http://www.w3.org/2000/svg" width="21" height="20" viewBox="0 0 21 20" fill="none">
  <g clip-path="url(#clip0_3785_23855)">
    <path d="M2.23155 19.7453C2.98136 19.7453 3.48124 19.2454 3.48124 18.4956V17.2459H5.9806V18.4956C5.9806 19.2454 6.48048 19.7453 7.23029 19.7453C7.9801 19.7453 8.47997 19.2454 8.47997 18.4956V14.7465C8.47997 12.6221 6.85538 10.9975 4.73092 10.9975C2.60646 10.9975 0.98187 12.6221 0.98187 14.7465V18.4956C0.98187 19.2454 1.48174 19.7453 2.23155 19.7453ZM4.73092 13.4968C5.48073 13.4968 5.9806 13.9967 5.9806 14.7465H3.48124C3.48124 13.9967 3.98111 13.4968 4.73092 13.4968ZM2.23155 3.49937H4.23105L1.35678 6.37364C0.98187 6.74854 0.856902 7.24842 1.10684 7.74829C1.23181 8.24816 1.73168 8.4981 2.23155 8.4981H7.23029C7.9801 8.4981 8.47997 7.99823 8.47997 7.24842C8.47997 6.49861 7.9801 5.99873 7.23029 5.99873H5.23079L8.10506 3.12446C8.47997 2.74956 8.60494 2.24968 8.355 1.74981C8.23003 1.24994 7.73016 1 7.23029 1H2.23155C1.48174 1 0.98187 1.49987 0.98187 2.24968C0.98187 2.99949 1.48174 3.49937 2.23155 3.49937ZM16.353 18.1207C16.6029 18.3706 16.9778 18.4956 17.2278 18.4956C17.4777 18.4956 17.8526 18.3706 18.1025 18.1207L20.6019 15.6213C21.1018 15.1214 21.1018 14.3716 20.6019 13.8717C20.102 13.3719 19.3522 13.3719 18.8523 13.8717L18.4774 14.2466V2.24968C18.4774 1.49987 17.9776 1 17.2278 1C16.4779 1 15.9781 1.49987 15.9781 2.24968V14.2466L15.6032 13.8717C15.1033 13.3719 14.3535 13.3719 13.8536 13.8717C13.3537 14.3716 13.3537 15.1214 13.8536 15.6213L16.353 18.1207Z" fill="white"/>
  </g>
  <defs>
    <clipPath id="clip0_3785_23855">
      <rect width="20" height="20" fill="white" transform="translate(0.976807)"/>
    </clipPath>
  </defs>
</svg>