<svg width="64" height="64" viewBox="0 0 64 64" fill="none" xmlns="http://www.w3.org/2000/svg">
<g clip-path="url(#clip0_5906_50881)">
<path d="M59.4275 32C59.4275 16.8516 47.1473 4.57141 31.9989 4.57141C16.8505 4.57141 4.57031 16.8516 4.57031 32C4.57031 47.1484 16.8505 59.4286 31.9989 59.4286C47.1473 59.4286 59.4275 47.1484 59.4275 32Z" fill="#EDB01A"/>
<g opacity="0.15">
<path fill-rule="evenodd" clip-rule="evenodd" d="M35.125 31.75C38.2316 31.75 40.75 29.2316 40.75 26.125C40.75 25.5223 40.6552 24.9417 40.4797 24.3974C40.3491 23.9921 39.8418 23.9085 39.5407 24.2097L36.1753 27.575C36.0123 27.738 35.771 27.802 35.5583 27.7134C34.6465 27.3337 33.9168 26.6044 33.5365 25.6929C33.4477 25.48 33.5117 25.2386 33.6748 25.0755L37.0408 21.7095C37.3419 21.4084 37.2584 20.9011 36.8531 20.7704C36.3087 20.5949 35.7279 20.5 35.125 20.5C32.0184 20.5 29.5 23.0184 29.5 26.125C29.5 26.2473 29.5039 26.3687 29.5116 26.489C29.5813 27.5802 29.3522 28.7482 28.5122 29.4482L19.4752 36.979C18.6989 37.6259 18.25 38.5843 18.25 39.5949C18.25 41.4755 19.7745 43 21.6551 43C22.6657 43 23.6241 42.5511 24.271 41.7748L31.8018 32.7378C32.5018 31.8978 33.6698 31.6687 34.761 31.7384C34.8813 31.7461 35.0027 31.75 35.125 31.75ZM23.25 39.25C23.25 39.9403 22.6903 40.5 22 40.5C21.3097 40.5 20.75 39.9403 20.75 39.25C20.75 38.5597 21.3097 38 22 38C22.6903 38 23.25 38.5597 23.25 39.25Z" fill="white"/>
<path d="M35.1214 33.625C35.3378 33.625 35.552 33.6159 35.7638 33.5979L40.4562 38.2904C41.6766 39.5107 41.6766 41.4894 40.4562 42.7098C39.2358 43.9301 37.2572 43.9301 36.0368 42.7098L30.5234 37.1965L33.2387 33.9382C33.3033 33.8607 33.4231 33.7664 33.6661 33.6941C33.9187 33.6189 34.2526 33.585 34.6379 33.6096C34.798 33.6198 34.9592 33.625 35.1214 33.625Z" fill="white"/>
<path d="M24.4973 24.9823L27.4105 27.8954C27.3757 27.9453 27.341 27.9812 27.3091 28.0078L25.4973 29.5177L22.7296 26.75H21.1336C20.8969 26.75 20.6805 26.6163 20.5746 26.4046L18.4488 22.153C18.3285 21.9123 18.3757 21.6217 18.5659 21.4315L19.1788 20.8186C19.369 20.6283 19.6597 20.5812 19.9003 20.7015L24.1519 22.8273C24.3636 22.9332 24.4973 23.1496 24.4973 23.3863V24.9823Z" fill="white"/>
</g>
<g opacity="0.33">
<path fill-rule="evenodd" clip-rule="evenodd" d="M37.625 31.75C40.7316 31.75 43.25 29.2316 43.25 26.125C43.25 25.5223 43.1552 24.9417 42.9797 24.3974C42.8491 23.9921 42.3418 23.9085 42.0407 24.2097L38.6753 27.575C38.5123 27.738 38.271 27.802 38.0583 27.7134C37.1465 27.3337 36.4168 26.6044 36.0365 25.6929C35.9477 25.48 36.0117 25.2386 36.1748 25.0755L39.5408 21.7095C39.8419 21.4084 39.7584 20.9011 39.3531 20.7704C38.8087 20.5949 38.2279 20.5 37.625 20.5C34.5184 20.5 32 23.0184 32 26.125C32 26.2473 32.0039 26.3687 32.0116 26.489C32.0813 27.5802 31.8522 28.7482 31.0122 29.4482L21.9752 36.979C21.1989 37.6259 20.75 38.5843 20.75 39.5949C20.75 41.4755 22.2745 43 24.1551 43C25.1657 43 26.1241 42.5511 26.771 41.7748L34.3018 32.7378C35.0018 31.8978 36.1698 31.6687 37.261 31.7384C37.3813 31.7461 37.5027 31.75 37.625 31.75ZM25.75 39.25C25.75 39.9403 25.1903 40.5 24.5 40.5C23.8097 40.5 23.25 39.9403 23.25 39.25C23.25 38.5597 23.8097 38 24.5 38C25.1903 38 25.75 38.5597 25.75 39.25Z" fill="white"/>
<path d="M37.6214 33.625C37.8378 33.625 38.052 33.6159 38.2637 33.5979L42.9562 38.2904C44.1766 39.5107 44.1766 41.4894 42.9562 42.7098C41.7358 43.9301 39.7572 43.9301 38.5368 42.7098L33.0234 37.1965L35.7387 33.9382C35.8033 33.8607 35.9231 33.7664 36.1661 33.6941C36.4187 33.6189 36.7526 33.585 37.1379 33.6096C37.298 33.6198 37.4592 33.625 37.6214 33.625Z" fill="white"/>
<path d="M26.9973 24.9823L29.9105 27.8954C29.8757 27.9453 29.841 27.9812 29.8091 28.0078L27.9973 29.5177L25.2296 26.75H23.6336C23.3969 26.75 23.1805 26.6163 23.0746 26.4046L20.9488 22.153C20.8285 21.9123 20.8757 21.6217 21.0659 21.4315L21.6788 20.8186C21.869 20.6283 22.1597 20.5812 22.4003 20.7015L26.6519 22.8273C26.8636 22.9332 26.9973 23.1496 26.9973 23.3863V24.9823Z" fill="white"/>
</g>
<path fill-rule="evenodd" clip-rule="evenodd" d="M40.125 31.75C43.2316 31.75 45.75 29.2316 45.75 26.125C45.75 25.5223 45.6552 24.9417 45.4797 24.3974C45.3491 23.9921 44.8418 23.9085 44.5407 24.2097L41.1753 27.575C41.0123 27.738 40.771 27.802 40.5583 27.7134C39.6465 27.3337 38.9168 26.6044 38.5365 25.6929C38.4477 25.48 38.5117 25.2386 38.6748 25.0755L42.0408 21.7095C42.3419 21.4084 42.2584 20.9011 41.8531 20.7704C41.3087 20.5949 40.7279 20.5 40.125 20.5C37.0184 20.5 34.5 23.0184 34.5 26.125C34.5 26.2473 34.5039 26.3687 34.5116 26.489C34.5813 27.5802 34.3522 28.7482 33.5122 29.4482L24.4752 36.979C23.6989 37.6259 23.25 38.5843 23.25 39.5949C23.25 41.4755 24.7745 43 26.6551 43C27.6657 43 28.6241 42.5511 29.271 41.7748L36.8018 32.7378C37.5018 31.8978 38.6698 31.6687 39.761 31.7384C39.8813 31.7461 40.0027 31.75 40.125 31.75ZM28.25 39.25C28.25 39.9403 27.6903 40.5 27 40.5C26.3097 40.5 25.75 39.9403 25.75 39.25C25.75 38.5597 26.3097 38 27 38C27.6903 38 28.25 38.5597 28.25 39.25Z" fill="white"/>
<path d="M40.1214 33.625C40.3378 33.625 40.552 33.6159 40.7637 33.5979L45.4562 38.2904C46.6766 39.5107 46.6766 41.4894 45.4562 42.7098C44.2358 43.9301 42.2572 43.9301 41.0368 42.7098L35.5234 37.1965L38.2387 33.9382C38.3033 33.8607 38.4231 33.7664 38.6661 33.6941C38.9187 33.6189 39.2526 33.585 39.6379 33.6096C39.798 33.6198 39.9592 33.625 40.1214 33.625Z" fill="white"/>
<path d="M29.4973 24.9823L32.4105 27.8954C32.3757 27.9453 32.341 27.9812 32.3091 28.0078L30.4973 29.5177L27.7296 26.75H26.1336C25.8969 26.75 25.6805 26.6163 25.5746 26.4046L23.4488 22.153C23.3285 21.9123 23.3757 21.6217 23.5659 21.4315L24.1788 20.8186C24.369 20.6283 24.6597 20.5812 24.9003 20.7015L29.1519 22.8273C29.3636 22.9332 29.4973 23.1496 29.4973 23.3863V24.9823Z" fill="white"/>
<path d="M59.4275 32C59.4275 16.8516 47.1473 4.57141 31.9989 4.57141C16.8505 4.57141 4.57031 16.8516 4.57031 32C4.57031 47.1484 16.8505 59.4286 31.9989 59.4286C47.1473 59.4286 59.4275 47.1484 59.4275 32Z" stroke="#FFF5DE" stroke-width="9.14286"/>
</g>
<defs>
<clipPath id="clip0_5906_50881">
<rect width="64" height="64" fill="white"/>
</clipPath>
</defs>
</svg>
