<svg width="64" height="64" viewBox="0 0 64 64" fill="none" xmlns="http://www.w3.org/2000/svg">
<g clip-path="url(#clip0_5907_51349)">
<path d="M59.4275 32.0001C59.4275 16.8517 47.1473 4.57153 31.9989 4.57153C16.8505 4.57153 4.57031 16.8517 4.57031 32.0001C4.57031 47.1485 16.8505 59.4287 31.9989 59.4287C47.1473 59.4287 59.4275 47.1485 59.4275 32.0001Z" fill="#EDB01A"/>
<path d="M59.4275 32.0001C59.4275 16.8517 47.1473 4.57153 31.9989 4.57153C16.8505 4.57153 4.57031 16.8517 4.57031 32.0001C4.57031 47.1485 16.8505 59.4287 31.9989 59.4287C47.1473 59.4287 59.4275 47.1485 59.4275 32.0001Z" stroke="#FFF5DE" stroke-width="9.14286"/>
<path opacity="0.15" fill-rule="evenodd" clip-rule="evenodd" d="M21.7394 23.1288C21.6248 23.2476 21.5307 23.6286 21.5307 23.9757C21.5307 24.4571 21.3493 24.6275 20.7654 24.6948L20 24.7828V32.158V39.5333H30.715H41.43V32.158V24.7828L40.6816 24.6962C40.103 24.6294 39.9135 24.4399 39.8467 23.8613C39.7601 23.1129 39.7599 23.1129 37.5336 23.1708C36.1707 23.2061 34.4165 23.487 33.0111 23.8944L30.715 24.5601L28.4757 23.9117C26.1201 23.2292 22.0943 22.7614 21.7394 23.1288ZM23.2006 30.4809V36.3074L24.2443 36.4702C27.0096 36.9007 28.6043 37.233 29.6123 37.5887C30.5566 37.9221 30.8734 37.9221 31.8177 37.5887C32.8257 37.233 34.4204 36.9007 37.1857 36.4702L38.2294 36.3074V30.4809V24.6542L36.9074 24.8265C36.1805 24.9214 34.6462 25.2514 33.4981 25.5601C30.909 26.2562 30.521 26.2562 27.9319 25.5601C26.7838 25.2514 25.2498 24.9214 24.5226 24.8265L23.2006 24.6542V30.4809ZM29.9983 28.0766C29.9118 28.3023 29.8809 28.906 29.9302 29.4181C30.005 30.2018 30.1292 30.349 30.715 30.349C31.354 30.349 31.4108 30.2469 31.4108 29.0966C31.4108 28.009 31.3281 27.8325 30.7835 27.7551C30.4211 27.7037 30.0894 27.8395 29.9983 28.0766ZM29.9983 33.0862C29.9118 33.3119 29.8809 33.9156 29.9302 34.4277C30.005 35.2114 30.1292 35.3586 30.715 35.3586C31.354 35.3586 31.4108 35.2565 31.4108 34.1062C31.4108 33.0186 31.3281 32.8421 30.7835 32.7647C30.4211 32.7133 30.0894 32.8491 29.9983 33.0862Z" fill="white"/>
<path opacity="0.33" fill-rule="evenodd" clip-rule="evenodd" d="M22.7394 24.1288C22.6248 24.2476 22.5307 24.6286 22.5307 24.9757C22.5307 25.4571 22.3493 25.6275 21.7654 25.6948L21 25.7828V33.158V40.5333H31.715H42.43V33.158V25.7828L41.6816 25.6962C41.103 25.6294 40.9135 25.4399 40.8467 24.8613C40.7601 24.1129 40.7599 24.1129 38.5336 24.1708C37.1707 24.2061 35.4165 24.487 34.0111 24.8944L31.715 25.5601L29.4757 24.9117C27.1201 24.2292 23.0943 23.7614 22.7394 24.1288ZM24.2006 31.4809V37.3074L25.2443 37.4702C28.0096 37.9007 29.6043 38.233 30.6123 38.5887C31.5566 38.9221 31.8734 38.9221 32.8177 38.5887C33.8257 38.233 35.4204 37.9007 38.1857 37.4702L39.2294 37.3074V31.4809V25.6542L37.9074 25.8265C37.1805 25.9214 35.6462 26.2514 34.4981 26.5601C31.909 27.2562 31.521 27.2562 28.9319 26.5601C27.7838 26.2514 26.2498 25.9214 25.5226 25.8265L24.2006 25.6542V31.4809ZM30.9983 29.0766C30.9118 29.3023 30.8809 29.906 30.9302 30.4181C31.005 31.2018 31.1292 31.349 31.715 31.349C32.354 31.349 32.4108 31.2469 32.4108 30.0966C32.4108 29.009 32.3281 28.8325 31.7835 28.7551C31.4211 28.7037 31.0894 28.8395 30.9983 29.0766ZM30.9983 34.0862C30.9118 34.3119 30.8809 34.9156 30.9302 35.4277C31.005 36.2114 31.1292 36.3586 31.715 36.3586C32.354 36.3586 32.4108 36.2565 32.4108 35.1062C32.4108 34.0186 32.3281 33.8421 31.7835 33.7647C31.4211 33.7133 31.0894 33.8491 30.9983 34.0862Z" fill="white"/>
<path fill-rule="evenodd" clip-rule="evenodd" d="M23.7394 25.1288C23.6248 25.2476 23.5307 25.6286 23.5307 25.9757C23.5307 26.4571 23.3493 26.6275 22.7654 26.6948L22 26.7828V34.158V41.5333H32.715H43.43V34.158V26.7828L42.6816 26.6962C42.103 26.6294 41.9135 26.4399 41.8467 25.8613C41.7601 25.1129 41.7599 25.1129 39.5336 25.1708C38.1707 25.2061 36.4165 25.487 35.0111 25.8944L32.715 26.5601L30.4757 25.9117C28.1201 25.2292 24.0943 24.7614 23.7394 25.1288ZM25.2006 32.4809V38.3074L26.2443 38.4702C29.0096 38.9007 30.6043 39.233 31.6123 39.5887C32.5566 39.9221 32.8734 39.9221 33.8177 39.5887C34.8257 39.233 36.4204 38.9007 39.1857 38.4702L40.2294 38.3074V32.4809V26.6542L38.9074 26.8265C38.1805 26.9214 36.6462 27.2514 35.4981 27.5601C32.909 28.2562 32.521 28.2562 29.9319 27.5601C28.7838 27.2514 27.2498 26.9214 26.5226 26.8265L25.2006 26.6542V32.4809ZM31.9983 30.0766C31.9118 30.3023 31.8809 30.906 31.9302 31.4181C32.005 32.2018 32.1292 32.349 32.715 32.349C33.354 32.349 33.4108 32.2469 33.4108 31.0966C33.4108 30.009 33.3281 29.8325 32.7835 29.7551C32.4211 29.7037 32.0894 29.8395 31.9983 30.0766ZM31.9983 35.0862C31.9118 35.3119 31.8809 35.9156 31.9302 36.4277C32.005 37.2114 32.1292 37.3586 32.715 37.3586C33.354 37.3586 33.4108 37.2565 33.4108 36.1062C33.4108 35.0186 33.3281 34.8421 32.7835 34.7647C32.4211 34.7133 32.0894 34.8491 31.9983 35.0862Z" fill="white"/>
</g>
<defs>
<clipPath id="clip0_5907_51349">
<rect width="64" height="64" fill="white"/>
</clipPath>
</defs>
</svg>
