<svg width="64" height="64" viewBox="0 0 64 64" fill="none" xmlns="http://www.w3.org/2000/svg">
<g clip-path="url(#clip0_5907_51401)">
<path d="M59.4275 32.0001C59.4275 16.8517 47.1473 4.57153 31.9989 4.57153C16.8505 4.57153 4.57031 16.8517 4.57031 32.0001C4.57031 47.1485 16.8505 59.4287 31.9989 59.4287C47.1473 59.4287 59.4275 47.1485 59.4275 32.0001Z" fill="#EDB01A"/>
<path d="M59.4275 32.0001C59.4275 16.8517 47.1473 4.57153 31.9989 4.57153C16.8505 4.57153 4.57031 16.8517 4.57031 32.0001C4.57031 47.1485 16.8505 59.4287 31.9989 59.4287C47.1473 59.4287 59.4275 47.1485 59.4275 32.0001Z" stroke="#FFF5DE" stroke-width="9.14286"/>
<path opacity="0.15" fill-rule="evenodd" clip-rule="evenodd" d="M19.5374 18.5939C19.0584 19.1228 19 20.4446 19 30.7197C19 41.4792 19.0396 42.2877 19.5939 42.789C20.1179 43.2634 21.3092 43.3264 29.7715 43.3264C38.6438 43.3264 39.3952 43.2822 39.8926 42.7325C40.3716 42.2036 40.43 40.8817 40.43 30.6067C40.43 19.8472 40.3904 19.0387 39.8361 18.5374C39.3121 18.063 38.1208 18 29.6585 18C20.7862 18 20.0348 18.0442 19.5374 18.5939ZM24.1952 23.3575C23.8727 23.7462 23.8727 23.9429 24.1952 24.3316C24.5231 24.7267 25.5637 24.8186 29.715 24.8186C33.8663 24.8186 34.9069 24.7267 35.2348 24.3316C35.5573 23.9429 35.5573 23.7462 35.2348 23.3575C34.9069 22.9623 33.8663 22.8705 29.715 22.8705C25.5637 22.8705 24.5231 22.9623 24.1952 23.3575ZM24.1952 27.2539C23.8727 27.6425 23.8727 27.8393 24.1952 28.228C24.5108 28.6082 25.4014 28.715 28.2539 28.715C31.1063 28.715 31.997 28.6082 32.3126 28.228C32.635 27.8393 32.635 27.6425 32.3126 27.2539C31.997 26.8736 31.1063 26.7668 28.2539 26.7668C25.4014 26.7668 24.5108 26.8736 24.1952 27.2539ZM24.1952 31.1502C23.8727 31.5389 23.8727 31.7357 24.1952 32.1243C24.5231 32.5195 25.5637 32.6114 29.715 32.6114C33.8663 32.6114 34.9069 32.5195 35.2348 32.1243C35.5573 31.7357 35.5573 31.5389 35.2348 31.1502C34.9069 30.7551 33.8663 30.6632 29.715 30.6632C25.5637 30.6632 24.5231 30.7551 24.1952 31.1502ZM27.9896 37.9413C26.8911 38.9592 26.5443 40.295 27.2064 40.9571C27.7941 41.5448 28.3445 41.2847 28.7455 40.2301C29.1767 39.0959 30.1115 38.7046 30.9635 39.3014C31.3482 39.5709 31.6632 39.9846 31.6632 40.2203C31.6632 40.4564 31.8898 40.8372 32.1665 41.0671C32.924 41.6957 33.7679 40.7466 33.4779 39.592C33.1188 38.1608 31.7684 37.1571 30.202 37.1571C29.2075 37.1571 28.6055 37.3704 27.9896 37.9413Z" fill="white"/>
<path opacity="0.33" fill-rule="evenodd" clip-rule="evenodd" d="M21.2561 20.257C20.7772 20.7859 20.7188 22.1077 20.7188 32.3828C20.7188 43.1423 20.7584 43.9507 21.3126 44.4521C21.8367 44.9265 23.028 44.9895 31.4902 44.9895C40.3626 44.9895 41.1139 44.9453 41.6114 44.3956C42.0903 43.8666 42.1488 42.5448 42.1488 32.2698C42.1488 21.5103 42.1091 20.7018 41.5549 20.2005C41.0308 19.7261 39.8395 19.6631 31.3773 19.6631C22.5049 19.6631 21.7536 19.7072 21.2561 20.257ZM25.9139 25.0206C25.5915 25.4092 25.5915 25.606 25.9139 25.9947C26.2418 26.3898 27.2825 26.4817 31.4338 26.4817C35.585 26.4817 36.6257 26.3898 36.9536 25.9947C37.276 25.606 37.276 25.4092 36.9536 25.0206C36.6257 24.6254 35.585 24.5335 31.4338 24.5335C27.2825 24.5335 26.2418 24.6254 25.9139 25.0206ZM25.9139 28.917C25.5915 29.3056 25.5915 29.5024 25.9139 29.891C26.2295 30.2713 27.1202 30.3781 29.9726 30.3781C32.8251 30.3781 33.7157 30.2713 34.0313 29.891C34.3538 29.5024 34.3538 29.3056 34.0313 28.917C33.7157 28.5367 32.8251 28.4299 29.9726 28.4299C27.1202 28.4299 26.2295 28.5367 25.9139 28.917ZM25.9139 32.8133C25.5915 33.202 25.5915 33.3987 25.9139 33.7874C26.2418 34.1826 27.2825 34.2745 31.4338 34.2745C35.585 34.2745 36.6257 34.1826 36.9536 33.7874C37.276 33.3987 37.276 33.202 36.9536 32.8133C36.6257 32.4182 35.585 32.3263 31.4338 32.3263C27.2825 32.3263 26.2418 32.4182 25.9139 32.8133ZM29.7083 39.6044C28.6099 40.6223 28.2631 41.9581 28.9251 42.6201C29.5128 43.2078 30.0632 42.9478 30.4642 41.8931C30.8954 40.759 31.8302 40.3677 32.6822 40.9645C33.067 41.234 33.3819 41.6477 33.3819 41.8834C33.3819 42.1195 33.6086 42.5003 33.8852 42.7302C34.6427 43.3588 35.4866 42.4097 35.1967 41.2551C34.8375 39.8238 33.4871 38.8202 31.9208 38.8202C30.9262 38.8202 30.3243 39.0335 29.7083 39.6044Z" fill="white"/>
<path fill-rule="evenodd" clip-rule="evenodd" d="M23.2561 22.257C22.7772 22.7859 22.7188 24.1077 22.7188 34.3828C22.7188 45.1423 22.7584 45.9507 23.3126 46.4521C23.8367 46.9265 25.028 46.9895 33.4902 46.9895C42.3626 46.9895 43.1139 46.9453 43.6114 46.3956C44.0903 45.8666 44.1488 44.5448 44.1488 34.2698C44.1488 23.5103 44.1091 22.7018 43.5549 22.2005C43.0308 21.7261 41.8395 21.6631 33.3773 21.6631C24.5049 21.6631 23.7536 21.7072 23.2561 22.257ZM27.9139 27.0206C27.5915 27.4092 27.5915 27.606 27.9139 27.9947C28.2418 28.3898 29.2825 28.4817 33.4338 28.4817C37.585 28.4817 38.6257 28.3898 38.9536 27.9947C39.276 27.606 39.276 27.4092 38.9536 27.0206C38.6257 26.6254 37.585 26.5335 33.4338 26.5335C29.2825 26.5335 28.2418 26.6254 27.9139 27.0206ZM27.9139 30.917C27.5915 31.3056 27.5915 31.5024 27.9139 31.891C28.2295 32.2713 29.1202 32.3781 31.9726 32.3781C34.8251 32.3781 35.7157 32.2713 36.0313 31.891C36.3538 31.5024 36.3538 31.3056 36.0313 30.917C35.7157 30.5367 34.8251 30.4299 31.9726 30.4299C29.1202 30.4299 28.2295 30.5367 27.9139 30.917ZM27.9139 34.8133C27.5915 35.202 27.5915 35.3987 27.9139 35.7874C28.2418 36.1826 29.2825 36.2745 33.4338 36.2745C37.585 36.2745 38.6257 36.1826 38.9536 35.7874C39.276 35.3987 39.276 35.202 38.9536 34.8133C38.6257 34.4182 37.585 34.3263 33.4338 34.3263C29.2825 34.3263 28.2418 34.4182 27.9139 34.8133ZM31.7083 41.6044C30.6099 42.6223 30.2631 43.9581 30.9251 44.6201C31.5128 45.2078 32.0632 44.9478 32.4642 43.8931C32.8954 42.759 33.8302 42.3677 34.6822 42.9645C35.067 43.234 35.3819 43.6477 35.3819 43.8834C35.3819 44.1195 35.6086 44.5003 35.8852 44.7302C36.6427 45.3588 37.4866 44.4097 37.1967 43.2551C36.8375 41.8238 35.4871 40.8202 33.9208 40.8202C32.9262 40.8202 32.3243 41.0335 31.7083 41.6044Z" fill="white"/>
</g>
<defs>
<clipPath id="clip0_5907_51401">
<rect width="64" height="64" fill="white"/>
</clipPath>
</defs>
</svg>
