<svg width="64" height="64" viewBox="0 0 64 64" fill="none" xmlns="http://www.w3.org/2000/svg">
<g clip-path="url(#clip0_5907_51362)">
<path d="M59.4275 32.0001C59.4275 16.8517 47.1473 4.57153 31.9989 4.57153C16.8505 4.57153 4.57031 16.8517 4.57031 32.0001C4.57031 47.1485 16.8505 59.4287 31.9989 59.4287C47.1473 59.4287 59.4275 47.1485 59.4275 32.0001Z" fill="#EDB01A"/>
<path d="M59.4275 32.0001C59.4275 16.8517 47.1473 4.57153 31.9989 4.57153C16.8505 4.57153 4.57031 16.8517 4.57031 32.0001C4.57031 47.1485 16.8505 59.4287 31.9989 59.4287C47.1473 59.4287 59.4275 47.1485 59.4275 32.0001Z" stroke="#FFF5DE" stroke-width="9.14286"/>
<path opacity="0.15" fill-rule="evenodd" clip-rule="evenodd" d="M23.7436 20.1393C23.6318 20.2513 23.5401 23.8762 23.5401 28.1948V36.0469L22.27 36.1389L21 36.2307L21.0224 37.4559C21.0502 38.9632 21.95 40.3082 23.3871 40.9901C24.2991 41.4228 25.3967 41.4781 31.5358 41.4004C41.9874 41.2683 41.5137 41.8633 41.3996 29.0041L41.3204 20.0939L32.6337 20.0147C27.8563 19.9713 23.8556 20.0272 23.7436 20.1393ZM25.333 28.9013V36.0654L29.73 36.1479L34.1267 36.2307L34.3855 37.3265C34.7357 38.8087 35.5739 39.5043 37.0098 39.5043C37.825 39.5043 38.3841 39.2999 38.8536 38.8308C39.5155 38.1695 39.5289 38.0117 39.6156 29.9475L39.7037 21.7374H32.5184H25.333V28.9013ZM28.0225 25.3234C28.0225 26.1204 28.122 26.2199 28.919 26.2199C29.716 26.2199 29.8155 26.1204 29.8155 25.3234C29.8155 24.5264 29.716 24.4269 28.919 24.4269C28.122 24.4269 28.0225 24.5264 28.0225 25.3234ZM31.6084 25.3234V26.2199H34.2979H36.9874V25.3234V24.4269H34.2979H31.6084V25.3234ZM28.0225 28.9093C28.0225 29.7063 28.122 29.8058 28.919 29.8058C29.716 29.8058 29.8155 29.7063 29.8155 28.9093C29.8155 28.1124 29.716 28.0129 28.919 28.0129C28.122 28.0129 28.0225 28.1124 28.0225 28.9093ZM31.6084 28.9093V29.8058H34.2979H36.9874V28.9093V28.0129H34.2979H31.6084V28.9093ZM28.0225 32.4953C28.0225 33.2923 28.122 33.3918 28.919 33.3918C29.716 33.3918 29.8155 33.2923 29.8155 32.4953C29.8155 31.6983 29.716 31.5988 28.919 31.5988C28.122 31.5988 28.0225 31.6983 28.0225 32.4953ZM31.6084 32.4953V33.3918H34.2979H36.9874V32.4953V31.5988H34.2979H31.6084V32.4953Z" fill="white"/>
<path opacity="0.33" fill-rule="evenodd" clip-rule="evenodd" d="M24.767 20.9977C24.6552 21.1097 24.5635 24.7346 24.5635 29.0532V36.9053L23.2935 36.9973L22.0234 37.0891L22.0458 38.3143C22.0736 39.8216 22.9734 41.1666 24.4105 41.8485C25.3225 42.2812 26.4201 42.3365 32.5593 42.2588C43.0108 42.1267 42.5372 42.7217 42.423 29.8625L42.3438 20.9523L33.6572 20.8731C28.8798 20.8297 24.8791 20.8856 24.767 20.9977ZM26.3565 29.7597V36.9238L30.7534 37.0063L35.1501 37.0891L35.4089 38.1849C35.7591 39.6671 36.5974 40.3627 38.0332 40.3627C38.8484 40.3627 39.4075 40.1583 39.877 39.6892C40.5389 39.0279 40.5524 38.8701 40.639 30.8059L40.7272 22.5958H33.5418H26.3565V29.7597ZM29.0459 26.1818C29.0459 26.9788 29.1454 27.0783 29.9424 27.0783C30.7394 27.0783 30.8389 26.9788 30.8389 26.1818C30.8389 25.3848 30.7394 25.2853 29.9424 25.2853C29.1454 25.2853 29.0459 25.3848 29.0459 26.1818ZM32.6319 26.1818V27.0783H35.3214H38.0108V26.1818V25.2853H35.3214H32.6319V26.1818ZM29.0459 29.7677C29.0459 30.5647 29.1454 30.6642 29.9424 30.6642C30.7394 30.6642 30.8389 30.5647 30.8389 29.7677C30.8389 28.9708 30.7394 28.8712 29.9424 28.8712C29.1454 28.8712 29.0459 28.9708 29.0459 29.7677ZM32.6319 29.7677V30.6642H35.3214H38.0108V29.7677V28.8712H35.3214H32.6319V29.7677ZM29.0459 33.3537C29.0459 34.1507 29.1454 34.2502 29.9424 34.2502C30.7394 34.2502 30.8389 34.1507 30.8389 33.3537C30.8389 32.5567 30.7394 32.4572 29.9424 32.4572C29.1454 32.4572 29.0459 32.5567 29.0459 33.3537ZM32.6319 33.3537V34.2502H35.3214H38.0108V33.3537V32.4572H35.3214H32.6319V33.3537Z" fill="white"/>
<path fill-rule="evenodd" clip-rule="evenodd" d="M25.767 21.9977C25.6552 22.1097 25.5635 25.7346 25.5635 30.0532V37.9053L24.2935 37.9973L23.0234 38.0891L23.0458 39.3143C23.0736 40.8216 23.9734 42.1666 25.4105 42.8485C26.3225 43.2812 27.4201 43.3365 33.5593 43.2588C44.0108 43.1267 43.5372 43.7217 43.423 30.8625L43.3438 21.9523L34.6572 21.8731C29.8798 21.8297 25.8791 21.8856 25.767 21.9977ZM27.3565 30.7597V37.9238L31.7534 38.0063L36.1501 38.0891L36.4089 39.1849C36.7591 40.6671 37.5974 41.3627 39.0332 41.3627C39.8484 41.3627 40.4075 41.1583 40.877 40.6892C41.5389 40.0279 41.5524 39.8701 41.639 31.8059L41.7272 23.5958H34.5418H27.3565V30.7597ZM30.0459 27.1818C30.0459 27.9788 30.1454 28.0783 30.9424 28.0783C31.7394 28.0783 31.8389 27.9788 31.8389 27.1818C31.8389 26.3848 31.7394 26.2853 30.9424 26.2853C30.1454 26.2853 30.0459 26.3848 30.0459 27.1818ZM33.6319 27.1818V28.0783H36.3214H39.0108V27.1818V26.2853H36.3214H33.6319V27.1818ZM30.0459 30.7677C30.0459 31.5647 30.1454 31.6642 30.9424 31.6642C31.7394 31.6642 31.8389 31.5647 31.8389 30.7677C31.8389 29.9708 31.7394 29.8712 30.9424 29.8712C30.1454 29.8712 30.0459 29.9708 30.0459 30.7677ZM33.6319 30.7677V31.6642H36.3214H39.0108V30.7677V29.8712H36.3214H33.6319V30.7677ZM30.0459 34.3537C30.0459 35.1507 30.1454 35.2502 30.9424 35.2502C31.7394 35.2502 31.8389 35.1507 31.8389 34.3537C31.8389 33.5567 31.7394 33.4572 30.9424 33.4572C30.1454 33.4572 30.0459 33.5567 30.0459 34.3537ZM33.6319 34.3537V35.2502H36.3214H39.0108V34.3537V33.4572H36.3214H33.6319V34.3537Z" fill="white"/>
</g>
<defs>
<clipPath id="clip0_5907_51362">
<rect width="64" height="64" fill="white"/>
</clipPath>
</defs>
</svg>
