<svg width="90" height="109" viewBox="0 0 90 109" fill="none" xmlns="http://www.w3.org/2000/svg">
<g clip-path="url(#clip0_1_7)">
<rect width="88.5726" height="108.555" transform="translate(0.505615 0.000488281)" fill="#F8F9FF"/>
<path fill-rule="evenodd" clip-rule="evenodd" d="M43.9998 0.0725345C43.8427 0.229589 43.9418 0.788677 44.192 1.1569C44.4327 1.51098 44.4427 1.57092 44.3046 1.82627C44.2212 1.98052 44.0171 2.25909 43.8513 2.44531C43.6854 2.63153 43.4525 2.90059 43.3337 3.04317C42.2909 4.29431 42.0341 4.59827 41.9802 4.64515C41.946 4.67485 41.7812 4.88149 41.6139 5.10421L41.3098 5.50927H41.6493C41.9144 5.50927 42.0119 5.56998 42.0942 5.78633C42.2262 6.13371 42.2347 11.7759 42.1036 12.1205C42.0508 12.2593 41.8686 12.4435 41.6986 12.5301C41.5286 12.6165 41.2269 12.8486 41.0283 13.0458C40.69 13.3818 40.6712 13.4382 40.7313 13.9395C40.7665 14.2338 40.8248 14.7254 40.8609 15.0319C40.9251 15.5771 40.7481 16.4188 40.5693 16.4188C40.5234 16.4188 40.4581 16.5064 40.4241 16.6134C40.3704 16.7826 38.3229 18.3631 38.1573 18.3631C38.1233 18.3631 37.8417 18.5454 37.5316 18.7682L36.9677 19.1732L40.8337 19.2016C42.9601 19.2172 46.4096 19.2172 48.4993 19.2016L52.299 19.1732L51.4889 18.6099C51.0433 18.3001 50.62 17.9963 50.5483 17.9348C50.4766 17.8734 50.3882 17.823 50.352 17.823C50.2208 17.823 49.48 17.2315 49.0355 16.7719C48.7282 16.4541 48.5597 16.1711 48.5165 15.901C48.4814 15.6809 48.4077 15.4178 48.3528 15.3166C48.2978 15.2154 48.2936 15.1075 48.3435 15.0766C48.3933 15.0458 48.4667 14.7014 48.5067 14.3111C48.5975 13.4249 48.4448 13.1276 47.6384 12.6214L47.0629 12.2602L47.0616 9.03911C47.0601 5.56555 47.0605 5.5635 47.6345 5.49102L47.9177 5.45526L47.624 5.11923C47.4625 4.93441 47.2088 4.63759 47.0602 4.45958C46.9117 4.28146 46.5958 3.90276 46.3581 3.61792C46.1205 3.33309 45.7448 2.90081 45.5233 2.65745C45.3018 2.41398 45.0919 2.12969 45.057 2.02578C45.022 1.92187 44.9481 1.83675 44.8927 1.83675C44.7202 1.83675 44.782 1.50547 45.0079 1.21815C45.149 1.03873 45.224 0.779927 45.224 0.471975V0.000488281H44.6479C44.331 0.000488281 44.0394 0.0328929 43.9998 0.0725345ZM35.1917 20.5234C34.9369 20.761 34.696 20.9561 34.6564 20.957C34.5639 20.959 31.9381 23.6129 31.9381 23.7044C31.9381 23.7423 31.8148 23.9048 31.6642 24.0657C31.5135 24.2264 31.2356 24.601 31.0466 24.898C30.8576 25.1951 30.6771 25.4624 30.6455 25.4921C30.5573 25.5749 30.3515 25.9281 30.079 26.4643C29.9432 26.7316 29.8023 26.9746 29.7661 27.0043C29.67 27.0832 29.088 28.375 28.8659 29.0026C28.7608 29.2997 28.635 29.6399 28.5865 29.7587C28.2973 30.4657 27.8335 32.479 27.8335 33.0267C27.8335 33.2719 27.7849 33.5025 27.7255 33.5393C27.6661 33.576 27.6175 33.8958 27.6175 34.2499V34.8939L29.8588 34.8646L32.1001 34.8354L32.175 33.6473C32.2161 32.9938 32.2976 32.2161 32.3559 31.919C32.4142 31.622 32.543 30.8929 32.6418 30.2988C32.7408 29.7047 32.8599 29.1439 32.9066 29.0525C32.9533 28.961 33.0266 28.6694 33.0693 28.4044C33.1594 27.8469 33.4205 26.9272 33.5661 26.6548C33.6212 26.5516 33.6663 26.4046 33.6663 26.3283C33.6663 26.1818 34.203 24.7302 34.4946 24.0879C35.1086 22.7355 35.544 21.8686 35.6249 21.8376C35.6764 21.8178 35.7186 21.7501 35.7186 21.6873C35.7186 21.6243 35.9131 21.265 36.1507 20.8888C36.3883 20.5125 36.5827 20.1792 36.5827 20.1481C36.5827 20.1168 36.3741 20.0913 36.1189 20.0913C35.7269 20.0913 35.5832 20.1583 35.1917 20.5234ZM37.5352 20.3614C37.4676 20.5099 37.3714 20.6314 37.3215 20.6314C37.2717 20.6314 37.2308 20.6752 37.2308 20.7286C37.2308 20.782 37.0575 21.0835 36.8456 21.3983C36.6335 21.7133 36.3298 22.2407 36.1705 22.5704C36.011 22.9001 35.8442 23.186 35.7996 23.2058C35.755 23.2256 35.7186 23.3113 35.7186 23.3963C35.7186 23.4813 35.673 23.6352 35.6174 23.7384C35.492 23.9706 35.0687 24.9301 34.9628 25.2221C34.9197 25.3409 34.8048 25.6221 34.7075 25.8468C34.6101 26.0716 34.5305 26.3482 34.5305 26.4616C34.5305 26.5749 34.4861 26.695 34.4318 26.7285C34.3776 26.7621 34.2987 26.9939 34.2564 27.2438C34.2143 27.4936 34.1432 27.7729 34.0985 27.8643C33.9826 28.1018 33.6644 29.5003 33.6655 29.7677C33.6659 29.8915 33.6299 30.0288 33.5853 30.0727C33.4083 30.2474 32.931 34.3981 33.0516 34.7127C33.1116 34.8689 33.3956 34.8895 35.5026 34.8895C37.3154 34.8895 37.8955 34.8572 37.9262 34.7544C37.9486 34.6802 38.0197 33.5501 38.0843 32.2431C38.2138 29.6218 38.3338 28.1761 38.51 27.1123C38.5739 26.7262 38.6493 26.2401 38.6775 26.0322C38.7581 25.4371 39.0422 23.9931 39.23 23.2238C39.3243 22.8376 39.4295 22.3759 39.4638 22.1976C39.4982 22.0194 39.5632 21.825 39.6083 21.7656C39.6534 21.7062 39.7258 21.4874 39.7692 21.2795C39.8126 21.0716 39.8847 20.8529 39.9292 20.7934C39.9738 20.734 40.0344 20.5517 40.0638 20.3884L40.1173 20.0913H38.8878C37.6812 20.0913 37.656 20.0963 37.5352 20.3614ZM40.9956 20.3884C40.734 21.0405 40.4941 21.7612 40.3392 22.3597C39.9115 24.0132 39.6564 25.214 39.4903 26.3562C39.4342 26.7424 39.3444 27.35 39.2908 27.7064C39.2372 28.0629 39.1893 28.6753 39.1842 29.0675C39.1792 29.4596 39.1305 29.9214 39.076 30.0937C39.0214 30.2659 38.9473 31.4154 38.9113 32.6481L38.8458 34.8895H41.4947H44.1438V27.4904V20.0913H42.6293H41.1148L40.9956 20.3884ZM45.116 27.4607L45.17 34.8354H47.7623H50.3547L50.317 32.9992C50.2522 29.8446 49.9425 26.9382 49.3961 24.358C49.1204 23.0565 48.7991 21.8133 48.6805 21.5898C48.6292 21.4932 48.5542 21.238 48.5138 21.0228C48.4734 20.8075 48.4006 20.6314 48.3519 20.6314C48.3033 20.6314 48.2479 20.5221 48.229 20.3884C48.1952 20.1508 48.1598 20.1447 46.6282 20.1157L45.062 20.0858L45.116 27.4607ZM49.1125 20.247C49.1125 20.3327 49.1556 20.4293 49.2083 20.4618C49.2609 20.4944 49.3372 20.6976 49.3777 20.9136C49.4182 21.1295 49.4921 21.3852 49.5419 21.4818C49.6843 21.7583 49.9546 22.817 50.3178 24.52C50.4719 25.2428 50.719 26.9216 50.8426 28.0845C50.9026 28.6489 50.9774 29.1808 51.0089 29.2667C51.0404 29.3526 51.1131 30.6096 51.1704 32.0599C51.2278 33.5103 51.3015 34.7403 51.3342 34.7932C51.3668 34.8461 52.5138 34.8895 53.8829 34.8895H56.3722L56.312 34.4304C56.2789 34.178 56.1991 33.4609 56.1347 32.8372C56.0705 32.2134 55.9709 31.562 55.9136 31.3899C55.8564 31.2176 55.8101 30.9502 55.8109 30.7958C55.8125 30.4643 55.5006 28.9678 55.3799 28.7285C55.3338 28.637 55.2598 28.3473 55.2154 28.0845C55.171 27.8217 55.0981 27.532 55.0535 27.4405C55.0088 27.3491 54.8869 26.9827 54.7826 26.6263C54.6782 26.2698 54.523 25.8081 54.4378 25.6001C53.6386 23.6522 53.3849 23.0585 53.3297 23.0078C53.2974 22.9781 53.1598 22.735 53.0239 22.4677C52.7333 21.8959 52.5407 21.5705 52.4486 21.4955C52.412 21.4658 52.348 21.3322 52.3062 21.1985C52.2645 21.0648 52.1851 20.9555 52.1297 20.9555C52.0743 20.9555 52.0289 20.9049 52.0289 20.8431C52.0289 20.7812 51.9226 20.5868 51.7926 20.4111L51.5563 20.0913H50.3344C49.3425 20.0913 49.1125 20.1206 49.1125 20.247ZM52.677 20.1511C52.677 20.1839 52.7986 20.3897 52.9471 20.6082C53.0956 20.8268 53.2171 21.0673 53.2171 21.1426C53.2171 21.2178 53.2571 21.2795 53.3059 21.2795C53.4072 21.2795 54.4053 23.221 54.4053 23.4182C54.4053 23.4895 54.4417 23.5481 54.4863 23.5483C54.5309 23.5485 54.6575 23.7793 54.7678 24.0613C54.8781 24.3433 55.036 24.7271 55.1188 24.9143C55.2017 25.1015 55.2694 25.3227 55.2694 25.4058C55.2694 25.489 55.3082 25.6032 55.3556 25.6595C55.4509 25.7728 55.6915 26.4957 55.9655 27.4904C56.2583 28.5541 56.3307 28.8557 56.4971 29.7047C56.8038 31.2685 56.912 31.927 57.0122 32.8372C57.0679 33.3421 57.142 34.0105 57.177 34.3224L57.2405 34.8895H59.4414H61.6423L61.6417 34.5924C61.6411 34.3012 61.5133 33.4789 61.3188 32.5131C61.265 32.2458 61.1682 31.7597 61.1039 31.433C61.0395 31.1062 60.9471 30.7417 60.8986 30.6228C60.7567 30.275 60.548 29.6682 60.4899 29.4347C60.3293 28.7893 59.1317 26.4013 58.4838 25.4344C57.376 23.7815 55.8202 22.0457 54.309 20.7769C54.1076 20.6078 53.8659 20.3844 53.772 20.2804C53.66 20.1564 53.4421 20.0913 53.1391 20.0913C52.885 20.0913 52.677 20.1182 52.677 20.1511ZM25.9162 35.8251C25.842 35.8551 25.7812 35.9484 25.7812 36.0326C25.7812 36.1168 25.7412 36.1856 25.6923 36.1856C25.6435 36.1856 25.4958 36.3923 25.3643 36.6447C25.0653 37.2184 24.8832 37.5202 24.7938 37.5898C24.7558 37.6195 24.6171 37.8507 24.4857 38.1034C24.3542 38.3562 24.203 38.5899 24.1497 38.6229C24.0965 38.6558 24.053 38.7527 24.053 38.8384C24.053 38.9734 26.7868 38.994 44.6371 38.994H65.2214L65.1458 38.7561C65.1043 38.6252 65.0039 38.4516 64.9225 38.3702C64.8413 38.289 64.7748 38.153 64.7748 38.0682C64.7748 37.9833 64.7262 37.9139 64.6667 37.9139C64.6073 37.9139 64.5587 37.8645 64.5587 37.8041C64.5587 37.7438 64.2793 37.2593 63.9376 36.7274L63.3166 35.7605L44.6839 35.7656C34.4359 35.7684 25.9905 35.7952 25.9162 35.8251ZM24.053 42.0768V44.2954L23.6209 44.7064L23.1888 45.1174V46.497C23.1888 47.8723 23.1896 47.8764 23.4319 47.82C23.5656 47.789 24.0152 47.6829 24.431 47.5843C25.2018 47.4015 26.2914 47.1693 27.2121 46.9914C27.4941 46.9368 27.766 46.8668 27.8161 46.8358C27.8663 46.8048 28.1703 46.7311 28.4915 46.6719C29.0978 46.5602 30.3786 46.2935 31.128 46.1229C31.3656 46.0688 31.9003 45.9464 32.3161 45.8509C32.732 45.7553 33.3228 45.6364 33.6291 45.5868C33.9353 45.5371 34.3485 45.4456 34.5472 45.3836C34.7459 45.3215 35.2974 45.1926 35.7726 45.0971C36.2479 45.0017 36.8069 44.8805 37.0148 44.8279C37.9242 44.5979 38.9234 44.3943 39.1417 44.3945C39.2719 44.3947 39.4044 44.3526 39.4364 44.301C39.4683 44.2494 39.7975 44.1729 40.1681 44.131C40.5387 44.0891 40.8921 44.0219 40.9536 43.9818C41.0151 43.9416 41.3813 43.8515 41.7675 43.7814C42.1536 43.7114 42.6883 43.5989 42.9557 43.5317C44.1737 43.2249 44.6736 43.1757 45.2494 43.3065C45.5622 43.3775 46.0368 43.476 46.3041 43.5253C46.5715 43.5746 46.96 43.6689 47.1675 43.7348C47.3751 43.8008 47.695 43.8547 47.8787 43.8547C48.0622 43.8547 48.2482 43.8906 48.292 43.9343C48.3358 43.9781 48.6964 44.0741 49.0931 44.1477C49.4899 44.2212 50.0334 44.3347 50.3007 44.3998C50.568 44.4649 51.1027 44.5786 51.4889 44.6525C51.875 44.7264 52.2639 44.8157 52.353 44.8511C52.5189 44.9169 53.3239 45.0936 54.1893 45.2541C54.6525 45.3399 55.4507 45.512 56.9977 45.8596C57.3838 45.9463 57.8942 46.0477 58.1318 46.0848C58.3695 46.1219 58.6125 46.1896 58.6719 46.2353C58.7313 46.2809 59.0716 46.3532 59.428 46.396C59.7845 46.4388 60.1247 46.5104 60.1841 46.5551C60.2435 46.5998 60.5838 46.6714 60.9402 46.7142C61.2967 46.757 61.6369 46.8301 61.6963 46.8768C61.7557 46.9234 61.9745 46.9898 62.1824 47.0242C62.9167 47.1458 64.0747 47.3799 64.2347 47.4391C64.3238 47.4722 64.664 47.5498 64.9908 47.6119C65.3175 47.6739 65.67 47.7584 65.7739 47.7996C65.948 47.8685 65.9629 47.7645 65.9629 46.4798V45.0852L65.5849 44.7188L65.2068 44.3525V42.1053V39.8582H44.6299H24.053V42.0768ZM43.8738 44.24C42.135 44.6512 41.8041 44.7206 41.5848 44.7197C41.4547 44.7193 41.3224 44.7607 41.2908 44.8116C41.2593 44.8626 40.9526 44.9371 40.6093 44.9771C40.2661 45.0172 39.8394 45.093 39.6612 45.1458C39.3585 45.2356 38.2394 45.4891 37.5009 45.6353C37.3227 45.6706 36.8609 45.773 36.4747 45.8628C36.0886 45.9528 35.5539 46.0673 35.2866 46.1173C34.7701 46.214 33.634 46.4611 32.4782 46.7282C32.092 46.8175 31.5573 46.934 31.29 46.9872C31.0227 47.0403 30.4637 47.162 30.0478 47.2576C29.632 47.3531 28.9515 47.4984 28.5356 47.5804C28.1197 47.6623 27.5851 47.7768 27.3474 47.8348C26.687 47.9958 25.3533 48.2857 24.7974 48.389C24.5237 48.4399 24.1105 48.531 23.8793 48.5915C23.648 48.6519 23.07 48.78 22.5948 48.876C22.1195 48.9722 21.5605 49.0942 21.3526 49.1475C21.1447 49.2007 20.5857 49.3224 20.1104 49.4177C19.6351 49.5132 19.1005 49.6357 18.9222 49.6899C18.744 49.7443 18.3174 49.8213 17.9741 49.8614C17.6308 49.9013 17.3241 49.9758 17.2926 50.0268C17.2611 50.0778 17.0955 50.1196 16.9246 50.1196C16.7537 50.1196 16.4869 50.1679 16.3316 50.227C16.1764 50.286 15.7965 50.3811 15.4875 50.4384C15.1785 50.4957 14.5611 50.6197 14.1156 50.714C13.67 50.8083 13.111 50.9267 12.8734 50.977C12.6357 51.0274 12.1497 51.1266 11.7932 51.1977C11.4368 51.2688 11.0479 51.3659 10.9291 51.4136C10.8103 51.4614 10.3971 51.5588 10.011 51.6301C9.62481 51.7014 9.11444 51.8029 8.87681 51.8557C8.63917 51.9087 8.12059 52.0136 7.7245 52.0891C7.32841 52.1645 6.96785 52.2626 6.92335 52.307C6.87895 52.3515 6.74123 52.3871 6.61745 52.3861C6.49366 52.385 6.013 52.4691 5.54918 52.5726C4.79523 52.7412 4.71206 52.7842 4.76455 52.9795C4.79685 53.0998 4.82396 53.4047 4.82472 53.6571L4.82623 54.1162H44.5738H84.3214L84.3938 53.8278C84.4336 53.6692 84.471 53.3672 84.4769 53.1567C84.4888 52.7322 84.6075 52.789 83.0294 52.463C82.6432 52.3833 82.2544 52.2915 82.1652 52.259C81.9205 52.17 80.7638 51.9357 80.275 51.8762C80.0373 51.8472 79.7939 51.7841 79.7338 51.736C79.6739 51.6878 79.3203 51.614 78.9483 51.5719C78.5762 51.5298 78.2458 51.4532 78.2139 51.4015C78.182 51.35 78.0526 51.3078 77.9262 51.3078C77.7998 51.3078 77.4017 51.24 77.0414 51.157C76.6812 51.0742 75.9976 50.9237 75.5223 50.8226C75.047 50.7216 74.488 50.5977 74.2801 50.5474C73.0078 50.2392 72.422 50.1196 72.185 50.1196C72.0373 50.1196 71.8894 50.0758 71.8564 50.0222C71.8232 49.9687 71.4922 49.8903 71.1209 49.8482C70.7494 49.806 70.397 49.7338 70.3376 49.6877C70.2781 49.6415 70.0351 49.5763 69.7975 49.5426C69.2295 49.4621 68.0045 49.203 67.7992 49.12C67.7101 49.0841 67.3698 49.0057 67.0431 48.9458C66.7163 48.8861 66.0844 48.7565 65.6389 48.6577C65.1933 48.559 64.6343 48.4366 64.3967 48.3858C62.8539 48.0551 62.3066 47.9415 62.0204 47.8923C61.8421 47.8617 61.5991 47.7934 61.4803 47.7407C61.3615 47.688 60.9726 47.5971 60.6162 47.5388C60.2597 47.4805 59.6278 47.3543 59.212 47.2584C58.4136 47.0741 57.8941 46.9672 56.8356 46.7692C56.4792 46.7026 56.1146 46.6185 56.0255 46.5825C55.853 46.5128 54.7442 46.2806 54.0272 46.1641C53.7896 46.1254 53.5461 46.0555 53.4861 46.0088C53.4261 45.9619 53.0726 45.8892 52.7006 45.8471C52.3285 45.8049 51.9981 45.7284 51.9662 45.6767C51.9342 45.6252 51.7888 45.583 51.6429 45.583C51.497 45.583 51.0988 45.5129 50.7581 45.4272C50.4175 45.3417 49.7498 45.1933 49.2746 45.0976C48.7993 45.0019 48.2403 44.8814 48.0324 44.8298C47.8244 44.7783 47.2655 44.6552 46.7902 44.5566C46.3149 44.4579 45.7803 44.3371 45.602 44.2882C44.9284 44.1034 44.5021 44.0915 43.8738 44.24ZM5.73194 55.7094C5.77018 56.1104 5.80474 57.0218 5.80885 57.7347C5.81284 58.4476 5.84179 59.1403 5.87301 59.2739L5.92982 59.517H44.5812C73.8377 59.517 83.2515 59.4864 83.3103 59.3913C83.353 59.3223 83.4111 58.3016 83.4395 57.123L83.491 54.9803H44.5768H5.66248L5.73194 55.7094ZM48.6695 63.3446C48.6341 63.3798 48.124 63.4787 47.5357 63.5644C46.2942 63.7451 45.6242 63.8763 45.17 64.0279C44.9917 64.0873 44.5543 64.2246 44.1978 64.333C43.8414 64.4414 43.5036 64.5686 43.4471 64.6158C43.3907 64.663 43.2849 64.7017 43.212 64.7017C43.0352 64.7017 41.6328 65.3711 40.9574 65.7779C40.6603 65.9567 40.3444 66.1366 40.2553 66.1776C40.1662 66.2187 40.0689 66.2818 40.0392 66.3183C40.0095 66.3545 39.8343 66.4796 39.6498 66.5961C38.9779 67.0206 37.8644 68.0485 36.9632 69.0763C36.5911 69.5008 35.5267 71.1053 35.405 71.4252C35.3527 71.5629 35.2143 71.8927 35.0974 72.1582C34.6517 73.1715 34.604 73.3008 34.5225 73.721C34.4763 73.9586 34.3926 74.3475 34.3366 74.5851C34.2804 74.8227 34.1734 75.562 34.0987 76.228C33.9796 77.2902 33.9865 77.615 34.1543 78.8744C34.2597 79.6639 34.3873 80.3561 34.4381 80.4125C34.4889 80.4689 34.5305 80.6253 34.5305 80.7599C34.5305 80.8945 34.5993 81.1643 34.6835 81.3594C34.7677 81.5545 34.9135 81.8916 35.0076 82.1085C35.1015 82.3254 35.1786 82.5563 35.1786 82.6215C35.1786 82.6869 35.2272 82.7403 35.2866 82.7403C35.346 82.7403 35.3946 82.8097 35.3946 82.8946C35.3946 82.9794 35.4554 83.114 35.5296 83.1936C35.6039 83.2732 35.7582 83.5075 35.8725 83.7143C35.9868 83.9212 36.1083 84.1148 36.1426 84.1445C36.1767 84.1742 36.3825 84.4172 36.5998 84.6845C37.3308 85.5839 37.976 86.2056 38.7857 86.7908C38.9501 86.9097 39.1854 87.092 39.3084 87.1959C39.4315 87.2998 39.5977 87.3849 39.6777 87.3849C39.7578 87.3849 39.8232 87.4335 39.8232 87.4929C39.8232 87.5523 39.8961 87.601 39.9852 87.601C40.0743 87.601 40.1473 87.6448 40.1473 87.6984C40.1473 87.752 40.281 87.8467 40.4443 87.9089C40.6076 87.9711 40.9115 88.1158 41.1194 88.2304C41.591 88.4904 42.2595 88.7872 43.3337 89.2135C44.2549 89.5791 45.8764 89.96 47.9784 90.3044C48.8098 90.4407 52.3155 90.3867 53.5952 90.2181C54.4793 90.1015 55.4487 89.8964 55.7555 89.7612C55.8743 89.7087 56.1294 89.6349 56.3226 89.597C56.5157 89.5591 56.6736 89.4833 56.6736 89.4287C56.6736 89.3739 56.7379 89.3292 56.8163 89.3292C57.2837 89.3292 58.5315 88.4098 58.7828 87.8802C59.1882 87.0259 59.6214 85.1649 59.7654 83.6584C59.8218 83.0687 59.8026 82.9835 59.5519 82.7133C59.4003 82.5498 59.162 82.4162 59.0223 82.4162C58.7648 82.4162 58.0778 83.0223 58.0778 83.2494C58.0778 83.316 58.0414 83.3865 57.9968 83.4064C57.9522 83.4262 57.8197 83.6368 57.702 83.8744C57.2191 84.8507 56.0049 86.2704 55.0534 86.9713C54.4354 87.4266 53.5303 87.8767 52.8391 88.0725C52.4826 88.1734 52.0417 88.3032 51.8593 88.3606C51.6768 88.4181 51.0038 88.4651 50.3637 88.4651C49.0008 88.4651 48.2893 88.3006 46.9522 87.6763C45.9248 87.1966 44.1191 85.4349 43.858 84.6575C43.8231 84.5536 43.7569 84.4685 43.7109 84.4685C43.6649 84.4685 43.5966 84.347 43.5594 84.1985C43.5221 84.0499 43.4439 83.9284 43.3857 83.9284C43.3273 83.9284 43.2797 83.8549 43.2797 83.7649C43.2797 83.675 43.2335 83.517 43.1769 83.4138C43.0138 83.1162 42.7631 82.4945 42.6875 82.2002C42.6492 82.0517 42.579 81.8329 42.5313 81.7141C42.4082 81.408 42.1971 80.5291 42.064 79.7698C41.9165 78.9286 41.917 74.775 42.0645 73.937C42.2241 73.0315 42.5992 71.6975 42.8543 71.1286C42.9076 71.0098 42.9993 70.7911 43.0581 70.6425C43.3339 69.9451 44.0172 68.9108 44.7919 68.0181C45.4222 67.2916 47.1571 66.1059 47.5896 66.1059C47.655 66.1059 47.7083 66.0688 47.7083 66.0236C47.7083 65.9508 48.0547 65.8436 49.5571 65.4516C50.0828 65.3146 52.7536 65.3195 52.8391 65.4578C52.8758 65.5172 53.0366 65.5656 53.1965 65.5653C53.4743 65.5647 54.5082 65.8796 54.6213 65.9992C54.651 66.0306 54.7968 66.1104 54.9454 66.1765C55.403 66.3805 56.3073 67.1014 56.5505 67.4561C56.6775 67.6414 56.8665 67.8889 56.9705 68.0059C57.0746 68.1229 57.2812 68.4528 57.4297 68.7391C57.7567 69.3694 58.2552 69.882 58.5574 69.8989C59.0194 69.9247 59.2176 69.8626 59.3986 69.635C59.631 69.3429 59.6345 68.9444 59.42 67.2105C59.2585 65.9055 59.0711 65.2475 58.7772 64.9536C58.5459 64.7223 57.503 64.2108 56.8896 64.0279C55.7597 63.6909 55.4275 63.6169 54.5133 63.4984C53.5 63.3672 48.7713 63.2426 48.6695 63.3446ZM5.70969 63.986C4.95606 64.3784 5.22837 65.3498 6.09195 65.3498C6.77666 65.3498 7.73238 65.7338 8.09553 66.1547C8.60018 66.7398 8.59121 66.585 8.63248 75.4195C8.6638 82.1455 8.69999 83.8399 8.81891 84.1445C9.09737 84.8583 9.26966 85.2791 9.39388 85.5487C9.53505 85.8551 10.1294 86.6643 10.2532 86.7188C10.2982 86.7387 10.335 86.8002 10.335 86.8558C10.335 87.0421 11.6947 88.2517 12.2032 88.5178C12.3342 88.5863 12.7087 88.7897 13.0354 88.9697C13.5739 89.2664 14.4061 89.5971 15.5664 89.9751C16.0673 90.1383 16.8973 90.2697 18.3822 90.4209C19.5341 90.5382 23.0483 90.4589 23.2377 90.3114C23.3 90.2629 23.5696 90.1946 23.8369 90.1596C24.4244 90.0828 26.0369 89.5553 26.0872 89.4235C26.1071 89.3716 26.1882 89.3292 26.2675 89.3292C26.42 89.3292 27.0333 89.0256 27.2496 88.8431C27.3199 88.7837 27.5166 88.6392 27.6865 88.522C28.0165 88.2943 29.0585 87.2728 29.3742 86.8675C29.5559 86.6342 30.0569 85.6922 30.3054 85.1166C30.6703 84.2714 30.688 83.8822 30.746 75.3952L30.8039 66.916L31.12 66.4499C31.2939 66.1935 31.5843 65.907 31.7656 65.8134C32.1702 65.6041 33.1673 65.3589 33.6345 65.3537C34.0454 65.349 34.5305 64.9188 34.5305 64.5588C34.5305 64.4261 34.4211 64.2229 34.2874 64.1071C34.0561 63.9065 33.845 63.8959 29.8858 63.8853C25.3745 63.8733 25.2046 63.8932 25.0647 64.4503C24.9255 65.0054 25.2894 65.2616 26.5103 65.4681C26.9411 65.5409 27.2934 65.636 27.2934 65.6794C27.2934 65.7229 27.4027 65.7862 27.5365 65.8202C27.8074 65.889 28.4816 66.4673 28.4816 66.6308C28.4816 66.6886 28.5424 66.7563 28.6166 66.781C28.8016 66.8427 28.815 83.7601 28.6304 84.1552C28.5637 84.2978 28.3801 84.6937 28.2224 85.0349C27.8288 85.8863 26.8736 86.8771 25.8935 87.4508C25.4481 87.7117 24.9976 87.925 24.8924 87.925C24.7871 87.925 24.7011 87.9736 24.7011 88.033C24.7011 88.0924 24.5882 88.141 24.4502 88.141C24.3123 88.141 23.9771 88.2167 23.7054 88.3094C22.8702 88.5939 20.2023 88.4326 19.2463 88.0396C19.1275 87.9908 18.8115 87.8613 18.5442 87.7518C18.2768 87.6424 18.0338 87.5267 18.0041 87.4947C17.9744 87.4626 17.7043 87.2698 17.4038 87.0661C16.7088 86.5949 16.0361 85.6774 15.7763 84.8466C15.5853 84.2353 15.5738 83.7029 15.5738 75.4723C15.5738 69.6458 15.6105 66.7205 15.6843 66.6691C15.7451 66.6266 15.8801 66.4579 15.9844 66.2941C16.2513 65.8745 17.4927 65.3512 18.2278 65.3483C18.4315 65.3475 18.7045 65.3184 18.8344 65.2835C19.1114 65.2093 19.3056 64.741 19.1895 64.4273C18.9874 63.881 19.1899 63.8968 12.312 63.8941C8.78046 63.8927 5.80939 63.934 5.70969 63.986ZM62.897 64.0473C62.5841 64.2606 62.51 64.386 62.5081 64.7054C62.5061 65.0384 62.9734 65.3498 63.4749 65.3498C64.2117 65.3498 65.4229 65.9453 65.4229 66.3075C65.4229 66.3749 65.4669 66.4299 65.5208 66.4299C65.5747 66.4299 65.6981 66.6851 65.7951 66.997C65.9537 67.507 65.9675 68.4777 65.9322 76.6374C65.893 85.6788 65.8616 86.4607 65.5123 87.0717C65.2094 87.6014 64.6796 87.9236 64.1051 87.9274C63.5719 87.9309 62.8474 88.2985 62.7217 88.6293C62.5696 89.029 62.5862 89.15 62.8278 89.4094L63.0411 89.6384L73.0407 89.6292L83.0405 89.6199L83.2509 89.1842C83.3667 88.9446 83.4614 88.6702 83.4614 88.5744C83.4614 88.4786 83.503 88.354 83.5538 88.2977C83.6045 88.2413 83.7562 87.709 83.8908 87.1149C84.0253 86.5208 84.1743 85.9375 84.222 85.8187C84.3061 85.6085 84.4224 84.8022 84.4789 84.0364C84.5478 83.103 83.8716 82.7455 83.2371 83.38C83.0634 83.5537 82.9213 83.7447 82.9213 83.8044C82.9213 83.8642 82.8606 83.9773 82.7863 84.0558C82.7121 84.1342 82.5828 84.3311 82.4992 84.4932C82.2618 84.9536 80.8783 86.2731 80.221 86.6663C78.9932 87.4006 77.5033 87.8191 76.1419 87.8122C74.5331 87.8041 73.6602 87.4259 73.2125 86.5429C72.8383 85.805 72.7679 84.0653 72.7679 75.564C72.7679 67.0926 72.7796 66.8665 73.2453 66.336C73.5971 65.9352 74.2448 65.5658 74.5956 65.5658C74.7716 65.5658 74.9455 65.5172 74.9822 65.4578C75.0189 65.3984 75.2621 65.3498 75.5226 65.3498C76.185 65.3498 76.6054 64.9906 76.5007 64.5143C76.46 64.3285 76.3509 64.1138 76.2584 64.037C75.995 63.8183 63.2184 63.8283 62.897 64.0473ZM8.8228 65.1016C8.8228 65.1563 8.92001 65.3054 9.03883 65.433C9.15765 65.5604 9.25486 65.7154 9.25486 65.7773C9.25486 65.8392 9.29547 65.8899 9.34516 65.8899C9.39485 65.8899 9.51637 66.2249 9.6152 66.6344C9.7742 67.2932 9.79494 68.2705 9.79494 75.115C9.79494 82.4805 9.80509 82.8878 10.0077 83.6191C10.3883 84.9922 11.096 86.1702 11.9143 86.7926C12.1448 86.9679 12.4464 87.2093 12.5846 87.3291C12.8867 87.5908 13.761 88.0832 14.1243 88.1961C14.3277 88.2593 14.2818 88.1856 13.917 87.8637C13.265 87.2884 12.3873 85.977 12.3873 85.5784C12.3873 85.501 12.3419 85.3533 12.2864 85.2501C12.231 85.147 12.1092 84.5279 12.0157 83.8744C11.873 82.8753 11.846 81.3512 11.8466 74.2964L11.8472 65.9065L11.5272 65.5864C11.3384 65.3976 11.0393 65.2376 10.7981 65.1961C9.99844 65.0587 8.8228 65.0024 8.8228 65.1016ZM66.0709 65.1376C66.0709 65.2107 66.1634 65.3507 66.2765 65.4487C66.3896 65.5468 66.5827 65.8202 66.7059 66.0563C66.9271 66.4807 66.9298 66.597 66.9438 76.2602C66.9516 81.6362 66.9246 86.2292 66.8839 86.4668C66.7869 87.0328 66.5394 87.6785 66.2795 88.0435C65.9975 88.4395 66.0095 88.4651 66.476 88.465C67.2968 88.4649 68.6633 87.6909 68.6633 87.2262C68.6633 87.1353 68.7011 87.0609 68.7475 87.0609C68.7937 87.0609 68.9155 86.7327 69.0184 86.3318C69.1886 85.6674 69.2051 84.7526 69.2043 76.0163C69.2038 70.6111 69.1621 66.4299 69.1089 66.4299C69.0569 66.4299 68.9862 66.289 68.9517 66.1167C68.8369 65.5426 68.1283 65.2264 66.584 65.0601C66.2202 65.021 66.0709 65.0436 66.0709 65.1376ZM42.0885 66.4138C40.6327 67.1722 39.4778 68.0987 38.1403 69.5813C37.3827 70.421 35.9347 72.914 35.9347 73.3785C35.9347 73.4777 35.8861 73.559 35.8266 73.559C35.7672 73.559 35.7186 73.6837 35.7186 73.8361C35.7186 73.9885 35.6649 74.2134 35.5994 74.336C35.121 75.2301 35.1236 78.4162 35.6041 80.0939C35.9079 81.1545 36.6776 82.7425 37.0856 83.1505C37.1655 83.2304 37.2308 83.33 37.2308 83.372C37.2308 83.414 37.3646 83.5988 37.5279 83.7828C37.6912 83.9668 37.9018 84.2085 37.9957 84.32C38.3415 84.7299 39.6388 85.884 40.1287 86.2173C40.4063 86.4061 40.658 86.5881 40.688 86.6217C40.8882 86.8456 43.1544 87.9488 43.3085 87.8973C43.3662 87.8781 43.1525 87.6641 42.8335 87.4218C42.109 86.8713 40.8591 85.6505 40.3627 85.0086C40.156 84.7412 39.95 84.5063 39.905 84.4865C39.86 84.4667 39.8232 84.3817 39.8232 84.2975C39.8232 84.2134 39.7756 84.1445 39.7172 84.1445C39.659 84.1445 39.5808 84.0229 39.5436 83.8744C39.5063 83.7259 39.4377 83.6044 39.3911 83.6044C39.3446 83.6044 39.276 83.4829 39.2387 83.3343C39.2015 83.1858 39.1233 83.0643 39.065 83.0643C39.0067 83.0643 38.9591 83.0109 38.9591 82.9456C38.9591 82.8804 38.8907 82.6737 38.8072 82.4865C38.7237 82.2993 38.5736 81.9031 38.4737 81.6061C38.3736 81.3091 38.2506 80.9865 38.2002 80.8893C38.1497 80.7921 38.0748 80.4032 38.0336 80.0252C37.9925 79.6471 37.9147 79.2819 37.8607 79.2137C37.8062 79.1448 37.7789 78.065 37.7992 76.7833C37.8325 74.6811 37.9649 73.3192 38.1915 72.7488C38.2386 72.63 38.3612 72.2737 38.4637 71.9569C38.7019 71.2212 39.2851 69.9513 39.4063 69.9045C39.4574 69.8846 39.4992 69.7996 39.4992 69.7154C39.4992 69.6313 39.5445 69.5624 39.5999 69.5624C39.6554 69.5624 39.7347 69.453 39.7764 69.3193C39.8182 69.1857 39.8822 69.052 39.9188 69.0223C39.9553 68.9926 40.1668 68.7423 40.3887 68.466C40.8537 67.8872 41.9932 66.754 42.1104 66.754C42.1958 66.754 42.7396 66.2363 42.7396 66.155C42.7396 66.0778 42.7141 66.088 42.0885 66.4138ZM3.74608 97.2143V99.9147H44.7919H85.8378V97.2143V94.5139H44.7919H3.74608V97.2143ZM0.577661 102.903C0.53802 102.943 0.505615 104.231 0.505615 105.766V108.556H44.7919H89.0782V105.694V102.831H44.864C20.546 102.831 0.617195 102.864 0.577661 102.903Z" fill="black"/>
</g>
<defs>
<clipPath id="clip0_1_7">
<rect width="88.5726" height="108.555" fill="white" transform="translate(0.505615 0.000488281)"/>
</clipPath>
</defs>
</svg>
