<svg version="1.1" id="Layer_1" xmlns="http://www.w3.org/2000/svg" xmlns:xlink="http://www.w3.org/1999/xlink" x="0px" y="0px"
	 width="100%" viewBox="0 0 93 98" enable-background="new 0 0 93 98" xml:space="preserve">
<path fill="#23212B" opacity="1.000000" stroke="none" 
	d="
M94.000000,25.000000 
	C94.000000,49.574074 94.000000,74.148148 94.000000,99.000000 
	C79.980331,99.000000 65.958824,99.000000 51.399368,98.670158 
	C50.914207,97.894150 50.966995,97.447983 51.476692,97.006340 
	C55.295284,96.960464 58.656963,96.910072 62.451233,96.892883 
	C66.293549,96.242325 69.703270,95.558556 73.354424,94.720703 
	C73.740997,94.219742 73.886147,93.872856 74.235367,93.315475 
	C74.292404,92.600021 74.145370,92.095055 73.990952,91.624084 
	C73.983582,91.658073 74.013138,91.721733 74.523613,91.727402 
	C75.681114,90.370445 76.858582,89.018524 76.886345,87.643394 
	C77.032074,80.425491 76.886879,73.201714 76.910416,65.588654 
	C79.016472,59.828957 81.054863,54.460594 83.332619,48.975780 
	C83.656815,48.533512 83.741631,48.207695 83.850327,47.555916 
	C83.778648,46.805450 83.683098,46.380943 83.648445,45.733810 
	C83.709343,45.511177 83.563812,45.073093 83.675835,44.710281 
	C85.835899,38.814159 87.883949,33.280842 90.271469,27.869122 
	C91.530098,27.003838 92.449265,26.016962 93.526108,25.018042 
	C93.683792,25.005999 94.000000,25.000000 94.000000,25.000000 
z"/>
<path fill="#1F1D24" opacity="1.000000" stroke="none" 
	d="
M94.000000,24.531307 
	C94.000000,25.000000 93.683792,25.005999 93.446777,24.651901 
	C92.447716,23.764311 91.685677,23.230820 90.833221,22.463043 
	C90.472809,22.021297 90.202812,21.813843 89.689468,21.379684 
	C87.964371,23.028231 86.482613,24.903479 84.757965,26.877180 
	C84.351402,27.036797 84.187737,27.097961 83.717102,27.198374 
	C82.645470,27.507570 81.880791,27.777519 80.683037,28.039001 
	C78.806488,28.029198 77.363022,28.027861 75.676567,27.848621 
	C75.238792,27.103447 75.044014,26.536171 74.900375,25.505678 
	C74.976471,20.900457 75.657463,16.620876 74.826485,12.658370 
	C74.114326,9.262460 71.671288,6.229537 69.953835,2.694947 
	C69.942619,1.902543 69.971306,1.451271 70.000000,1.000000 
	C77.926338,1.000000 85.852669,1.000000 94.000000,1.000000 
	C94.000000,8.686132 94.000000,16.374374 94.000000,24.531307 
z"/>
<path fill="#23212B" opacity="1.000000" stroke="none" 
	d="
M11.000000,99.000000 
	C7.686234,99.000000 4.372467,99.000000 1.000000,99.000000 
	C1.000000,77.645805 1.000000,56.291561 1.329605,34.436852 
	C2.100708,33.936054 2.542205,33.935722 3.028910,34.350395 
	C3.713358,39.854961 4.352599,44.944523 4.806992,50.283173 
	C4.745187,51.676605 4.868232,52.820946 4.902362,54.375298 
	C4.940378,66.225578 5.024312,77.666771 5.270935,89.104454 
	C5.292041,90.083321 6.394636,91.038864 7.075692,92.330704 
	C8.414818,93.788780 9.673087,94.921387 10.956531,96.278412 
	C10.981705,96.502831 11.028521,96.952049 11.021959,97.293350 
	C11.010266,98.089760 11.005133,98.544884 11.000000,99.000000 
z"/>
<path fill="#545251" opacity="1.000000" stroke="none" 
	d="
M28.000000,1.000000 
	C37.687561,1.000000 47.375122,1.000000 57.394302,1.290074 
	C56.482021,2.998323 55.238121,4.416498 53.540497,5.887012 
	C46.395844,6.347970 39.704910,6.756588 32.547676,7.109852 
	C26.392527,7.094884 20.703678,7.135272 14.686826,7.112497 
	C13.914122,7.023116 13.469421,6.996899 12.764999,6.816976 
	C11.668194,6.110987 10.831109,5.558704 9.977592,4.739957 
	C9.947309,4.296113 9.933457,4.118734 9.958231,3.969524 
	C9.996856,3.997693 9.917214,3.939327 10.382134,3.954659 
	C15.534789,3.776445 20.235472,3.721722 24.900679,3.286629 
	C25.995350,3.184536 26.970087,1.796450 28.000000,1.000000 
z"/>
<path fill="#454444" opacity="1.000000" stroke="none" 
	d="
M23.000000,99.000000 
	C20.629442,99.000000 18.258884,99.000000 15.457064,98.673462 
	C15.009785,97.911507 14.993768,97.476097 14.949474,96.665756 
	C14.620048,94.578934 14.318896,92.867035 14.240276,91.105644 
	C14.462808,91.056145 14.919367,91.055260 15.158842,91.368385 
	C19.596960,92.178108 23.795601,92.674698 28.136452,93.440590 
	C29.174074,94.774445 30.069489,95.838989 30.531876,96.920380 
	C28.076571,96.956360 26.054293,96.975517 23.841599,97.210434 
	C23.434120,97.950798 23.217060,98.475395 23.000000,99.000000 
z"/>
<path fill="#575757" opacity="1.000000" stroke="none" 
	d="
M53.994217,5.834673 
	C55.238121,4.416498 56.482021,2.998323 57.862961,1.290074 
	C61.692909,1.000000 65.385818,1.000000 69.539360,1.000000 
	C69.971306,1.451271 69.942619,1.902543 69.884735,2.971465 
	C69.455956,4.789165 69.056381,5.989214 68.265289,7.122486 
	C63.247250,6.648697 58.620731,6.241685 53.994217,5.834673 
z"/>
<path fill="#1F1E25" opacity="1.000000" stroke="none" 
	d="
M1.000000,18.000000 
	C1.000000,12.440467 1.000000,6.880933 1.000000,1.000000 
	C3.664050,1.000000 6.340977,1.000000 9.538147,1.367450 
	C10.011333,2.469709 9.964273,3.204518 9.917214,3.939327 
	C9.917214,3.939327 9.996856,3.997693 9.768815,4.107816 
	C9.306509,4.441752 9.155195,4.712017 9.069836,5.270121 
	C9.052840,5.511508 9.046820,5.995440 8.810643,6.013059 
	C8.574467,6.030677 8.101169,6.049321 7.753198,6.049120 
	C6.597143,7.030797 5.789058,8.012674 4.982213,9.244230 
	C4.983452,9.493909 4.967441,9.993014 4.722633,9.996603 
	C4.477825,10.000193 3.988207,10.007241 3.784764,10.343185 
	C3.367054,13.108451 3.152788,15.537772 2.615734,17.996733 
	C1.861964,18.017582 1.430982,18.008791 1.000000,18.000000 
z"/>
<path fill="#5F5E61" opacity="1.000000" stroke="none" 
	d="
M24.032013,96.994667 
	C26.054293,96.975517 28.076571,96.956360 31.004051,96.945251 
	C38.279430,96.969467 44.649609,96.985641 51.019787,97.001816 
	C50.966995,97.447983 50.914207,97.894150 50.930710,98.670158 
	C42.312439,99.000000 33.624874,99.000000 24.539890,98.670074 
	C24.105652,97.891647 24.068832,97.443161 24.032013,96.994667 
z"/>
<path fill="#4B4B4C" opacity="1.000000" stroke="none" 
	d="
M10.382134,3.954659 
	C9.964273,3.204518 10.011333,2.469709 10.029196,1.367450 
	C15.688041,1.000000 21.376081,1.000000 27.532061,1.000000 
	C26.970087,1.796450 25.995350,3.184536 24.900679,3.286629 
	C20.235472,3.721722 15.534789,3.776445 10.382134,3.954659 
z"/>
<path fill="#424145" opacity="1.000000" stroke="none" 
	d="
M1.000000,18.466862 
	C1.430982,18.008791 1.861964,18.017582 2.855205,18.012585 
	C3.417463,17.998796 3.895545,18.029085 3.914916,18.439753 
	C3.978374,20.216034 4.022460,21.581648 4.047039,23.395704 
	C3.679588,27.207895 3.331645,30.571642 2.983702,33.935387 
	C2.542205,33.935722 2.100708,33.936054 1.329605,33.968193 
	C1.000000,28.977907 1.000000,23.955816 1.000000,18.466862 
z"/>
<path fill="#2A2731" opacity="1.000000" stroke="none" 
	d="
M14.977751,97.040680 
	C14.993768,97.476097 15.009785,97.911507 15.012901,98.673462 
	C13.933482,99.000000 12.866963,99.000000 11.400223,99.000000 
	C11.005133,98.544884 11.010266,98.089760 11.416401,97.307617 
	C12.870852,97.000618 13.924302,97.020645 14.977751,97.040680 
z"/>
<path fill="#2A2731" opacity="1.000000" stroke="none" 
	d="
M23.841597,97.210434 
	C24.068832,97.443161 24.105652,97.891647 24.071236,98.670074 
	C24.000000,99.000000 23.500000,99.000000 23.250000,99.000000 
	C23.217060,98.475395 23.434120,97.950798 23.841597,97.210434 
z"/>
<path fill="#484747" opacity="1.000000" stroke="none" 
	d="
M51.476692,97.006340 
	C44.649609,96.985641 38.279430,96.969467 31.437078,96.928421 
	C30.069489,95.838989 29.174074,94.774445 28.597204,93.388466 
	C33.286438,92.718445 37.657127,92.369858 42.493496,92.013428 
	C48.971603,92.070419 54.984035,92.135254 61.080063,92.532784 
	C61.448654,94.196877 61.733650,95.528275 62.018646,96.859673 
	C58.656963,96.910072 55.295284,96.960464 51.476692,97.006340 
z"/>
<path fill="#E6B67E" opacity="1.000000" stroke="none" 
	d="
M83.093246,49.092232 
	C81.054863,54.460594 79.016472,59.828957 76.653732,65.749756 
	C75.579681,67.243446 74.829994,68.184692 73.878677,68.870552 
	C73.055222,67.735451 72.433388,66.855728 71.911179,65.610916 
	C72.304878,63.763287 72.598953,62.280750 73.061264,60.617554 
	C73.432159,60.175800 73.605629,59.896576 73.943016,59.378929 
	C74.200989,58.587379 74.265862,58.016121 74.389023,57.408409 
	C74.447304,57.371964 74.503456,57.246464 74.717590,56.942131 
	C75.269371,55.706936 75.607018,54.776066 76.164169,53.579082 
	C76.652588,52.208492 76.921516,51.104015 77.248222,49.900429 
	C77.306000,49.801319 77.299965,49.571953 77.619003,49.523247 
	C78.622917,48.981812 79.307808,48.489082 80.363266,47.991737 
	C81.474998,47.983673 82.216171,47.980221 82.988846,48.255936 
	C83.044662,48.720814 83.068954,48.906525 83.093246,49.092232 
z"/>
<path fill="#D0894A" opacity="1.000000" stroke="none" 
	d="
M82.957336,47.976768 
	C82.216171,47.980221 81.474998,47.983673 80.159683,47.828926 
	C79.342957,47.422050 79.100372,47.173370 78.884087,46.605553 
	C78.928429,45.859352 78.946480,45.432293 79.240051,44.793839 
	C81.689201,38.747208 83.862839,32.911968 86.265411,27.014687 
	C86.494362,26.952644 86.952698,26.830198 87.256363,26.829903 
	C87.955170,26.743874 88.350311,26.658140 88.964188,26.630421 
	C89.182930,26.688437 89.630714,26.754339 89.726418,26.996452 
	C89.858742,27.408218 89.895363,27.577871 89.931992,27.747528 
	C87.883949,33.280842 85.835899,38.814159 83.638680,44.818718 
	C83.447838,45.521885 83.480522,45.744041 83.587540,45.956440 
	C83.683098,46.380943 83.778648,46.805450 83.633034,47.580017 
	C83.391861,47.930080 82.957336,47.976765 82.957336,47.976768 
z"/>
<path fill="#4E4C4C" opacity="1.000000" stroke="none" 
	d="
M62.451233,96.892883 
	C61.733650,95.528275 61.448654,94.196877 61.505413,92.472031 
	C63.563786,92.000412 65.280403,91.922241 67.330841,91.893433 
	C68.493996,91.421425 69.323334,90.900047 70.396912,90.253799 
	C71.149261,89.615532 71.657356,89.102142 72.386230,88.545784 
	C72.607002,88.502815 73.044296,88.397301 73.160645,88.710037 
	C73.517448,89.878548 73.757889,90.734322 73.998337,91.590096 
	C74.145370,92.095055 74.292404,92.600021 74.078003,93.537674 
	C73.515381,94.271835 73.314194,94.573311 73.112999,94.874786 
	C69.703270,95.558556 66.293549,96.242325 62.451233,96.892883 
z"/>
<path fill="#858283" opacity="1.000000" stroke="none" 
	d="
M74.080299,69.125931 
	C74.829994,68.184692 75.579681,67.243446 76.586060,66.141090 
	C76.886879,73.201714 77.032074,80.425491 76.886345,87.643394 
	C76.858582,89.018524 75.681114,90.370445 74.697693,91.290131 
	C74.524864,89.931046 74.688431,89.014893 74.870239,87.781204 
	C74.651947,86.672523 74.415413,85.881378 74.129456,84.622284 
	C74.001671,79.777580 73.923294,75.400810 73.897369,70.709137 
	C73.993309,69.971474 74.036804,69.548698 74.080299,69.125931 
z"/>
<path fill="#E89867" opacity="1.000000" stroke="none" 
	d="
M90.271461,27.869120 
	C89.895363,27.577871 89.858742,27.408218 89.605103,26.893532 
	C89.224571,26.389072 89.032082,26.281229 88.838036,25.906105 
	C88.852760,25.374266 88.840050,25.161287 88.872879,24.988548 
	C88.918411,25.028788 89.039871,25.033030 89.317955,24.896584 
	C90.038574,24.072536 90.481102,23.384933 90.923637,22.697330 
	C91.685677,23.230820 92.447716,23.764311 93.289093,24.663944 
	C92.449265,26.016962 91.530098,27.003838 90.271461,27.869120 
z"/>
<path fill="#67615E" opacity="1.000000" stroke="none" 
	d="
M74.852005,88.098740 
	C74.688431,89.014893 74.524864,89.931046 74.187210,91.284470 
	C74.013138,91.721733 73.983582,91.658073 73.990959,91.624084 
	C73.757889,90.734322 73.517448,89.878548 73.138870,88.598953 
	C73.000748,88.175125 73.111748,87.978729 73.401901,87.999779 
	C74.078697,88.046799 74.465355,88.072769 74.852005,88.098740 
z"/>
<path fill="#C78F63" opacity="1.000000" stroke="none" 
	d="
M82.988846,48.255932 
	C82.957336,47.976765 83.391861,47.930080 83.609161,47.905979 
	C83.741631,48.207695 83.656815,48.533512 83.332619,48.975780 
	C83.068954,48.906525 83.044662,48.720814 82.988846,48.255932 
z"/>
<path fill="#626262" opacity="1.000000" stroke="none" 
	d="
M73.354424,94.720711 
	C73.314194,94.573311 73.515381,94.271835 73.873932,93.748169 
	C73.886147,93.872856 73.740997,94.219742 73.354424,94.720711 
z"/>
<path fill="#C78F63" opacity="1.000000" stroke="none" 
	d="
M83.648438,45.733810 
	C83.480522,45.744041 83.447838,45.521885 83.526657,45.181530 
	C83.563812,45.073093 83.709343,45.511177 83.648438,45.733810 
z"/>
<path fill="#828181" opacity="1.000000" stroke="none" 
	d="
M68.656807,7.189263 
	C69.056381,5.989214 69.455956,4.789165 69.924637,3.312598 
	C71.671288,6.229537 74.114326,9.262460 74.826485,12.658370 
	C75.657463,16.620876 74.976471,20.900457 74.704285,25.497702 
	C74.457054,25.952942 74.064804,25.938818 74.023148,25.630096 
	C73.651764,24.575932 73.322029,23.830490 72.900299,22.734138 
	C72.676361,21.917639 72.544403,21.452047 72.456970,20.596989 
	C72.034775,17.124315 71.568047,14.041108 70.987854,10.728635 
	C70.596771,10.318862 70.319160,10.138356 70.018631,9.967205 
	C69.995728,9.976561 70.041252,9.995876 70.017899,9.701427 
	C69.912407,9.228007 69.830276,9.049037 69.614517,8.658983 
	C69.206184,8.028355 68.931496,7.608809 68.656807,7.189263 
z"/>
<path fill="#B75D26" opacity="1.000000" stroke="none" 
	d="
M81.116119,28.047470 
	C81.880791,27.777519 82.645470,27.507570 83.697777,27.582067 
	C81.993462,32.619450 80.001503,37.312389 77.627945,41.986900 
	C76.737610,41.930401 76.228867,41.892323 75.817093,41.524609 
	C76.191193,40.326206 76.468315,39.457439 76.826050,38.317413 
	C77.186684,37.353153 77.466721,36.660149 77.915375,35.648506 
	C79.094704,32.902397 80.105415,30.474934 81.116119,28.047470 
z"/>
<path fill="#C97C36" opacity="1.000000" stroke="none" 
	d="
M78.009544,42.005325 
	C80.001503,37.312389 81.993462,32.619450 84.004738,27.542820 
	C84.187737,27.097961 84.351402,27.036797 85.017929,26.946621 
	C85.692688,26.970650 85.864578,27.023689 86.036469,27.076731 
	C83.862839,32.911968 81.689201,38.747208 78.906143,44.794151 
	C77.850655,45.004990 77.404579,45.004128 77.031914,44.693005 
	C77.406731,43.590271 77.708138,42.797798 78.009544,42.005325 
z"/>
<path fill="#26232B" opacity="1.000000" stroke="none" 
	d="
M80.683037,28.039001 
	C80.105415,30.474934 79.094704,32.902397 77.659523,35.649323 
	C76.894051,35.971687 76.553055,35.974583 76.162216,35.538261 
	C76.048111,32.741539 75.983833,30.384031 75.919556,28.026524 
	C77.363022,28.027861 78.806488,28.029198 80.683037,28.039001 
z"/>
<path fill="#747273" opacity="1.000000" stroke="none" 
	d="
M75.676567,27.848621 
	C75.983833,30.384031 76.048111,32.741539 76.110718,35.813820 
	C76.321190,37.215286 76.533318,37.901981 76.745445,38.588676 
	C76.468315,39.457439 76.191193,40.326206 75.656799,41.490646 
	C75.399536,41.786320 75.072861,41.742687 75.051743,41.367641 
	C74.753952,39.261032 74.477280,37.529469 74.170662,35.450699 
	C74.086197,34.404873 74.031670,33.706257 74.060043,32.764587 
	C74.094093,31.681641 74.045242,30.841751 73.998566,29.626400 
	C73.999458,28.501564 73.998184,27.752190 74.011139,26.736641 
	C74.038506,26.293249 74.051659,26.116034 74.064804,25.938818 
	C74.064804,25.938818 74.457054,25.952942 74.653145,25.960918 
	C75.044014,26.536171 75.238792,27.103447 75.676567,27.848621 
z"/>
<path fill="#BB3C13" opacity="1.000000" stroke="none" 
	d="
M86.265411,27.014687 
	C85.864578,27.023689 85.692688,26.970650 85.260826,26.848167 
	C86.482613,24.903479 87.964371,23.028231 89.511276,21.695999 
	C89.397575,23.170357 89.218719,24.101692 89.039871,25.033028 
	C89.039871,25.033030 88.918411,25.028788 88.623276,25.100723 
	C87.869659,25.725174 87.411179,26.277687 86.952698,26.830200 
	C86.952698,26.830198 86.494362,26.952644 86.265411,27.014687 
z"/>
<path fill="#D6632D" opacity="1.000000" stroke="none" 
	d="
M89.317947,24.896584 
	C89.218719,24.101692 89.397575,23.170357 89.754616,21.922703 
	C90.202812,21.813843 90.472809,22.021297 90.833221,22.463043 
	C90.481102,23.384933 90.038574,24.072536 89.317947,24.896584 
z"/>
<path fill="#272727" opacity="1.000000" stroke="none" 
	d="
M3.028910,34.350395 
	C3.331645,30.571642 3.679588,27.207895 4.218156,23.235275 
	C4.631006,22.403372 4.837715,22.166780 5.321506,22.097145 
	C6.365043,24.183771 7.115981,26.089882 7.908899,28.363792 
	C8.005035,29.467709 8.059191,30.203827 8.082468,31.343632 
	C8.064523,32.825863 8.077456,33.904408 8.061343,35.400421 
	C8.043380,37.207020 8.054462,38.596149 8.050823,40.413685 
	C8.044534,42.554951 8.052968,44.267815 8.045290,46.388664 
	C8.304682,48.860313 8.580187,50.923985 8.903585,53.385643 
	C9.021576,54.850212 9.091671,55.916794 9.113552,57.381149 
	C9.094389,58.845261 9.123441,59.911598 9.110663,61.375999 
	C9.089497,62.839207 9.110160,63.904343 9.094316,65.386047 
	C9.072487,67.192772 9.087163,68.582947 9.076288,70.385727 
	C9.359213,73.140938 9.667689,75.483528 10.012258,78.117798 
	C10.086206,78.600464 10.124063,78.791473 10.103941,79.400307 
	C10.306814,82.007149 10.567666,84.196167 10.870496,86.571274 
	C10.912475,86.757378 11.157684,87.049698 11.200283,87.375404 
	C11.366764,88.122772 11.490646,88.544426 11.275143,89.067780 
	C9.622117,90.114731 8.308476,91.059990 6.994835,92.005241 
	C6.394636,91.038864 5.292041,90.083321 5.270935,89.104454 
	C5.024312,77.666771 4.940378,66.225578 4.907729,53.982491 
	C4.998621,52.131138 4.995230,51.082611 4.991839,50.034081 
	C4.352599,44.944523 3.713358,39.854961 3.028910,34.350395 
z"/>
<path fill="#353434" opacity="1.000000" stroke="none" 
	d="
M7.075693,92.330704 
	C8.308476,91.059990 9.622117,90.114731 11.408340,89.213577 
	C12.006462,89.494339 12.112123,89.739563 12.015658,90.246750 
	C11.532725,92.351433 11.232040,94.202713 10.931356,96.053993 
	C9.673087,94.921387 8.414818,93.788780 7.075693,92.330704 
z"/>
<path fill="#3F3E3E" opacity="1.000000" stroke="none" 
	d="
M10.956530,96.278412 
	C11.232040,94.202713 11.532725,92.351433 12.262328,90.357765 
	C13.133412,90.528633 13.575578,90.841888 14.017744,91.155144 
	C14.318896,92.867035 14.620048,94.578934 14.949474,96.665756 
	C13.924302,97.020645 12.870852,97.000618 11.422962,96.966316 
	C11.028521,96.952049 10.981705,96.502831 10.956530,96.278412 
z"/>
<path fill="#414141" opacity="1.000000" stroke="none" 
	d="
M4.806991,50.283173 
	C4.995230,51.082611 4.998621,52.131138 4.996644,53.572475 
	C4.868232,52.820946 4.745187,51.676605 4.806991,50.283173 
z"/>
<path fill="#D8662F" opacity="1.000000" stroke="none" 
	d="
M13.024722,6.970681 
	C13.469421,6.996899 13.914122,7.023116 14.582253,7.432753 
	C14.327832,9.150832 13.849981,10.485493 13.357316,11.861529 
	C16.231895,12.681201 18.600325,13.356545 20.792625,14.159243 
	C20.385448,14.465216 20.175470,14.665888 19.749580,15.063249 
	C19.027147,15.839810 18.541695,16.441734 17.965515,17.434517 
	C17.636831,20.541784 17.398876,23.258192 17.140724,26.383205 
	C17.137323,27.882231 17.154114,28.972651 17.276371,30.251049 
	C17.554348,30.673872 17.757370,30.878452 17.993950,31.516565 
	C18.285456,37.355865 18.573915,42.731365 18.873341,48.428223 
	C18.878633,49.179218 18.872959,49.608856 18.555981,50.031250 
	C17.829548,50.016235 17.414423,50.008469 16.999649,50.000351 
	C17.000000,50.000000 16.999340,50.000763 16.948416,49.684418 
	C14.993387,45.837482 13.968814,47.738708 13.002023,50.442257 
	C12.364163,53.928509 11.726627,56.971279 11.065498,59.559666 
	C11.000501,56.077785 10.959093,53.050289 10.939711,49.577656 
	C10.945031,46.761829 10.928327,44.391140 10.924564,41.620712 
	C10.928829,40.156780 10.920152,39.092594 10.934711,37.626900 
	C10.955351,36.155582 10.952751,35.085770 10.908871,33.537479 
	C10.732285,32.429733 10.596979,31.800467 10.380063,31.217295 
	C10.298451,31.263388 10.233259,30.963657 10.346380,29.618298 
	C10.403282,27.374620 10.347062,26.476307 10.130402,25.850376 
	C9.858165,22.297745 9.746368,18.472731 9.616865,14.535510 
	C9.599158,14.423306 9.629722,14.198185 9.419083,14.059864 
	C9.376253,13.684430 9.544065,13.447315 10.021948,12.713255 
	C10.558204,11.099269 10.784386,9.982228 11.135591,8.612398 
	C11.848650,7.896633 12.436686,7.433657 13.024722,6.970681 
z"/>
<path fill="#DD713B" opacity="1.000000" stroke="none" 
	d="
M68.265289,7.122486 
	C68.931496,7.608809 69.206184,8.028355 69.563141,8.814850 
	C69.607445,9.533080 69.739395,9.804439 70.041252,9.995876 
	C70.041252,9.995876 69.995728,9.976561 69.969139,10.227196 
	C69.934410,10.654088 69.926277,10.830347 69.920532,11.449099 
	C70.284454,14.926193 70.645988,17.960796 70.999115,21.396210 
	C70.968773,22.865559 70.946838,23.934099 70.614777,24.873100 
	C68.593620,24.168705 66.882584,23.593849 65.123703,22.628222 
	C64.392456,20.142405 63.709049,18.047359 63.014809,15.977972 
	C63.003967,16.003628 63.057495,15.988216 62.975910,15.685381 
	C62.264046,14.899175 61.633762,14.415806 60.991783,13.965570 
	C60.980087,13.998703 61.046543,14.021555 60.907764,13.813894 
	C60.551807,13.347913 60.294525,13.138977 59.714424,12.789057 
	C57.617485,12.699681 55.803253,12.800676 53.854767,12.558011 
	C51.692783,11.476377 49.715374,10.514212 47.627209,10.045548 
	C42.784584,8.958681 37.888432,8.110281 33.013981,7.165208 
	C39.704910,6.756588 46.395844,6.347970 53.540497,5.887012 
	C58.620731,6.241685 63.247250,6.648697 68.265289,7.122486 
z"/>
<path fill="#DC6D35" opacity="1.000000" stroke="none" 
	d="
M32.547676,7.109852 
	C37.888432,8.110281 42.784584,8.958681 47.627209,10.045548 
	C49.715374,10.514212 51.692783,11.476377 53.393471,12.586030 
	C49.054371,13.004620 45.042309,13.051531 40.561058,13.068989 
	C35.065983,13.071703 30.040089,13.103870 24.675409,13.141341 
	C23.264175,13.430075 22.191727,13.713507 21.082298,14.008477 
	C21.045317,14.020016 20.968752,14.031891 20.968752,14.031891 
	C18.600325,13.356545 16.231895,12.681201 13.357316,11.861529 
	C13.849981,10.485493 14.327832,9.150832 14.910257,7.495916 
	C20.703678,7.135272 26.392527,7.094884 32.547676,7.109852 
z"/>
<path fill="#494444" opacity="1.000000" stroke="none" 
	d="
M12.764999,6.816976 
	C12.436686,7.433657 11.848650,7.896633 10.904711,8.795706 
	C10.240808,9.472116 9.932811,9.712428 9.489756,9.989271 
	C9.354697,10.025801 9.085376,10.101742 9.035507,10.051168 
	C8.985640,10.000594 8.886503,9.898859 8.755542,9.736422 
	C8.439185,9.364302 8.237981,9.171078 7.947710,8.996708 
	C7.874453,8.999102 7.727979,9.005015 7.774874,8.696197 
	C7.830659,7.974243 7.839549,7.561109 7.912349,6.873478 
	C8.017897,6.415762 8.059532,6.232541 8.101169,6.049321 
	C8.101169,6.049321 8.574467,6.030677 8.980211,5.854632 
	C9.610477,5.464025 9.819481,5.235283 10.007780,4.995402 
	C10.002594,4.998443 9.994025,5.006421 9.994025,5.006421 
	C10.831109,5.558704 11.668194,6.110987 12.764999,6.816976 
z"/>
<path fill="#494444" opacity="1.000000" stroke="none" 
	d="
M9.086832,5.028733 
	C9.155195,4.712017 9.306509,4.441752 9.730190,4.079646 
	C9.933457,4.118734 9.947309,4.296113 9.977592,4.739957 
	C9.994025,5.006421 10.002594,4.998443 9.776080,5.002258 
	C9.549566,5.006073 9.086832,5.028733 9.086832,5.028733 
z"/>
<path fill="#B5552A" opacity="1.000000" stroke="none" 
	d="
M42.027817,92.021271 
	C37.657127,92.369858 33.286438,92.718445 28.454994,93.119164 
	C23.795601,92.674698 19.596960,92.178108 15.510899,91.340759 
	C16.093832,90.975410 16.564186,90.950813 17.484917,90.949936 
	C20.956308,90.960213 23.977322,90.946762 27.463129,90.948402 
	C32.627888,91.316086 37.327854,91.668678 42.027817,92.021271 
z"/>
<path fill="#D25B20" opacity="1.000000" stroke="none" 
	d="
M17.034538,90.926224 
	C16.564186,90.950813 16.093832,90.975410 15.271423,91.027634 
	C14.919367,91.055260 14.462808,91.056145 14.240276,91.105644 
	C13.575578,90.841888 13.133412,90.528633 12.444577,90.104370 
	C12.112123,89.739563 12.006462,89.494339 11.747725,89.111885 
	C11.490646,88.544426 11.366764,88.122772 11.362219,87.123825 
	C11.947844,85.673912 12.414131,84.801270 13.054288,84.232056 
	C14.496951,86.665726 15.765745,88.795967 17.034538,90.926224 
z"/>
<path fill="#2B2B2A" opacity="1.000000" stroke="none" 
	d="
M4.967441,9.993014 
	C4.967441,9.993014 4.983452,9.493909 5.331669,9.227875 
	C6.145126,8.934705 6.610365,8.907569 7.238910,8.910470 
	C7.402215,8.940508 7.727979,9.005015 7.727979,9.005015 
	C7.727979,9.005015 7.874453,8.999102 8.072546,9.166130 
	C8.450299,9.549628 8.655586,9.738195 8.886503,9.898859 
	C8.886503,9.898859 8.985640,10.000594 9.034033,10.196022 
	C9.082426,10.391450 9.138974,10.676946 9.039213,10.998814 
	C8.825706,11.514408 8.711962,11.708134 8.406878,12.120588 
	C7.498431,13.256144 6.781322,14.172968 5.872502,14.767817 
	C5.443007,12.961565 5.205225,11.477289 4.967441,9.993014 
z"/>
<path fill="#212121" opacity="1.000000" stroke="none" 
	d="
M4.722633,9.996603 
	C5.205225,11.477289 5.443007,12.961565 5.850790,15.151072 
	C5.690161,17.876413 5.359534,19.896523 5.028907,21.916632 
	C4.837715,22.166780 4.631006,22.403372 4.237663,22.786835 
	C4.022460,21.581648 3.978374,20.216034 3.943689,17.993519 
	C3.964796,14.760158 3.976501,12.383699 3.988207,10.007241 
	C3.988207,10.007241 4.477825,10.000193 4.722633,9.996603 
z"/>
<path fill="#252526" opacity="1.000000" stroke="none" 
	d="
M7.075604,8.880432 
	C6.610365,8.907569 6.145126,8.934705 5.330430,8.978197 
	C5.789058,8.012674 6.597143,7.030797 7.753198,6.049120 
	C8.059532,6.232541 8.017897,6.415762 7.780950,7.070109 
	C7.415628,7.987635 7.245616,8.434033 7.075604,8.880432 
z"/>
<path fill="#3C3C3C" opacity="1.000000" stroke="none" 
	d="
M3.784764,10.343185 
	C3.976501,12.383699 3.964796,14.760158 3.924318,17.582851 
	C3.895545,18.029085 3.417463,17.998796 3.177993,17.982944 
	C3.152788,15.537772 3.367054,13.108451 3.784764,10.343185 
z"/>
<path fill="#545251" opacity="1.000000" stroke="none" 
	d="
M9.069836,5.270121 
	C9.086832,5.028733 9.549566,5.006073 9.781267,4.999218 
	C9.819481,5.235283 9.610477,5.464025 9.216387,5.837014 
	C9.046820,5.995440 9.052840,5.511508 9.069836,5.270121 
z"/>
<path fill="#DB6A2F" opacity="1.000000" stroke="none" 
	d="
M42.493496,92.013428 
	C37.327854,91.668678 32.627888,91.316086 27.463600,90.626976 
	C26.999617,89.860512 26.999960,89.430557 27.468945,89.000168 
	C38.889545,89.001251 49.845196,88.856544 60.790234,89.132530 
	C62.880627,89.185234 64.929169,90.897484 66.997025,91.844070 
	C65.280403,91.922241 63.563786,92.000412 61.421814,92.139343 
	C54.984035,92.135254 48.971603,92.070419 42.493496,92.013428 
z"/>
<path fill="#E0A661" opacity="1.000000" stroke="none" 
	d="
M73.878677,68.870552 
	C74.036804,69.548698 73.993309,69.971474 73.676025,70.881660 
	C72.923355,71.942413 72.444458,72.515739 71.754150,73.098236 
	C71.542725,73.107399 71.119492,73.106918 70.716187,73.087341 
	C69.773842,73.077415 69.234795,73.087059 68.768738,72.705170 
	C69.286438,70.273331 69.731163,68.233017 70.449188,66.156036 
	C71.085503,66.071579 71.448532,66.023796 71.811554,65.976013 
	C72.433388,66.855728 73.055222,67.735451 73.878677,68.870552 
z"/>
<path fill="#BE6E2E" opacity="1.000000" stroke="none" 
	d="
M73.749916,59.599216 
	C73.605629,59.896576 73.432159,60.175800 72.817162,60.472355 
	C71.657341,60.348293 70.909866,60.188770 69.827728,60.017853 
	C69.050781,60.005100 68.608498,60.003742 68.221222,59.683140 
	C69.183647,57.909210 70.091057,56.454529 71.279243,55.055180 
	C72.274384,55.318501 72.988739,55.526482 73.788086,56.063599 
	C73.934776,56.610783 73.996483,56.828838 74.045547,57.035015 
	C74.032898,57.023140 74.026939,57.031815 73.884926,57.202152 
	C73.754860,57.920410 73.766800,58.468330 73.762177,59.161530 
	C73.745613,59.306805 73.749916,59.599216 73.749916,59.599216 
z"/>
<path fill="#CA7E37" opacity="1.000000" stroke="none" 
	d="
M70.162384,60.029247 
	C70.909866,60.188770 71.657341,60.348293 72.648918,60.653015 
	C72.598953,62.280750 72.304878,63.763287 71.911179,65.610916 
	C71.448532,66.023796 71.085503,66.071579 70.393311,65.712128 
	C70.096886,63.546349 70.129631,61.787800 70.162384,60.029247 
z"/>
<path fill="#C1712F" opacity="1.000000" stroke="none" 
	d="
M77.190445,49.999538 
	C76.921516,51.104015 76.652588,52.208492 75.942123,53.430298 
	C74.997353,53.365887 74.494125,53.184147 73.737045,52.872601 
	C72.971863,52.489902 72.460526,52.237011 72.020859,51.711464 
	C72.360649,50.950283 72.628784,50.461761 73.323914,49.980591 
	C74.897415,49.991806 76.043930,49.995674 77.190445,49.999538 
z"/>
<path fill="#BA662F" opacity="1.000000" stroke="none" 
	d="
M77.248215,49.900429 
	C76.043930,49.995674 74.897415,49.991806 73.315254,49.629841 
	C72.879799,48.569199 72.879997,47.866657 72.956154,46.826889 
	C73.079506,46.265190 73.126900,46.040718 73.341537,45.836010 
	C73.508789,45.855778 73.837852,45.927654 74.129822,45.953072 
	C74.616844,45.989594 74.811913,46.000702 75.248192,46.004608 
	C75.489403,45.997402 75.971703,45.979309 76.123550,46.157791 
	C76.484734,46.568005 76.708282,46.785114 76.984451,47.419044 
	C77.115227,48.424305 77.207596,48.998131 77.299965,49.571953 
	C77.299965,49.571953 77.306000,49.801319 77.248215,49.900429 
z"/>
<path fill="#CD823B" opacity="1.000000" stroke="none" 
	d="
M73.990906,53.002407 
	C74.494125,53.184147 74.997353,53.365887 75.722618,53.696411 
	C75.607018,54.776066 75.269371,55.706936 74.602905,56.904953 
	C74.274078,57.172100 74.058197,57.046890 74.058197,57.046890 
	C73.996483,56.828838 73.934776,56.610783 73.847862,55.729042 
	C73.878746,54.377705 73.934822,53.690056 73.990906,53.002407 
z"/>
<path fill="#C97C36" opacity="1.000000" stroke="none" 
	d="
M77.619003,49.523247 
	C77.207596,48.998131 77.115227,48.424305 77.304718,47.413193 
	C78.010307,46.958832 78.434044,46.941761 78.857788,46.924690 
	C79.100372,47.173370 79.342957,47.422050 79.789116,47.833542 
	C79.307808,48.489082 78.622917,48.981812 77.619003,49.523247 
z"/>
<path fill="#CD823B" opacity="1.000000" stroke="none" 
	d="
M73.943016,59.378929 
	C73.749916,59.599216 73.745613,59.306805 73.890121,58.789490 
	C74.116936,58.022549 74.199257,57.772923 74.283966,57.497337 
	C74.286354,57.471378 74.330727,57.444859 74.330734,57.444859 
	C74.265862,58.016121 74.200989,58.587379 73.943016,59.378929 
z"/>
<path fill="#B65A2A" opacity="1.000000" stroke="none" 
	d="
M74.389015,57.408409 
	C74.330727,57.444859 74.286354,57.471378 74.233261,57.369576 
	C74.180161,57.267776 74.026939,57.031815 74.026939,57.031815 
	C74.026939,57.031815 74.032898,57.023140 74.045547,57.035015 
	C74.058197,57.046890 74.274078,57.172100 74.388763,57.209282 
	C74.503456,57.246464 74.447304,57.371964 74.389015,57.408409 
z"/>
<path fill="#C1712F" opacity="1.000000" stroke="none" 
	d="
M78.884087,46.605553 
	C78.434044,46.941761 78.010307,46.958832 77.266296,46.981750 
	C76.708282,46.785114 76.484734,46.568005 76.276817,45.983654 
	C76.489182,45.404640 76.715935,45.195385 76.958511,45.003265 
	C77.404579,45.004128 77.850655,45.004990 78.630630,45.005543 
	C78.946480,45.432293 78.928429,45.859352 78.884087,46.605553 
z"/>
<path fill="#C44C16" opacity="1.000000" stroke="none" 
	d="
M87.256363,26.829903 
	C87.411179,26.277687 87.869659,25.725174 88.577744,25.060486 
	C88.840050,25.161287 88.852760,25.374266 88.818497,25.991180 
	C88.771523,26.395117 88.745445,26.572411 88.745445,26.572409 
	C88.350311,26.658140 87.955170,26.743874 87.256363,26.829903 
z"/>
<path fill="#D6632D" opacity="1.000000" stroke="none" 
	d="
M88.964188,26.630424 
	C88.745445,26.572411 88.771523,26.395117 88.791061,26.310040 
	C89.032082,26.281229 89.224571,26.389072 89.509399,26.651417 
	C89.630714,26.754339 89.182930,26.688437 88.964188,26.630424 
z"/>
<path fill="#DD6F37" opacity="1.000000" stroke="none" 
	d="
M67.330841,91.893433 
	C64.929169,90.897484 62.880627,89.185234 60.790234,89.132530 
	C49.845196,88.856544 38.889545,89.001251 27.048069,88.999344 
	C23.759302,88.312935 21.360046,87.626892 18.960793,86.940849 
	C19.992199,85.248428 21.023607,83.556007 22.293785,81.884369 
	C22.532555,81.905151 23.002604,81.810509 23.414879,81.881325 
	C25.218098,81.913177 26.609041,81.874214 28.397188,81.898499 
	C29.863239,81.919212 30.932087,81.876694 32.465736,81.897415 
	C42.579350,81.802002 52.378933,83.275307 61.900429,79.397247 
	C62.748909,79.658943 63.372536,79.828285 63.962936,80.368683 
	C62.013119,86.359238 65.755066,87.854660 70.007324,89.354500 
	C70.087669,89.923538 70.120171,90.151108 70.152672,90.378677 
	C69.323334,90.900047 68.493996,91.421425 67.330841,91.893433 
z"/>
<path fill="#E3814B" opacity="1.000000" stroke="none" 
	d="
M70.396912,90.253799 
	C70.120171,90.151108 70.087669,89.923538 70.121277,89.089584 
	C70.717896,87.966583 71.248390,87.449989 71.875847,87.347153 
	C72.037010,88.036865 72.101227,88.312805 72.165451,88.588753 
	C71.657356,89.102142 71.149261,89.615532 70.396912,90.253799 
z"/>
<path fill="#E69260" opacity="1.000000" stroke="none" 
	d="
M72.386230,88.545784 
	C72.101227,88.312805 72.037010,88.036865 71.919304,87.021729 
	C71.919617,85.848129 71.973419,85.413727 72.458771,85.084274 
	C73.177879,85.259743 73.465439,85.330261 73.670914,85.723831 
	C73.429810,86.690842 73.270775,87.334785 73.111748,87.978729 
	C73.111748,87.978729 73.000748,88.175125 73.022522,88.286209 
	C73.044296,88.397301 72.607002,88.502815 72.386230,88.545784 
z"/>
<path fill="#E09A70" opacity="1.000000" stroke="none" 
	d="
M73.752991,85.400772 
	C73.465439,85.330261 73.177879,85.259743 72.455658,84.626434 
	C72.002533,80.405457 71.984047,76.747269 71.965569,73.089073 
	C72.444458,72.515739 72.923355,71.942413 73.623581,71.196564 
	C73.923294,75.400810 74.001671,79.777580 74.024597,84.702408 
	C73.969147,85.250465 73.752991,85.400772 73.752991,85.400772 
z"/>
<path fill="#76706D" opacity="1.000000" stroke="none" 
	d="
M73.670914,85.723831 
	C73.752991,85.400772 73.969147,85.250465 74.074005,85.170349 
	C74.415413,85.881378 74.651947,86.672523 74.870247,87.781204 
	C74.465355,88.072769 74.078697,88.046799 73.401901,87.999779 
	C73.270775,87.334785 73.429810,86.690842 73.670914,85.723831 
z"/>
<path fill="#E49367" opacity="1.000000" stroke="none" 
	d="
M71.007515,20.995399 
	C70.645988,17.960796 70.284454,14.926193 70.217361,11.439230 
	C70.708305,10.977212 70.904816,10.967556 71.101318,10.957901 
	C71.568047,14.041108 72.034775,17.124315 72.225082,20.601068 
	C71.634956,20.996607 71.321236,20.996868 71.007515,20.995399 
z"/>
<path fill="#E2885B" opacity="1.000000" stroke="none" 
	d="
M70.999115,21.396210 
	C71.321236,20.996868 71.634956,20.996607 72.180557,20.990536 
	C72.544403,21.452047 72.676361,21.917639 72.852440,23.096106 
	C72.843842,24.541731 72.791122,25.274481 72.594734,26.163521 
	C72.270370,26.541779 72.105919,26.775198 71.779022,26.797129 
	C71.375183,26.050341 71.150047,25.526489 70.924904,25.002640 
	C70.946838,23.934099 70.968773,22.865559 70.999115,21.396210 
z"/>
<path fill="#766965" opacity="1.000000" stroke="none" 
	d="
M72.738403,26.007231 
	C72.791122,25.274481 72.843842,24.541731 72.944427,23.447014 
	C73.322029,23.830490 73.651764,24.575932 74.023148,25.630096 
	C74.051659,26.116034 74.038506,26.293249 73.800003,26.735588 
	C73.574654,27.000710 73.151031,27.012564 73.052795,26.759100 
	C72.882500,26.339500 72.810448,26.173367 72.738403,26.007231 
z"/>
<path fill="#E69469" opacity="1.000000" stroke="none" 
	d="
M70.017899,9.701427 
	C69.739395,9.804439 69.607445,9.533080 69.696777,9.025932 
	C69.830276,9.049037 69.912407,9.228007 70.017899,9.701427 
z"/>
<path fill="#E69469" opacity="1.000000" stroke="none" 
	d="
M70.987854,10.728635 
	C70.904816,10.967556 70.708305,10.977212 70.214966,10.996738 
	C69.926277,10.830347 69.934410,10.654088 69.992050,10.217840 
	C70.319160,10.138356 70.596771,10.318862 70.987854,10.728635 
z"/>
<path fill="#B55D2C" opacity="1.000000" stroke="none" 
	d="
M77.031914,44.693008 
	C76.715935,45.195385 76.489182,45.404640 76.124969,45.805172 
	C75.971703,45.979309 75.489403,45.997402 75.227737,45.699593 
	C74.950203,45.198700 74.934334,44.995613 74.914612,44.459549 
	C74.901596,43.681187 74.892441,43.235809 74.937798,42.529785 
	C75.019157,42.093655 75.046005,41.918171 75.072861,41.742687 
	C75.072861,41.742687 75.399536,41.786320 75.559830,41.820282 
	C76.228867,41.892323 76.737610,41.930401 77.627945,41.986900 
	C77.708138,42.797798 77.406731,43.590271 77.031914,44.693008 
z"/>
<path fill="#2D2A31" opacity="1.000000" stroke="none" 
	d="
M76.826050,38.317413 
	C76.533318,37.901981 76.321190,37.215286 76.160553,36.253036 
	C76.553055,35.974583 76.894051,35.971687 77.490906,35.967968 
	C77.466721,36.660149 77.186684,37.353153 76.826050,38.317413 
z"/>
<path fill="#5F5654" opacity="1.000000" stroke="none" 
	d="
M75.051743,41.367641 
	C75.046005,41.918171 75.019157,42.093655 74.775040,42.288124 
	C74.357300,41.549850 74.156830,40.792587 73.970680,39.613323 
	C74.056870,38.060181 74.128738,36.929047 74.200607,35.797909 
	C74.477280,37.529469 74.753952,39.261032 75.051743,41.367641 
z"/>
<path fill="#67453C" opacity="1.000000" stroke="none" 
	d="
M74.170654,35.450699 
	C74.128738,36.929047 74.056870,38.060181 73.757904,39.598358 
	C73.530815,40.005402 73.104202,39.979324 73.066925,39.581532 
	C72.973625,38.118565 72.917603,37.053394 72.909958,35.618649 
	C73.022659,34.507519 73.086975,33.765965 73.357788,33.021797 
	C73.564285,33.019192 73.977150,33.007641 73.977150,33.007641 
	C74.031670,33.706257 74.086197,34.404873 74.170654,35.450699 
z"/>
<path fill="#6C534C" opacity="1.000000" stroke="none" 
	d="
M74.060043,32.764587 
	C73.977150,33.007641 73.564285,33.019192 73.300705,32.684174 
	C72.981567,31.897017 72.926010,31.444878 72.940765,30.745289 
	C73.059860,30.333427 73.108643,30.169018 73.367157,30.002586 
	C73.576897,30.000563 73.996391,30.001863 73.996399,30.001863 
	C74.045242,30.841751 74.094093,31.681641 74.060043,32.764587 
z"/>
<path fill="#705D59" opacity="1.000000" stroke="none" 
	d="
M73.998558,29.626400 
	C73.996391,30.001863 73.576897,30.000563 73.323975,29.630070 
	C73.097717,28.510572 73.124374,27.761568 73.151031,27.012564 
	C73.151031,27.012564 73.574654,27.000710 73.785782,27.001762 
	C73.998184,27.752190 73.999458,28.501564 73.998558,29.626400 
z"/>
<path fill="#281714" opacity="1.000000" stroke="none" 
	d="
M5.321506,22.097145 
	C5.359534,19.896523 5.690161,17.876413 6.042501,15.473048 
	C6.781322,14.172968 7.498431,13.256144 8.535765,12.402344 
	C9.141285,12.713648 9.426579,12.961925 9.711875,13.210201 
	C9.544065,13.447315 9.376253,13.684430 9.389893,14.109470 
	C9.571342,14.297398 9.634573,14.647715 9.634573,14.647715 
	C9.746368,18.472731 9.858165,22.297745 10.055120,25.837273 
	C10.140279,25.551783 10.012564,25.723200 9.986140,25.695610 
	C9.622146,25.844070 9.284575,26.020121 8.703884,26.453453 
	C8.262814,27.139151 8.064866,27.567572 7.866918,27.995993 
	C7.115981,26.089882 6.365043,24.183771 5.321506,22.097145 
z"/>
<path fill="#C84817" opacity="1.000000" stroke="none" 
	d="
M12.880420,83.928635 
	C12.414131,84.801270 11.947844,85.673912 11.319620,86.798126 
	C11.157684,87.049698 10.912475,86.757378 10.912971,86.104156 
	C10.917655,83.318344 10.921844,81.185760 10.847200,78.636475 
	C10.696369,77.946365 10.624371,77.672958 10.470064,77.096359 
	C10.467031,76.178589 10.546306,75.564018 10.985382,75.125366 
	C11.856929,78.177063 12.368674,81.052849 12.880420,83.928635 
z"/>
<path fill="#5B1F0F" opacity="1.000000" stroke="none" 
	d="
M10.625581,74.949448 
	C10.546306,75.564018 10.467031,76.178589 10.326822,77.202972 
	C10.265888,77.612778 9.976165,77.826126 9.976165,77.826126 
	C9.667689,75.483528 9.359213,73.140938 9.282837,70.397903 
	C9.514937,69.997467 9.930737,70.015167 10.001518,70.306023 
	C10.263081,71.164307 10.453860,71.731743 10.572504,72.628975 
	C10.542105,73.622337 10.583843,74.285889 10.625581,74.949448 
z"/>
<path fill="#36150E" opacity="1.000000" stroke="none" 
	d="
M8.855692,52.987652 
	C8.580187,50.923985 8.304682,48.860313 8.265680,46.396942 
	C8.502183,45.997234 8.944383,46.009197 9.011371,46.341827 
	C9.210123,47.786629 9.341887,48.898796 9.402751,50.321049 
	C9.367892,51.255550 9.403934,51.879971 9.285677,52.615261 
	C9.131381,52.726131 8.855692,52.987652 8.855692,52.987652 
z"/>
<path fill="#632010" opacity="1.000000" stroke="none" 
	d="
M8.090389,34.982952 
	C8.077456,33.904408 8.064523,32.825863 8.527452,31.217985 
	C9.294355,30.584997 9.585399,30.481344 9.867289,30.448481 
	C9.858135,30.519270 9.783825,30.642328 9.816988,30.865784 
	C9.850151,31.089237 9.972552,31.524147 9.808937,31.923605 
	C9.624656,32.895874 9.603992,33.468689 9.598846,34.167747 
	C9.614367,34.293999 9.845804,34.399620 9.588784,34.521484 
	C9.179694,34.756641 9.027625,34.869930 8.679263,34.984093 
	C8.482971,34.984966 8.090389,34.982952 8.090389,34.982952 
z"/>
<path fill="#A83815" opacity="1.000000" stroke="none" 
	d="
M10.926033,79.053169 
	C10.921844,81.185760 10.917655,83.318344 10.870992,85.918060 
	C10.567666,84.196167 10.306814,82.007149 10.295115,79.416374 
	C10.544266,79.014610 10.926033,79.053169 10.926033,79.053169 
z"/>
<path fill="#47170B" opacity="1.000000" stroke="none" 
	d="
M8.944384,46.009197 
	C8.944383,46.009197 8.502183,45.997234 8.281793,45.988956 
	C8.052968,44.267815 8.044534,42.554951 8.256061,40.422653 
	C8.476021,40.003223 8.888604,40.018162 8.950610,40.370369 
	C9.210587,41.647636 9.408557,42.572697 9.475891,43.725342 
	C9.211631,44.638355 9.078007,45.323776 8.944384,46.009197 
z"/>
<path fill="#6C2410" opacity="1.000000" stroke="none" 
	d="
M9.930737,70.015167 
	C9.930737,70.015167 9.514937,69.997467 9.308388,69.985291 
	C9.087163,68.582947 9.072487,67.192772 9.277056,65.403748 
	C9.496302,65.004883 9.864019,65.035309 9.929154,65.369827 
	C10.084342,66.149574 10.174395,66.594803 10.217333,67.411392 
	C10.090392,68.526886 10.010565,69.271027 9.930737,70.015167 
z"/>
<path fill="#561B0D" opacity="1.000000" stroke="none" 
	d="
M8.888604,40.018162 
	C8.888604,40.018162 8.476021,40.003223 8.270782,39.994255 
	C8.054462,38.596149 8.043380,37.207020 8.061343,35.400421 
	C8.090389,34.982952 8.482971,34.984966 8.774418,35.220337 
	C9.136118,35.610287 9.206371,35.764858 9.238855,36.261803 
	C9.234463,37.061279 9.267838,37.518383 9.225109,38.314491 
	C9.062204,39.108391 8.975405,39.563274 8.888604,40.018162 
z"/>
<path fill="#7F2810" opacity="1.000000" stroke="none" 
	d="
M9.864019,65.035309 
	C9.864019,65.035309 9.496302,65.004883 9.313562,64.987183 
	C9.110160,63.904343 9.089497,62.839207 9.291158,61.391273 
	C9.513482,61.008484 9.876276,61.035778 9.909924,61.434540 
	C9.917055,62.900639 9.890537,63.967976 9.864019,65.035309 
z"/>
<path fill="#8E2D15" opacity="1.000000" stroke="none" 
	d="
M9.876276,61.035778 
	C9.876276,61.035778 9.513482,61.008484 9.332988,60.993210 
	C9.123441,59.911598 9.094389,58.845261 9.296839,57.393589 
	C9.528340,57.008251 9.896388,57.030956 9.921026,57.430393 
	C9.922535,58.898479 9.899405,59.967129 9.876276,61.035778 
z"/>
<path fill="#9A3116" opacity="1.000000" stroke="none" 
	d="
M9.896388,57.030956 
	C9.896388,57.030956 9.528340,57.008251 9.345054,56.995811 
	C9.091671,55.916794 9.021576,54.850212 8.903585,53.385643 
	C8.855692,52.987652 9.131381,52.726131 9.408047,53.063675 
	C9.755271,54.611134 9.825830,55.821045 9.896388,57.030956 
z"/>
<path fill="#752512" opacity="1.000000" stroke="none" 
	d="
M9.876443,30.377691 
	C9.585399,30.481344 9.294355,30.584997 8.558329,30.814297 
	C8.059191,30.203827 8.005035,29.467709 7.908898,28.363792 
	C8.064866,27.567572 8.262814,27.139151 8.834204,27.090002 
	C9.407910,28.291681 9.608174,29.114088 9.866609,29.995647 
	C9.924778,30.054796 9.876443,30.377691 9.876443,30.377691 
z"/>
<path fill="#B63F17" opacity="1.000000" stroke="none" 
	d="
M10.847200,78.636475 
	C10.926033,79.053169 10.544266,79.014610 10.353092,78.998543 
	C10.124063,78.791473 10.086206,78.600464 10.012258,78.117798 
	C9.976165,77.826126 10.265888,77.612778 10.409130,77.506165 
	C10.624371,77.672958 10.696369,77.946365 10.847200,78.636475 
z"/>
<path fill="#DB6B32" opacity="1.000000" stroke="none" 
	d="
M10.985382,75.125366 
	C10.583843,74.285889 10.542105,73.622337 10.807497,72.337418 
	C11.107952,70.148506 11.101277,68.580963 11.077465,66.575775 
	C11.069916,64.096779 11.079503,62.055416 11.089090,60.014053 
	C11.726627,56.971279 12.364163,53.928509 13.401655,50.442596 
	C14.867520,49.999893 15.933430,50.000328 16.999340,50.000763 
	C16.999340,50.000763 17.000000,50.000000 17.094059,50.329365 
	C18.803768,53.145176 20.419420,55.631618 21.861559,58.460976 
	C21.476124,60.824528 21.264198,62.845169 21.144768,65.120544 
	C21.472294,65.863586 21.707327,66.351883 21.634342,67.081467 
	C21.236835,71.433090 21.096441,75.543541 21.104929,79.653679 
	C21.106451,80.390968 21.722631,81.126984 22.055016,81.863586 
	C21.023607,83.556007 19.992199,85.248428 18.960793,86.940849 
	C21.360046,87.626892 23.759302,88.312935 26.579432,88.999786 
	C26.999960,89.430557 26.999617,89.860512 26.998802,90.611885 
	C23.977322,90.946762 20.956308,90.960213 17.484917,90.949936 
	C15.765745,88.795967 14.496951,86.665726 13.054289,84.232056 
	C12.368674,81.052849 11.856929,78.177063 10.985382,75.125366 
z"/>
<path fill="#D96732" opacity="1.000000" stroke="none" 
	d="
M22.035070,58.118065 
	C20.419420,55.631618 18.803768,53.145176 17.093708,50.329712 
	C17.414423,50.008469 17.829548,50.016235 18.597874,50.012299 
	C18.951075,50.000587 19.029505,49.956306 19.179768,50.227699 
	C20.215652,51.353619 21.101276,52.208153 22.133995,53.333935 
	C23.539970,53.722843 24.798851,53.840500 26.505140,53.964577 
	C29.656126,53.998413 32.359703,54.025829 35.424034,54.235756 
	C41.854092,54.946213 47.923393,55.474155 53.996490,56.312332 
	C54.005764,57.036209 54.011246,57.449852 53.551582,57.933449 
	C42.735977,58.041622 32.385525,58.079842 22.035070,58.118065 
z"/>
<path fill="#A83C15" opacity="1.000000" stroke="none" 
	d="
M17.170904,30.063068 
	C17.154114,28.972651 17.137323,27.882231 17.390692,26.250071 
	C18.173586,25.455936 18.686319,25.203547 19.238041,25.384995 
	C19.533482,28.042273 19.789936,30.265711 19.924501,32.926140 
	C19.874933,34.248409 19.947254,35.133686 19.850357,36.427643 
	C19.874081,40.598789 20.067020,44.361252 19.910606,48.116142 
	C19.328293,48.108002 19.095333,48.107437 18.862375,48.106869 
	C18.573915,42.731365 18.285456,37.355865 17.870525,31.339407 
	C17.569952,30.471369 17.378901,30.259573 17.170904,30.063068 
z"/>
<path fill="#C34716" opacity="1.000000" stroke="none" 
	d="
M11.065499,59.559666 
	C11.079503,62.055416 11.069916,64.096779 10.869574,66.582550 
	C10.678820,67.026947 10.264447,67.040031 10.264447,67.040031 
	C10.174395,66.594803 10.084342,66.149574 9.929154,65.369827 
	C9.890537,63.967976 9.917055,62.900639 9.909924,61.434540 
	C9.899405,59.967129 9.922535,58.898479 9.921026,57.430393 
	C9.825830,55.821045 9.755271,54.611134 9.562344,52.952805 
	C9.403934,51.879971 9.367892,51.255550 9.764722,50.323273 
	C10.437623,50.017872 10.677654,50.020332 10.917686,50.022797 
	C10.959093,53.050289 11.000501,56.077785 11.065499,59.559666 
z"/>
<path fill="#B0401A" opacity="1.000000" stroke="none" 
	d="
M19.199055,24.951157 
	C18.686319,25.203547 18.173586,25.455936 17.410885,25.841465 
	C17.398876,23.258192 17.636831,20.541784 18.362984,17.481621 
	C19.116404,17.169996 19.381628,17.202124 19.575287,17.652676 
	C19.402164,20.364452 19.300610,22.657804 19.199055,24.951157 
z"/>
<path fill="#C94D18" opacity="1.000000" stroke="none" 
	d="
M10.939711,49.577656 
	C10.677654,50.020332 10.437623,50.017872 9.835622,50.013191 
	C9.341887,48.898796 9.210123,47.786629 9.011372,46.341827 
	C9.078007,45.323776 9.211631,44.638355 9.693740,43.475227 
	C10.332024,42.671833 10.621823,42.346142 10.911622,42.020454 
	C10.928327,44.391140 10.945031,46.761829 10.939711,49.577656 
z"/>
<path fill="#D96732" opacity="1.000000" stroke="none" 
	d="
M16.948416,49.684418 
	C15.933430,50.000328 14.867520,49.999893 13.401978,49.999115 
	C13.968814,47.738708 14.993387,45.837482 16.948416,49.684418 
z"/>
<path fill="#C04719" opacity="1.000000" stroke="none" 
	d="
M10.924564,41.620712 
	C10.621823,42.346142 10.332024,42.671833 9.824377,43.247639 
	C9.408557,42.572697 9.210587,41.647636 8.950610,40.370369 
	C8.975405,39.563274 9.062204,39.108391 9.493700,38.320560 
	C10.196089,38.001213 10.553782,38.014809 10.911474,38.028404 
	C10.920152,39.092594 10.928829,40.156780 10.924564,41.620712 
z"/>
<path fill="#C94D18" opacity="1.000000" stroke="none" 
	d="
M10.934712,37.626900 
	C10.553782,38.014809 10.196089,38.001213 9.569804,37.981552 
	C9.267838,37.518383 9.234463,37.061279 9.356621,36.018753 
	C9.623370,35.088757 9.734588,34.744186 9.845804,34.399620 
	C9.845804,34.399620 9.614367,34.293999 9.942130,34.160328 
	C10.496645,34.023090 10.723397,34.019527 10.950151,34.015961 
	C10.952751,35.085770 10.955351,36.155582 10.934712,37.626900 
z"/>
<path fill="#D05319" opacity="1.000000" stroke="none" 
	d="
M10.021948,12.713255 
	C9.426579,12.961925 9.141285,12.713648 8.727103,12.183615 
	C8.711962,11.708134 8.825706,11.514408 9.176488,10.930384 
	C9.566382,10.374125 9.636812,10.178345 9.624813,9.952742 
	C9.932811,9.712428 10.240808,9.472116 10.779688,9.048494 
	C10.784386,9.982228 10.558204,11.099269 10.021948,12.713255 
z"/>
<path fill="#C55D25" opacity="1.000000" stroke="none" 
	d="
M19.986563,14.888610 
	C20.175470,14.665888 20.385448,14.465216 20.792625,14.159243 
	C20.968752,14.031891 21.045317,14.020016 21.036985,14.339603 
	C20.704300,15.473125 20.379944,16.287058 20.042698,16.732994 
	C20.015390,15.872868 20.000977,15.380738 19.986563,14.888610 
z"/>
<path fill="#BD4E1E" opacity="1.000000" stroke="none" 
	d="
M19.749580,15.063249 
	C20.000977,15.380738 20.015390,15.872868 19.944550,16.778671 
	C19.859293,17.192347 19.646854,17.234251 19.646854,17.234251 
	C19.381628,17.202124 19.116404,17.169996 18.453711,17.090763 
	C18.541695,16.441734 19.027147,15.839810 19.749580,15.063249 
z"/>
<path fill="#6C2410" opacity="1.000000" stroke="none" 
	d="
M9.972552,31.524147 
	C9.972552,31.524147 9.850151,31.089237 9.780825,30.906382 
	C9.711498,30.723526 9.608416,30.712271 9.748394,30.815464 
	C9.888373,30.918655 10.233259,30.963657 10.233259,30.963657 
	C10.233259,30.963657 10.298451,31.263388 10.227450,31.259880 
	C10.156449,31.256371 9.972552,31.524147 9.972552,31.524147 
z"/>
<path fill="#B04C21" opacity="1.000000" stroke="none" 
	d="
M18.873341,48.428223 
	C19.095333,48.107437 19.328293,48.108002 19.938917,48.194355 
	C20.316584,48.280140 20.348770,48.447636 20.141430,48.710197 
	C19.632563,49.300610 19.331034,49.628456 19.029505,49.956306 
	C19.029505,49.956306 18.951075,50.000587 18.909180,50.019539 
	C18.872959,49.608856 18.878633,49.179218 18.873341,48.428223 
z"/>
<path fill="#D05319" opacity="1.000000" stroke="none" 
	d="
M9.808937,31.923605 
	C9.972552,31.524147 10.156449,31.256371 10.309062,31.213787 
	C10.596979,31.800467 10.732285,32.429733 10.908870,33.537479 
	C10.723397,34.019527 10.496645,34.023090 9.926610,34.034081 
	C9.603992,33.468689 9.624656,32.895874 9.808937,31.923605 
z"/>
<path fill="#6C2410" opacity="1.000000" stroke="none" 
	d="
M9.616865,14.535510 
	C9.634573,14.647715 9.571342,14.297398 9.600532,14.247791 
	C9.629722,14.198185 9.599158,14.423306 9.616865,14.535510 
z"/>
<path fill="#C04719" opacity="1.000000" stroke="none" 
	d="
M10.346380,29.618298 
	C10.233259,30.963657 9.888373,30.918655 9.594578,30.611639 
	C9.417580,30.183601 9.534378,30.062580 9.729612,28.885948 
	C9.876220,27.127958 9.944391,26.425579 10.012564,25.723200 
	C10.012564,25.723200 10.140279,25.551783 10.215561,25.564888 
	C10.347062,26.476307 10.403282,27.374620 10.346380,29.618298 
z"/>
<path fill="#B0401A" opacity="1.000000" stroke="none" 
	d="
M17.276371,30.251049 
	C17.378901,30.259573 17.569952,30.471369 17.867479,30.875610 
	C17.757370,30.878452 17.554348,30.673872 17.276371,30.251049 
z"/>
<path fill="#DB9D5B" opacity="1.000000" stroke="none" 
	d="
M41.030243,13.098442 
	C45.042309,13.051531 49.054371,13.004620 53.527733,12.929689 
	C55.803253,12.800676 57.617485,12.699681 59.878780,12.973240 
	C60.552414,13.587000 60.792645,13.811587 61.046543,14.021555 
	C61.046543,14.021555 60.980087,13.998703 61.094963,14.255301 
	C61.825722,15.004004 62.441608,15.496111 63.057495,15.988216 
	C63.057495,15.988216 63.003967,16.003628 62.998184,16.447636 
	C63.005615,21.919786 63.018826,26.947929 62.778599,32.070660 
	C61.397713,30.897209 60.361645,29.530619 59.123199,28.382290 
	C56.772579,26.202713 54.306053,24.148140 51.616875,21.930080 
	C50.227306,21.909485 49.108543,22.000452 47.790016,22.105057 
	C47.590252,22.118692 47.189175,22.105425 47.122742,21.696939 
	C47.393608,16.921528 45.471016,14.682972 40.998978,14.558333 
	C41.013165,13.876721 41.021702,13.487581 41.030243,13.098442 
z"/>
<path fill="#DA6838" opacity="1.000000" stroke="none" 
	d="
M70.614777,24.873100 
	C71.150047,25.526489 71.375183,26.050341 71.793671,27.191395 
	C72.005981,28.861677 72.024956,29.914757 72.027756,31.389370 
	C72.009048,33.207222 72.006516,34.603542 71.983734,36.003212 
	C71.963478,36.006557 71.923721,36.016792 71.592377,35.944061 
	C69.223289,35.921921 67.185547,35.972511 65.107300,35.615665 
	C64.989861,34.118061 64.912903,33.027897 64.873627,31.493492 
	C64.998062,28.372499 65.084808,25.695745 65.171555,23.018993 
	C66.882584,23.593849 68.593620,24.168705 70.614777,24.873100 
z"/>
<path fill="#E6B076" opacity="1.000000" stroke="none" 
	d="
M65.123703,22.628222 
	C65.084808,25.695745 64.998062,28.372499 64.573349,31.504494 
	C63.834270,31.965183 63.433155,31.970629 63.032036,31.976074 
	C63.018826,26.947929 63.005615,21.919786 63.009026,16.421978 
	C63.709049,18.047359 64.392456,20.142405 65.123703,22.628222 
z"/>
<path fill="#E6B076" opacity="1.000000" stroke="none" 
	d="
M62.975910,15.685381 
	C62.441608,15.496111 61.825722,15.004004 61.106659,14.222168 
	C61.633762,14.415806 62.264046,14.899175 62.975910,15.685381 
z"/>
<path fill="#E6B076" opacity="1.000000" stroke="none" 
	d="
M60.907764,13.813894 
	C60.792645,13.811587 60.552414,13.587000 60.161491,13.163609 
	C60.294525,13.138977 60.551807,13.347913 60.907764,13.813894 
z"/>
<path fill="#D4904A" opacity="1.000000" stroke="none" 
	d="
M19.575287,17.652676 
	C19.646854,17.234251 19.859293,17.192347 19.957441,17.146667 
	C20.379944,16.287058 20.704300,15.473125 21.073967,14.328065 
	C22.191727,13.713507 23.264175,13.430075 24.603439,13.462206 
	C23.978355,18.533398 26.861530,17.816767 29.904064,17.501616 
	C31.942501,17.290470 34.060848,17.850826 36.091530,18.385475 
	C35.972828,19.132263 35.906040,19.559542 35.441261,19.990421 
	C29.082870,19.263716 27.367102,24.113922 24.643896,27.762663 
	C23.340448,29.509109 21.592834,30.924059 20.046391,32.489151 
	C19.789936,30.265711 19.533482,28.042273 19.238041,25.384995 
	C19.300610,22.657804 19.402164,20.364452 19.575287,17.652676 
z"/>
<path fill="#D69450" opacity="1.000000" stroke="none" 
	d="
M36.143440,18.065966 
	C34.060848,17.850826 31.942501,17.290470 29.904064,17.501616 
	C26.861530,17.816767 23.978355,18.533398 24.942226,13.456903 
	C30.040089,13.103870 35.065983,13.071703 40.561058,13.068989 
	C41.021702,13.487581 41.013165,13.876721 40.744125,14.687440 
	C39.676678,15.903390 38.869724,16.697762 37.789299,17.591621 
	C37.346970,17.786537 37.178108,17.881964 36.792969,18.001190 
	C36.576687,18.024994 36.143440,18.065966 36.143440,18.065966 
z"/>
<path fill="#1F1E25" opacity="1.000000" stroke="none" 
	d="
M7.238910,8.910470 
	C7.245616,8.434033 7.415628,7.987635 7.717039,7.344605 
	C7.839549,7.561109 7.830659,7.974243 7.774874,8.696197 
	C7.727979,9.005015 7.402215,8.940508 7.238910,8.910470 
z"/>
<path fill="#3E3D3D" opacity="1.000000" stroke="none" 
	d="
M8.755542,9.736422 
	C8.655586,9.738195 8.450299,9.549628 8.145803,9.163735 
	C8.237981,9.171078 8.439185,9.364302 8.755542,9.736422 
z"/>
<path fill="#3E3D3D" opacity="1.000000" stroke="none" 
	d="
M9.489756,9.989271 
	C9.636812,10.178345 9.566382,10.374125 9.276249,10.608515 
	C9.138974,10.676946 9.082426,10.391450 9.083900,10.246595 
	C9.085376,10.101742 9.354697,10.025801 9.489756,9.989271 
z"/>
<path fill="#E1763D" opacity="1.000000" stroke="none" 
	d="
M71.754150,73.098236 
	C71.984047,76.747269 72.002533,80.405457 72.024124,84.521492 
	C71.973419,85.413727 71.919617,85.848129 71.822350,86.607956 
	C71.248390,87.449989 70.717896,87.966583 70.073441,88.748108 
	C65.755066,87.854660 62.013119,86.359238 63.929165,79.963226 
	C63.857925,78.375908 63.787235,77.565102 63.821892,76.474533 
	C64.098381,75.833221 64.269531,75.471687 64.641815,75.173698 
	C65.238831,75.379311 65.634712,75.521370 66.160866,75.874626 
	C66.862564,76.043869 67.433998,76.001915 68.010834,75.985039 
	C68.016243,76.010124 67.966789,75.996407 68.160851,75.848480 
	C68.601357,75.484818 68.814812,75.240273 68.995102,74.992523 
	C68.994926,75.018120 68.951340,74.991264 69.205093,74.850174 
	C70.012390,74.175026 70.565941,73.640968 71.119492,73.106918 
	C71.119492,73.106918 71.542725,73.107399 71.754150,73.098236 
z"/>
<path fill="#B6602D" opacity="1.000000" stroke="none" 
	d="
M66.030602,75.663422 
	C65.634712,75.521370 65.238831,75.379311 64.508034,75.136848 
	C64.173119,75.036446 63.910629,74.962379 64.053528,74.518669 
	C64.381050,73.480927 64.565681,72.886887 64.752365,72.312721 
	C64.754417,72.332588 64.757896,72.411270 64.779739,71.984512 
	C64.803993,70.703888 64.806396,69.850029 64.853149,68.620323 
	C65.250664,66.823326 65.603844,65.402176 66.203033,63.966881 
	C66.624092,63.298393 66.799149,62.644043 67.058029,61.705315 
	C67.483307,60.948090 67.824760,60.475243 68.166214,60.002388 
	C68.608498,60.003742 69.050781,60.005100 69.827728,60.017853 
	C70.129631,61.787800 70.096886,63.546349 70.120010,65.748802 
	C69.731163,68.233017 69.286438,70.273331 68.751656,73.026169 
	C68.758179,74.156219 68.854759,74.573738 68.951340,74.991264 
	C68.951340,74.991264 68.994926,75.018120 68.750168,75.078728 
	C68.325874,75.425026 68.146332,75.710716 67.966789,75.996407 
	C67.966789,75.996407 68.016243,76.010124 67.693230,75.875053 
	C66.923676,75.714462 66.477142,75.688942 66.030602,75.663422 
z"/>
<path fill="#E09C56" opacity="1.000000" stroke="none" 
	d="
M69.205093,74.850174 
	C68.854759,74.573738 68.758179,74.156219 68.678680,73.417694 
	C69.234795,73.087059 69.773842,73.077415 70.716187,73.087341 
	C70.565941,73.640968 70.012390,74.175026 69.205093,74.850174 
z"/>
<path fill="#A01E07" opacity="1.000000" stroke="none" 
	d="
M68.221222,59.683144 
	C67.824760,60.475243 67.483307,60.948090 66.868195,61.915863 
	C66.382027,62.934193 66.169518,63.457603 65.957016,63.981014 
	C65.603844,65.402176 65.250664,66.823326 64.503372,68.620605 
	C63.176094,68.991737 62.242947,68.986763 61.318909,68.653969 
	C62.188313,64.874321 63.048603,61.422485 64.113007,57.769218 
	C64.468239,57.026360 64.619347,56.484932 64.933441,55.635635 
	C65.408844,54.224945 65.721260,53.122120 66.300919,51.876396 
	C67.401207,51.161194 68.234245,50.588894 69.332855,50.138405 
	C70.071671,50.853195 70.544922,51.446175 71.019501,52.409252 
	C71.013382,53.519516 71.005920,54.259678 70.998459,54.999844 
	C70.091057,56.454529 69.183647,57.909210 68.221222,59.683144 
z"/>
<path fill="#B65A2A" opacity="1.000000" stroke="none" 
	d="
M71.279236,55.055180 
	C71.005920,54.259678 71.013382,53.519516 71.251678,52.386665 
	C71.482521,51.993984 71.949196,51.984123 71.949196,51.984123 
	C72.460526,52.237011 72.971863,52.489902 73.737045,52.872601 
	C73.934822,53.690056 73.878746,54.377705 73.762878,55.399910 
	C72.988739,55.526482 72.274384,55.318501 71.279236,55.055180 
z"/>
<path fill="#CA7E37" opacity="1.000000" stroke="none" 
	d="
M73.884926,57.202152 
	C74.026939,57.031815 74.180161,57.267776 74.230865,57.395538 
	C74.199257,57.772923 74.116936,58.022549 73.906685,58.644211 
	C73.766800,58.468330 73.754860,57.920410 73.884926,57.202152 
z"/>
<path fill="#AA220A" opacity="1.000000" stroke="none" 
	d="
M72.020859,51.711464 
	C71.949196,51.984123 71.482521,51.993984 71.250351,52.016571 
	C70.544922,51.446175 70.071671,50.853195 69.314690,49.803539 
	C69.026314,48.900173 69.021675,48.453480 69.180809,47.839203 
	C69.562859,47.447895 69.788254,47.231586 70.354309,47.015709 
	C71.132912,46.997425 71.577972,46.986126 72.236290,47.026855 
	C72.449539,47.078884 72.880196,47.164116 72.880196,47.164116 
	C72.879997,47.866657 72.879799,48.569199 72.888260,49.622490 
	C72.628784,50.461761 72.360649,50.950283 72.020859,51.711464 
z"/>
<path fill="#744032" opacity="1.000000" stroke="none" 
	d="
M73.104202,39.979324 
	C73.104202,39.979324 73.530815,40.005402 73.743591,40.020363 
	C74.156830,40.792587 74.357300,41.549850 74.720520,42.548771 
	C74.892441,43.235809 74.901596,43.681187 74.721375,44.636795 
	C74.300606,45.407238 74.069229,45.667446 73.837852,45.927654 
	C73.837852,45.927654 73.508789,45.855778 73.302536,45.530052 
	C73.025665,44.797878 72.955048,44.391434 72.911804,43.608154 
	C72.898346,42.477024 72.857513,41.722733 72.884109,40.719864 
	C73.002426,40.307308 73.053314,40.143318 73.104202,39.979324 
z"/>
<path fill="#C1482D" opacity="1.000000" stroke="none" 
	d="
M72.884430,43.984985 
	C72.955048,44.391434 73.025665,44.797878 73.135284,45.510284 
	C73.126900,46.040718 73.079506,46.265190 72.956154,46.826889 
	C72.880196,47.164116 72.449539,47.078884 72.233086,46.658478 
	C72.002754,45.501446 71.988884,44.764820 71.991150,44.013924 
	C72.007294,43.999653 72.039375,43.970863 72.250610,43.976101 
	C72.461845,43.981339 72.884430,43.984985 72.884430,43.984985 
z"/>
<path fill="#B65A2A" opacity="1.000000" stroke="none" 
	d="
M74.129822,45.953072 
	C74.069229,45.667446 74.300606,45.407238 74.725227,44.969780 
	C74.934334,44.995613 74.950203,45.198700 74.986526,45.706795 
	C74.811913,46.000702 74.616844,45.989594 74.129822,45.953072 
z"/>
<path fill="#D7D5DF" opacity="1.000000" stroke="none" 
	d="
M61.675571,79.304893 
	C52.378933,83.275307 42.579350,81.802002 32.508499,81.548325 
	C32.215130,78.193161 32.343807,75.250313 32.492805,71.842766 
	C34.920216,71.687325 38.760284,72.020859 39.434437,67.101334 
	C42.892902,66.735298 45.916939,66.429520 49.123131,66.461777 
	C49.477802,68.541115 49.650322,70.282433 49.669682,72.151947 
	C49.317989,72.458344 49.132397,72.649117 49.027439,72.904434 
	C49.095131,72.956383 49.071945,73.125458 48.622032,73.067169 
	C45.156242,73.008881 42.140366,73.008881 39.124493,73.008881 
	C39.142002,73.570992 39.159512,74.133110 39.177017,74.695221 
	C42.489937,74.695221 45.802853,74.695221 49.536392,74.727188 
	C51.646263,74.786087 53.335510,74.813019 55.131241,75.116470 
	C55.780067,75.572548 56.322403,75.752113 57.152626,76.105057 
	C58.642033,76.852386 59.843548,77.426331 61.189770,78.332672 
	C61.448174,78.878349 61.561874,79.091621 61.675571,79.304893 
z"/>
<path fill="#D7D5DF" opacity="1.000000" stroke="none" 
	d="
M39.000008,67.161598 
	C38.760284,72.020859 34.920216,71.687325 32.492805,71.842766 
	C32.343807,75.250313 32.215130,78.193161 32.043694,81.485092 
	C30.932087,81.876694 29.863239,81.919212 28.339251,81.588943 
	C25.794779,77.618462 24.425030,79.930817 23.002604,81.810509 
	C23.002604,81.810509 22.532555,81.905151 22.293785,81.884369 
	C21.722631,81.126984 21.106451,80.390968 21.104929,79.653679 
	C21.096441,75.543541 21.236835,71.433090 22.102982,67.139290 
	C28.253094,67.024422 33.626553,67.093010 39.000008,67.161598 
z"/>
<path fill="#D7D5DF" opacity="1.000000" stroke="none" 
	d="
M23.414879,81.881325 
	C24.425030,79.930817 25.794779,77.618462 27.942047,81.525703 
	C26.609041,81.874214 25.218098,81.913177 23.414879,81.881325 
z"/>
<path fill="#D4622F" opacity="1.000000" stroke="none" 
	d="
M61.900429,79.397247 
	C61.561874,79.091621 61.448174,78.878349 61.316097,78.073227 
	C61.375443,77.305420 61.453171,77.129471 61.610222,76.705559 
	C61.810200,76.332848 61.930859,76.208092 62.310631,76.238205 
	C62.952015,76.513474 63.334278,76.633888 63.716545,76.754303 
	C63.787235,77.565102 63.857925,78.375908 63.962387,79.592163 
	C63.372536,79.828285 62.748909,79.658943 61.900429,79.397247 
z"/>
<path fill="#C78261" opacity="1.000000" stroke="none" 
	d="
M72.043930,30.967834 
	C72.024956,29.914757 72.005981,28.861677 71.972366,27.414333 
	C72.105919,26.775198 72.270370,26.541779 72.594727,26.163521 
	C72.810448,26.173367 72.882500,26.339500 73.052795,26.759100 
	C73.124374,27.761568 73.097717,28.510572 73.114243,29.632092 
	C73.108643,30.169018 73.059860,30.333427 72.734772,30.741381 
	C72.458466,30.984924 72.043930,30.967834 72.043930,30.967834 
z"/>
<path fill="#CA6742" opacity="1.000000" stroke="none" 
	d="
M73.066925,39.581532 
	C73.053314,40.143318 73.002426,40.307308 72.682785,40.715038 
	C72.414017,40.958782 72.010696,40.937035 72.009369,40.526718 
	C71.979935,38.749863 71.951828,37.383327 71.923721,36.016792 
	C71.923721,36.016792 71.963478,36.006557 72.198090,36.001297 
	C72.432693,35.996033 72.861572,35.988220 72.861572,35.988220 
	C72.917603,37.053394 72.973625,38.118565 73.066925,39.581532 
z"/>
<path fill="#CD764E" opacity="1.000000" stroke="none" 
	d="
M72.909958,35.618649 
	C72.861572,35.988220 72.432693,35.996033 72.218338,35.997948 
	C72.006516,34.603542 72.009048,33.207222 72.027756,31.389370 
	C72.043930,30.967834 72.458466,30.984924 72.664459,30.988831 
	C72.926010,31.444878 72.981567,31.897017 73.094208,32.686783 
	C73.086975,33.765965 73.022659,34.507519 72.909958,35.618649 
z"/>
<path fill="#6C2410" opacity="1.000000" stroke="none" 
	d="
M9.808439,29.936497 
	C9.608174,29.114088 9.407910,28.291681 9.077326,26.832722 
	C9.284575,26.020121 9.622146,25.844070 9.986140,25.695610 
	C9.944391,26.425579 9.876220,27.127958 9.766286,28.834843 
	C9.724524,29.839350 9.808439,29.936497 9.808439,29.936497 
z"/>
<path fill="#CE501A" opacity="1.000000" stroke="none" 
	d="
M10.217333,67.411392 
	C10.264447,67.040031 10.678820,67.026947 10.886711,67.020180 
	C11.101277,68.580963 11.107952,70.148506 10.879633,72.007614 
	C10.453860,71.731743 10.263081,71.164307 10.001518,70.306023 
	C10.010565,69.271027 10.090392,68.526886 10.217333,67.411392 
z"/>
<path fill="#281714" opacity="1.000000" stroke="none" 
	d="
M9.866609,29.995647 
	C9.808439,29.936497 9.724524,29.839350 9.687851,29.890453 
	C9.534378,30.062580 9.417580,30.183601 9.454598,30.508446 
	C9.608416,30.712271 9.711498,30.723526 9.747662,30.682926 
	C9.783825,30.642328 9.858135,30.519270 9.867289,30.448481 
	C9.876443,30.377691 9.924778,30.054796 9.866609,29.995647 
z"/>
<path fill="#C04719" opacity="1.000000" stroke="none" 
	d="
M9.588784,34.521484 
	C9.734588,34.744186 9.623370,35.088757 9.394389,35.676376 
	C9.206371,35.764858 9.136118,35.610287 8.970709,35.219467 
	C9.027625,34.869930 9.179694,34.756641 9.588784,34.521484 
z"/>
<path fill="#D6D4DF" opacity="1.000000" stroke="none" 
	d="
M21.861559,58.460972 
	C32.385525,58.079842 42.735977,58.041622 53.943432,58.007469 
	C59.657455,59.621609 55.844994,62.589230 55.458450,64.963882 
	C53.026665,65.035522 51.023849,65.096497 48.554752,65.094696 
	C39.076408,64.976547 30.064341,64.921181 21.052275,64.865814 
	C21.264198,62.845169 21.476124,60.824528 21.861559,58.460972 
z"/>
<path fill="#D2724D" opacity="1.000000" stroke="none" 
	d="
M21.144768,65.120544 
	C30.064341,64.921181 39.076408,64.976547 48.539429,65.336655 
	C48.990379,65.641388 48.940975,66.123749 48.940975,66.123749 
	C45.916939,66.429520 42.892902,66.735298 39.434437,67.101334 
	C33.626553,67.093010 28.253094,67.024422 22.410999,66.898010 
	C21.707327,66.351883 21.472294,65.863586 21.144768,65.120544 
z"/>
<path fill="#CF5A2E" opacity="1.000000" stroke="none" 
	d="
M55.887417,64.953217 
	C55.844994,62.589230 59.657455,59.621609 54.408581,57.937515 
	C54.011246,57.449852 54.005764,57.036209 54.171989,56.048065 
	C54.564438,54.664711 54.785179,53.855862 55.183590,52.876114 
	C55.595623,52.474121 55.807068,52.223682 56.391396,51.961525 
	C59.528328,50.981850 62.269466,49.994556 65.044876,49.329536 
	C65.397316,50.440971 65.715492,51.230133 66.033669,52.019295 
	C65.721260,53.122120 65.408844,54.224945 64.737900,55.734093 
	C64.222542,56.750492 64.065712,57.360573 63.908890,57.970654 
	C63.048603,61.422485 62.188313,64.874321 61.255455,69.022385 
	C61.173904,70.463844 61.164921,71.209061 61.107170,72.346939 
	C61.002563,73.528160 60.946724,74.316742 60.500355,75.091087 
	C59.074940,74.949585 58.040054,74.822319 57.044598,74.482956 
	C57.084023,74.270851 57.048267,73.840866 57.038803,73.413757 
	C56.648697,70.308830 56.268059,67.631027 55.887417,64.953217 
z"/>
<path fill="#D18944" opacity="1.000000" stroke="none" 
	d="
M35.063282,54.053246 
	C32.359703,54.025829 29.656126,53.998413 26.277430,53.763695 
	C24.738567,53.035076 23.874826,52.513771 22.940580,51.769150 
	C22.870077,51.545837 22.757429,51.091232 23.198969,51.111481 
	C29.366652,51.421516 35.095310,51.669647 40.818089,52.015202 
	C44.874908,52.260166 48.923779,52.636761 52.624569,53.168797 
	C46.536385,53.606411 40.799835,53.829826 35.063282,54.053246 
z"/>
<path fill="#D4612C" opacity="1.000000" stroke="none" 
	d="
M35.424034,54.235756 
	C40.799835,53.829826 46.536385,53.606411 52.963512,53.175751 
	C54.104698,52.994678 54.555309,53.020847 55.005920,53.047012 
	C54.785179,53.855862 54.564438,54.664711 54.168198,55.737831 
	C47.923393,55.474155 41.854092,54.946213 35.424034,54.235756 
z"/>
<path fill="#D4612C" opacity="1.000000" stroke="none" 
	d="
M23.011084,51.992462 
	C23.874826,52.513771 24.738567,53.035076 25.830021,53.757271 
	C24.798851,53.840500 23.539970,53.722843 22.316635,53.166580 
	C22.588364,52.497631 22.807999,52.252457 23.011084,51.992462 
z"/>
<path fill="#B94C18" opacity="1.000000" stroke="none" 
	d="
M22.940580,51.769150 
	C22.807999,52.252457 22.588364,52.497631 22.169540,52.895332 
	C21.101276,52.208153 20.215652,51.353619 19.179768,50.227699 
	C19.331034,49.628456 19.632563,49.300610 20.328892,48.927742 
	C21.149046,49.257168 21.574398,49.631615 22.085024,50.213902 
	C22.314749,50.689865 22.510460,50.913029 22.757429,51.091232 
	C22.757429,51.091232 22.870077,51.545837 22.940580,51.769150 
z"/>
<path fill="#D18A47" opacity="1.000000" stroke="none" 
	d="
M19.924500,32.926140 
	C21.592834,30.924059 23.340448,29.509109 24.643896,27.762663 
	C27.367102,24.113922 29.082870,19.263716 35.483406,20.261209 
	C35.929703,20.710827 35.935856,20.893253 35.613152,21.118809 
	C34.145947,22.643530 33.007591,24.125122 31.713551,25.478142 
	C31.450710,25.745949 31.343559,26.142326 31.425812,26.843384 
	C30.828150,28.768211 30.041080,30.388361 28.964520,31.924952 
	C27.412491,32.651016 26.214396,33.596302 24.870502,34.234646 
	C23.320684,34.970802 21.642193,35.436066 20.019577,36.018963 
	C19.947254,35.133686 19.874933,34.248409 19.924500,32.926140 
z"/>
<path fill="#CE8541" opacity="1.000000" stroke="none" 
	d="
M19.850357,36.427643 
	C21.642193,35.436066 23.320684,34.970802 24.870502,34.234646 
	C26.214396,33.596302 27.412491,32.651016 28.880064,32.279785 
	C28.227919,34.804371 27.370735,36.890564 26.286657,38.893295 
	C25.452391,39.213745 24.845018,39.617649 24.193584,40.345039 
	C24.416479,41.453373 24.683434,42.238224 24.931839,43.028374 
	C24.913288,43.033672 24.926819,43.069805 24.912201,43.369053 
	C24.952456,44.062847 25.007330,44.457397 25.050455,45.210304 
	C25.025957,46.046593 25.013206,46.524525 24.690304,47.096367 
	C23.586685,48.128872 22.793217,49.067467 21.999748,50.006062 
	C21.574398,49.631615 21.149046,49.257168 20.536232,48.665180 
	C20.348770,48.447636 20.316584,48.280140 20.288273,48.201927 
	C20.067020,44.361252 19.874081,40.598789 19.850357,36.427643 
z"/>
<path fill="#D5D5E0" opacity="1.000000" stroke="none" 
	d="
M47.989777,22.091421 
	C49.108543,22.000452 50.227306,21.909485 51.688801,22.281149 
	C52.835247,24.154139 53.877365,25.481836 54.400143,26.989605 
	C56.343163,32.593563 58.115356,38.256752 59.661285,44.051003 
	C58.575451,44.532482 57.780025,44.860657 56.653633,45.133476 
	C55.878490,45.113708 55.434315,45.149296 54.532852,45.125259 
	C49.714508,44.701248 45.353443,44.336857 40.991455,43.981064 
	C40.990536,43.989658 41.003979,43.989765 41.076263,43.590416 
	C41.144352,42.107750 41.140152,41.024441 41.357010,39.681732 
	C42.347748,37.237442 43.117435,35.052547 43.914604,32.594131 
	C43.937595,31.958969 43.933102,31.597330 44.171978,30.996315 
	C44.661419,30.121767 44.907490,29.486591 45.361568,28.705029 
	C45.720322,28.084278 45.871063,27.609917 46.256622,26.881859 
	C46.990883,25.115915 47.490330,23.603668 47.989777,22.091421 
z"/>
<path fill="#DEA162" opacity="1.000000" stroke="none" 
	d="
M59.951694,43.897701 
	C58.115356,38.256752 56.343163,32.593563 54.400143,26.989605 
	C53.877365,25.481836 52.835247,24.154139 51.959602,22.392712 
	C54.306053,24.148140 56.772579,26.202713 59.123199,28.382290 
	C60.361645,29.530619 61.397713,30.897209 62.778599,32.070660 
	C63.433155,31.970629 63.834270,31.965183 64.535667,31.948734 
	C64.912903,33.027897 64.989861,34.118061 65.071472,36.056076 
	C65.006805,39.261936 64.937477,41.619949 64.546097,44.011871 
	C62.799934,43.996418 61.375813,43.947060 59.951694,43.897701 
z"/>
<path fill="#D5D4DE" opacity="1.000000" stroke="none" 
	d="
M38.062771,17.492132 
	C38.869724,16.697762 39.676678,15.903390 40.738480,14.979913 
	C45.471016,14.682972 47.393608,16.921528 46.965694,21.947956 
	C46.197502,22.994617 45.519920,23.381777 44.533142,23.781265 
	C43.826351,23.904377 43.428761,24.015160 42.688866,24.039261 
	C41.891041,23.838842 41.435513,23.725107 40.765121,23.467369 
	C40.221252,23.226887 39.892254,23.130407 39.392487,22.899744 
	C38.858269,22.528576 38.494816,22.291590 38.174049,21.600971 
	C38.165413,19.928936 38.114094,18.710533 38.062771,17.492132 
z"/>
<path fill="#B5663A" opacity="1.000000" stroke="none" 
	d="
M44.842342,23.768934 
	C45.519920,23.381777 46.197502,22.994617 47.032127,22.356441 
	C47.189175,22.105425 47.590252,22.118692 47.790016,22.105057 
	C47.490330,23.603668 46.990883,25.115915 46.154934,26.538300 
	C45.493069,25.555271 45.167706,24.662102 44.842342,23.768934 
z"/>
<path fill="#D55F32" opacity="1.000000" stroke="none" 
	d="
M64.868149,43.977962 
	C64.937477,41.619949 65.006805,39.261936 65.111969,36.463516 
	C67.185547,35.972511 69.223289,35.921921 71.592377,35.944061 
	C71.951828,37.383327 71.979935,38.749863 72.002213,40.783249 
	C71.994003,41.620594 71.991623,41.791088 71.671936,42.035759 
	C70.239616,42.742558 69.124603,43.375179 67.751114,44.125656 
	C66.985115,44.500252 66.477585,44.756989 65.761185,44.869961 
	C65.324249,44.476788 65.096207,44.227375 64.868149,43.977962 
z"/>
<path fill="#9D4E22" opacity="1.000000" stroke="none" 
	d="
M35.942005,21.075682 
	C35.935856,20.893253 35.929703,20.710827 35.881401,20.257610 
	C35.906040,19.559542 35.972828,19.132263 36.091530,18.385475 
	C36.143440,18.065966 36.576687,18.024994 36.784599,18.464466 
	C36.978672,19.829493 36.964825,20.755045 36.676655,21.566200 
	C36.248890,21.326427 36.095448,21.201054 35.942005,21.075682 
z"/>
<path fill="#9E685E" opacity="1.000000" stroke="none" 
	d="
M36.950981,21.680599 
	C36.964825,20.755045 36.978672,19.829493 37.000885,18.440662 
	C37.178108,17.881964 37.346970,17.786537 37.789299,17.591621 
	C38.114094,18.710533 38.165413,19.928936 37.962181,21.577873 
	C37.399239,22.028776 37.147022,21.919506 36.950981,21.680599 
z"/>
<path fill="#C53F15" opacity="1.000000" stroke="none" 
	d="
M63.821892,76.474533 
	C63.334278,76.633888 62.952015,76.513474 62.457161,76.094604 
	C62.866589,75.518227 63.388607,75.240303 63.910629,74.962372 
	C63.910629,74.962379 64.173119,75.036446 64.306900,75.073296 
	C64.269531,75.471687 64.098381,75.833221 63.821892,76.474533 
z"/>
<path fill="#E09C56" opacity="1.000000" stroke="none" 
	d="
M66.160866,75.874619 
	C66.477142,75.688942 66.923676,75.714462 67.687820,75.849968 
	C67.433998,76.001915 66.862564,76.043869 66.160866,75.874619 
z"/>
<path fill="#E09C56" opacity="1.000000" stroke="none" 
	d="
M68.160851,75.848480 
	C68.146332,75.710716 68.325874,75.425026 68.750343,75.053131 
	C68.814812,75.240273 68.601357,75.484818 68.160851,75.848480 
z"/>
<path fill="#A51F06" opacity="1.000000" stroke="none" 
	d="
M61.155937,71.954285 
	C61.164921,71.209061 61.173904,70.463844 61.246342,69.350204 
	C62.242947,68.986763 63.176094,68.991737 64.459023,68.996445 
	C64.806396,69.850029 64.803993,70.703888 64.743469,71.988953 
	C64.685349,72.420151 64.665848,72.350349 64.228004,72.286804 
	C62.912086,72.133598 62.034012,72.043938 61.155937,71.954285 
z"/>
<path fill="#B22B0D" opacity="1.000000" stroke="none" 
	d="
M61.107170,72.346931 
	C62.034012,72.043938 62.912086,72.133598 64.235382,72.252899 
	C64.680595,72.282532 64.750305,72.292854 64.750305,72.292854 
	C64.565681,72.886887 64.381050,73.480927 64.053520,74.518661 
	C63.388607,75.240303 62.866589,75.518227 62.198044,75.939743 
	C61.930859,76.208092 61.810200,76.332848 61.507408,76.396469 
	C61.180481,75.925331 61.035686,75.515327 60.890892,75.105316 
	C60.946724,74.316742 61.002563,73.528160 61.107170,72.346931 
z"/>
<path fill="#B65A2A" opacity="1.000000" stroke="none" 
	d="
M66.203018,63.966881 
	C66.169518,63.457603 66.382027,62.934193 66.784370,62.200233 
	C66.799149,62.644043 66.624092,63.298393 66.203018,63.966881 
z"/>
<path fill="#E1763D" opacity="1.000000" stroke="none" 
	d="
M64.752365,72.312721 
	C64.750305,72.292854 64.680595,72.282532 64.673218,72.316437 
	C64.665848,72.350349 64.685349,72.420151 64.721619,72.415710 
	C64.757896,72.411270 64.754417,72.332588 64.752365,72.312721 
z"/>
<path fill="#C84B27" opacity="1.000000" stroke="none" 
	d="
M66.300919,51.876396 
	C65.715492,51.230133 65.397316,50.440971 65.187225,49.142715 
	C65.499718,48.394009 65.729614,48.182026 66.240677,47.880409 
	C66.997223,47.508209 67.498077,47.253273 68.157646,47.177116 
	C68.535698,47.588165 68.769249,47.805130 69.017029,48.006786 
	C69.021675,48.453480 69.026314,48.900173 69.049118,49.681732 
	C68.234245,50.588894 67.401207,51.161194 66.300919,51.876396 
z"/>
<path fill="#C44824" opacity="1.000000" stroke="none" 
	d="
M64.113007,57.769218 
	C64.065712,57.360573 64.222542,56.750492 64.574921,56.041958 
	C64.619347,56.484932 64.468239,57.026360 64.113007,57.769218 
z"/>
<path fill="#C74926" opacity="1.000000" stroke="none" 
	d="
M69.180801,47.839203 
	C68.769249,47.805130 68.535698,47.588165 68.158501,46.803204 
	C68.003632,45.502941 68.006615,44.755371 68.009598,44.007801 
	C69.124603,43.375179 70.239616,42.742558 71.678719,42.371521 
	C72.015007,43.079025 72.027191,43.524944 72.039375,43.970863 
	C72.039375,43.970863 72.007294,43.999653 71.707375,44.152912 
	C70.945229,45.211681 70.482994,46.117188 70.020767,47.022697 
	C69.788254,47.231586 69.562859,47.447895 69.180801,47.839203 
z"/>
<path fill="#BA3619" opacity="1.000000" stroke="none" 
	d="
M70.354309,47.015709 
	C70.482994,46.117188 70.945229,45.211681 71.691231,44.167183 
	C71.988884,44.764820 72.002754,45.501446 72.019836,46.606449 
	C71.577972,46.986126 71.132912,46.997425 70.354309,47.015709 
z"/>
<path fill="#C65433" opacity="1.000000" stroke="none" 
	d="
M72.250610,43.976101 
	C72.027191,43.524944 72.015007,43.079025 71.996033,42.297344 
	C71.991623,41.791088 71.994003,41.620594 72.003540,41.193565 
	C72.010696,40.937035 72.414017,40.958782 72.615349,40.963608 
	C72.857513,41.722733 72.898346,42.477024 72.911804,43.608154 
	C72.884430,43.984985 72.461845,43.981339 72.250610,43.976101 
z"/>
<path fill="#D86735" opacity="1.000000" stroke="none" 
	d="
M55.458450,64.963882 
	C56.268059,67.631027 56.648697,70.308830 56.763206,73.496902 
	C56.006302,74.284760 55.515530,74.562347 55.024754,74.839943 
	C53.335510,74.813019 51.646263,74.786087 49.545406,74.465317 
	C49.113178,73.822807 49.092564,73.474136 49.071945,73.125458 
	C49.071945,73.125458 49.095131,72.956383 49.271618,72.898514 
	C49.805126,72.674812 49.930038,72.402512 49.822838,72.023743 
	C49.650322,70.282433 49.477802,68.541115 49.123131,66.461777 
	C48.940975,66.123749 48.990379,65.641388 49.005707,65.399429 
	C51.023849,65.096497 53.026665,65.035522 55.458450,64.963882 
z"/>
<path fill="#D4856B" opacity="1.000000" stroke="none" 
	d="
M48.622032,73.067169 
	C49.092564,73.474136 49.113178,73.822807 49.124779,74.433350 
	C45.802853,74.695221 42.489937,74.695221 39.177017,74.695221 
	C39.159512,74.133110 39.142002,73.570992 39.124493,73.008881 
	C42.140366,73.008881 45.156242,73.008881 48.622032,73.067169 
z"/>
<path fill="#CECAD3" opacity="1.000000" stroke="none" 
	d="
M60.500359,75.091087 
	C61.035686,75.515327 61.180481,75.925331 61.428085,76.644424 
	C61.453171,77.129471 61.375443,77.305420 61.171391,77.740822 
	C59.843548,77.426331 58.642033,76.852386 57.205803,75.797958 
	C56.982452,75.110001 56.993813,74.902527 57.005173,74.695053 
	C58.040054,74.822319 59.074940,74.949585 60.500359,75.091087 
z"/>
<path fill="#D4856B" opacity="1.000000" stroke="none" 
	d="
M57.044598,74.482956 
	C56.993813,74.902527 56.982452,75.110001 56.917915,75.624573 
	C56.322403,75.752113 55.780067,75.572548 55.131241,75.116470 
	C55.515530,74.562347 56.006302,74.284760 56.772675,73.924011 
	C57.048267,73.840866 57.084023,74.270851 57.044598,74.482956 
z"/>
<path fill="#D7D5DF" opacity="1.000000" stroke="none" 
	d="
M49.669682,72.151947 
	C49.930038,72.402512 49.805126,72.674812 49.203926,72.846565 
	C49.132397,72.649117 49.317989,72.458344 49.669682,72.151947 
z"/>
<path fill="#D58F4D" opacity="1.000000" stroke="none" 
	d="
M22.085022,50.213902 
	C22.793217,49.067467 23.586685,48.128872 25.158909,47.097710 
	C35.623940,47.003532 45.310215,47.001919 55.030121,47.361435 
	C55.374371,49.133011 55.684990,50.543457 55.995605,51.953903 
	C55.807068,52.223682 55.595623,52.474121 55.183594,52.876114 
	C54.555309,53.020847 54.104698,52.994678 53.315144,52.961555 
	C48.923779,52.636761 44.874908,52.260166 40.818089,52.015202 
	C35.095310,51.669647 29.366652,51.421516 23.198969,51.111481 
	C22.510460,50.913029 22.314749,50.689865 22.085022,50.213902 
z"/>
<path fill="#D79656" opacity="1.000000" stroke="none" 
	d="
M56.391399,51.961525 
	C55.684990,50.543457 55.374371,49.133011 55.031799,47.361191 
	C54.999844,46.999817 55.000389,46.996456 55.261765,46.896477 
	C56.010288,46.260612 56.497444,45.724724 56.984596,45.188835 
	C57.780025,44.860657 58.575451,44.532482 59.661285,44.051003 
	C61.375813,43.947060 62.799934,43.996418 64.546104,44.011871 
	C65.096207,44.227375 65.324249,44.476788 65.777794,45.242310 
	C65.997192,46.504841 65.991089,47.251263 65.984985,47.997681 
	C65.729614,48.182026 65.499718,48.394009 65.152954,48.820442 
	C62.269466,49.994556 59.528328,50.981850 56.391399,51.961525 
z"/>
<path fill="#D4D4DF" opacity="1.000000" stroke="none" 
	d="
M36.676659,21.566200 
	C37.147022,21.919506 37.399239,22.028776 37.919495,22.031507 
	C38.494816,22.291590 38.858269,22.528576 39.402527,22.922884 
	C39.583336,23.080208 39.554310,23.038456 39.215744,23.237965 
	C38.961407,23.950104 39.045635,24.462736 39.158600,25.225842 
	C39.448727,25.674782 39.710121,25.873251 40.024231,26.351688 
	C40.377316,27.087637 40.677685,27.543617 41.004761,28.304796 
	C41.357754,29.082878 41.684044,29.555758 42.034672,30.017807 
	C42.059010,30.006975 42.025974,29.965178 42.014801,30.308397 
	C42.631462,31.390295 43.259293,32.128975 43.887123,32.867653 
	C43.117435,35.052547 42.347748,37.237442 41.116386,39.910038 
	C40.771130,41.595081 40.887554,42.792423 41.003979,43.989765 
	C41.003979,43.989765 40.990536,43.989658 40.788891,44.315903 
	C36.054222,44.747765 31.521200,44.853386 26.961039,44.748631 
	C26.933899,44.538254 26.916489,44.113373 26.951571,43.822113 
	C26.768360,42.999660 26.550068,42.468460 26.292143,41.566849 
	C26.339523,40.456543 26.426538,39.716648 26.513554,38.976757 
	C27.370735,36.890564 28.227919,34.804371 29.169558,32.363342 
	C30.041080,30.388361 30.828150,28.768211 31.708870,26.695036 
	C31.824760,26.030245 31.847000,25.818480 31.869236,25.606716 
	C33.007591,24.125122 34.145947,22.643530 35.613152,21.118809 
	C36.095448,21.201054 36.248890,21.326427 36.676659,21.566200 
z"/>
<path fill="#955640" opacity="1.000000" stroke="none" 
	d="
M31.713551,25.478144 
	C31.847000,25.818480 31.824760,26.030245 31.519464,26.390358 
	C31.343559,26.142326 31.450710,25.745949 31.713551,25.478144 
z"/>
<path fill="#CC8146" opacity="1.000000" stroke="none" 
	d="
M26.988178,44.959007 
	C31.521200,44.853386 36.054222,44.747765 40.789810,44.307304 
	C45.353443,44.336857 49.714508,44.701248 54.533615,45.427216 
	C54.994568,46.191353 54.997478,46.593903 55.000389,46.996456 
	C55.000389,46.996456 54.999844,46.999817 54.998169,47.000061 
	C45.310215,47.001919 35.623940,47.003532 25.469061,47.003799 
	C25.013206,46.524525 25.025957,46.046593 25.370834,45.234486 
	C26.131369,44.919872 26.559774,44.939442 26.988178,44.959007 
z"/>
<path fill="#925844" opacity="1.000000" stroke="none" 
	d="
M26.286659,38.893295 
	C26.426538,39.716648 26.339523,40.456543 26.184076,41.838684 
	C26.068695,42.670094 26.021748,42.859249 25.712774,43.052242 
	C25.276106,43.060654 25.101461,43.065231 24.926819,43.069805 
	C24.926819,43.069805 24.913288,43.033672 24.920126,42.715225 
	C24.697191,41.605038 24.467419,40.813293 24.237648,40.021553 
	C24.845018,39.617649 25.452391,39.213745 26.286659,38.893295 
z"/>
<path fill="#A05224" opacity="1.000000" stroke="none" 
	d="
M24.912201,43.369053 
	C25.101461,43.065231 25.276106,43.060654 25.858187,43.239719 
	C26.436035,43.697262 26.652990,43.927265 26.916489,44.113373 
	C26.916489,44.113373 26.933899,44.538254 26.961039,44.748631 
	C26.559774,44.939442 26.131369,44.919872 25.382584,44.876125 
	C25.007330,44.457397 24.952456,44.062847 24.912201,43.369053 
z"/>
<path fill="#A05224" opacity="1.000000" stroke="none" 
	d="
M24.193584,40.345039 
	C24.467419,40.813293 24.697191,41.605038 24.938677,42.709927 
	C24.683434,42.238224 24.416479,41.453373 24.193584,40.345039 
z"/>
<path fill="#C57641" opacity="1.000000" stroke="none" 
	d="
M40.978058,27.999596 
	C40.677685,27.543617 40.377316,27.087637 40.033356,26.082001 
	C39.986183,25.352678 39.982597,25.173012 40.299107,24.963846 
	C41.423191,24.664881 42.227180,24.395412 43.031170,24.125944 
	C43.428761,24.015160 43.826351,23.904377 44.533142,23.781265 
	C45.167706,24.662102 45.493069,25.555271 45.920120,26.791996 
	C45.871063,27.609917 45.720322,28.084278 45.130333,28.549294 
	C43.969460,28.382053 43.247833,28.224165 42.139153,28.049959 
	C41.494083,28.022293 41.236073,28.010944 40.978058,27.999596 
z"/>
<path fill="#9D512F" opacity="1.000000" stroke="none" 
	d="
M42.526203,28.066275 
	C43.247833,28.224165 43.969460,28.382053 44.922325,28.695679 
	C44.907490,29.486591 44.661419,30.121767 43.966324,30.788422 
	C43.020191,30.534996 42.523083,30.250086 42.025974,29.965176 
	C42.025974,29.965178 42.059010,30.006975 42.147194,29.698605 
	C42.332317,28.948915 42.429260,28.507595 42.526203,28.066275 
z"/>
<path fill="#C57641" opacity="1.000000" stroke="none" 
	d="
M42.014801,30.308395 
	C42.523083,30.250086 43.020191,30.534996 43.722954,31.027798 
	C43.933102,31.597330 43.937595,31.958969 43.914604,32.594131 
	C43.259293,32.128975 42.631462,31.390295 42.014801,30.308395 
z"/>
<path fill="#D58F4D" opacity="1.000000" stroke="none" 
	d="
M55.261765,46.896477 
	C54.997478,46.593903 54.994568,46.191353 54.990898,45.486839 
	C55.434315,45.149296 55.878490,45.113708 56.653633,45.133476 
	C56.497444,45.724724 56.010288,46.260612 55.261765,46.896477 
z"/>
<path fill="#9F9EB3" opacity="1.000000" stroke="none" 
	d="
M41.076263,43.590416 
	C40.887554,42.792423 40.771130,41.595081 40.895332,40.169434 
	C41.140152,41.024441 41.144352,42.107750 41.076263,43.590416 
z"/>
<path fill="#BA7656" opacity="1.000000" stroke="none" 
	d="
M42.688866,24.039261 
	C42.227180,24.395412 41.423191,24.664881 40.087090,24.961458 
	C39.554974,24.988567 39.129864,24.975368 39.129864,24.975368 
	C39.045635,24.462736 38.961407,23.950104 39.558064,23.418503 
	C40.485958,23.470146 40.732971,23.540760 40.979988,23.611372 
	C41.435513,23.725107 41.891041,23.838842 42.688866,24.039261 
z"/>
<path fill="#CAC0C7" opacity="1.000000" stroke="none" 
	d="
M40.765121,23.467369 
	C40.732971,23.540760 40.485958,23.470146 39.896629,23.218994 
	C39.554310,23.038456 39.583336,23.080208 39.573296,23.057068 
	C39.892254,23.130407 40.221252,23.226887 40.765121,23.467369 
z"/>
<path fill="#CF542B" opacity="1.000000" stroke="none" 
	d="
M66.240677,47.880409 
	C65.991089,47.251263 65.997192,46.504841 65.986679,45.386070 
	C66.477585,44.756989 66.985115,44.500252 67.751114,44.125656 
	C68.006615,44.755371 68.003632,45.502941 67.999786,46.624424 
	C67.498077,47.253273 66.997223,47.508209 66.240677,47.880409 
z"/>
<path fill="#B7ABB2" opacity="1.000000" stroke="none" 
	d="
M26.951571,43.822113 
	C26.652990,43.927265 26.436035,43.697262 26.120213,43.235886 
	C26.021748,42.859249 26.068695,42.670094 26.223709,42.209099 
	C26.550068,42.468460 26.768360,42.999660 26.951571,43.822113 
z"/>
<path fill="#CE844F" opacity="1.000000" stroke="none" 
	d="
M42.139153,28.049959 
	C42.429260,28.507595 42.332317,28.948915 42.122856,29.709436 
	C41.684044,29.555758 41.357754,29.082878 41.004761,28.304796 
	C41.236073,28.010944 41.494083,28.022293 42.139153,28.049959 
z"/>
<path fill="#CE844F" opacity="1.000000" stroke="none" 
	d="
M39.158600,25.225842 
	C39.129864,24.975368 39.554974,24.988567 39.766991,24.990955 
	C39.982597,25.173012 39.986183,25.352678 39.980640,25.802031 
	C39.710121,25.873251 39.448727,25.674782 39.158600,25.225842 
z"/>
</svg>