<svg width="32" height="32" viewBox="0 0 32 32" fill="none" xmlns="http://www.w3.org/2000/svg">
<circle cx="16" cy="16" r="16" fill="#511AED"/>
<g clip-path="url(#clip0_281_23253)">
<path d="M18.5978 17.7777L16.4098 15.5897M16.4098 15.5897L14.2217 17.7777M16.4098 15.5897V20.5128M20.9992 19.0851C21.5327 18.7942 21.9542 18.334 22.1971 17.777C22.44 17.22 22.4904 16.598 22.3406 16.0091C22.1907 15.4202 21.849 14.898 21.3693 14.5249C20.8897 14.1518 20.2995 13.9491 19.6918 13.9487H19.0026C18.837 13.3083 18.5284 12.7137 18.1 12.2097C17.6716 11.7058 17.1345 11.3054 16.5291 11.0389C15.9237 10.7724 15.2657 10.6466 14.6047 10.6709C13.9437 10.6953 13.2968 10.8692 12.7126 11.1795C12.1285 11.4899 11.6223 11.9286 11.2321 12.4628C10.842 12.9969 10.578 13.6126 10.46 14.2634C10.342 14.9143 10.3731 15.5834 10.5509 16.2205C10.7287 16.8577 11.0487 17.4462 11.4867 17.9418" stroke="white" stroke-width="1.09402" stroke-linecap="round" stroke-linejoin="round"/>
</g>
<defs>
<clipPath id="clip0_281_23253">
<rect width="13.1282" height="13.1282" fill="white" transform="translate(9.8457 9.02539)"/>
</clipPath>
</defs>
</svg>
