<svg width="32" height="32" viewBox="0 0 32 32" fill="none" xmlns="http://www.w3.org/2000/svg">
<circle cx="16" cy="16" r="16" fill="#030303"/>
<path d="M24.1115 16.4105C24.1115 20.5645 20.744 23.9319 16.5901 23.9319M24.1115 16.4105C24.1115 12.2566 20.744 8.88916 16.5901 8.88916M24.1115 16.4105H9.06873M16.5901 23.9319C12.4362 23.9319 9.06873 20.5645 9.06873 16.4105M16.5901 23.9319C18.4714 21.8723 19.5405 19.1994 19.5986 16.4105C19.5405 13.6216 18.4714 10.9488 16.5901 8.88916M16.5901 23.9319C14.7088 21.8723 13.6396 19.1994 13.5815 16.4105C13.6396 13.6216 14.7088 10.9488 16.5901 8.88916M9.06873 16.4105C9.06873 12.2566 12.4362 8.88916 16.5901 8.88916" stroke="white" stroke-linecap="round" stroke-linejoin="round"/>
</svg>
