<svg width="48" height="48" viewBox="0 0 48 48" fill="none" xmlns="http://www.w3.org/2000/svg">
<g id="Group 5380">
<g id="Group 5374">
<g id="Group 5373">
<g id="Group 5372">
<g id="Ellipse 2">
<circle cx="23.9342" cy="23.9342" r="20.9342" fill="#2C2C2C"/>
<circle cx="23.9342" cy="23.9342" r="22.0658" stroke="white" stroke-opacity="0.26" stroke-width="2.26316"/>
</g>
<g id="Group 2">
<path id="Vector" fill-rule="evenodd" clip-rule="evenodd" d="M34.1599 11.2089C33.4575 12.1613 32.0327 13.7984 31.0496 14.7827C29.9343 15.8994 28.6894 16.9743 27.5635 17.7927L26.9317 18.252L27.0997 18.4979C28.568 20.6467 29.0534 22.7368 28.6963 25.3732C28.6325 25.8446 28.5 26.5662 28.4019 26.9769C28.3037 27.3875 28.2325 27.7326 28.2436 27.7437C28.2834 27.7835 28.621 27.2571 28.796 26.8826C29.3263 25.7477 29.604 24.3434 29.5997 22.8195L29.597 21.8417L31.4553 19.9695C33.4715 17.9384 34.3634 16.9748 34.82 16.3344L35.1133 15.9231L35.0803 14.9241C35.0621 14.3747 35.005 13.6078 34.9534 13.2199C34.8527 12.4642 34.6022 11.263 34.4917 11.0068L34.4243 10.8503L34.1599 11.2089ZM16.0313 12.4091C15.0383 12.5508 14.0215 13.0754 13.2355 13.8517C12.3775 14.6991 11.8909 15.7351 11.7654 16.9814C11.7283 17.3506 11.7142 19.6882 11.7277 23.2403C11.7464 28.1634 11.7615 28.9604 11.8424 29.2933C12.2914 31.1422 13.5206 32.5516 15.0323 32.9509C15.2262 33.002 15.5303 33.0606 15.7081 33.0808C15.8858 33.1011 16.1036 33.1316 16.192 33.1485L16.3529 33.1793L16.3683 35.0987L16.3838 37.0181L18.2806 35.1308L20.1772 33.2435L20.778 33.2334C21.7356 33.2172 22.502 32.9954 23.4257 32.4669C24.6178 31.7848 25.8141 30.6158 26.6475 29.3185C26.8525 28.9995 27.3561 27.9369 27.5097 27.4996C27.8324 26.5808 28.1193 24.8641 27.9456 24.8915C27.9214 24.8954 24.973 24.8954 21.3935 24.8915L14.8854 24.8846V22.0639V19.2432H20.6442C23.8116 19.2432 26.4031 19.2275 26.4031 19.2082C26.4031 19.1889 26.2511 18.9443 26.0653 18.6646C25.8794 18.3849 25.7192 18.1381 25.7091 18.116C25.699 18.0939 26.2543 17.5948 26.9431 17.0067C27.6318 16.4186 28.8012 15.4201 29.5417 14.7878L30.8879 13.638L30.6582 13.4391C30.3245 13.15 29.5015 12.7174 28.9593 12.5459L28.4892 12.3972L22.3484 12.3906C18.9709 12.3869 16.1282 12.3952 16.0313 12.4091ZM36.5767 15.2528C35.4273 17.063 34.1742 18.5484 31.8888 20.8097L30.4542 22.2292L30.397 22.8958C30.302 24.0023 30.1734 24.8912 30.0216 25.4898C29.6758 26.8529 28.9758 28.1627 27.8368 29.578C27.1546 30.4256 27.1253 30.5209 27.7005 30.0203C28.5215 29.3058 29.4422 28.2151 30.0454 27.2425C30.7084 26.1736 31.2779 24.7486 31.4132 23.82L31.483 23.3407L31.8078 23.1004C32.0969 22.8864 33.6769 21.6045 33.8431 21.449C33.8789 21.4156 34.1037 21.2165 34.3426 21.0067C35.7081 19.8077 36.9729 18.4747 36.9834 18.2237C37.0046 17.7166 37.0022 14.6602 36.9806 14.6613C36.9644 14.6622 36.7827 14.9284 36.5767 15.2528ZM38.861 17.3157C38.4503 17.8742 37.2571 19.3332 36.7321 19.919C35.5749 21.2101 33.7156 22.9277 32.4473 23.8771C32.1259 24.1177 32.1134 24.1376 32.0424 24.5197C31.6183 26.8058 29.6492 29.2477 26.6007 31.2681C26.1438 31.571 25.7531 31.8187 25.7326 31.8187C25.7122 31.8187 25.5968 31.8826 25.4763 31.9608C25.3558 32.039 24.9266 32.2765 24.5226 32.4888C23.7061 32.9178 23.7214 32.9486 24.6695 32.7847C27.3927 32.314 29.9586 31.1694 32.2207 29.4165C33.2427 28.6245 34.7471 27.0447 35.4363 26.0396C35.5728 25.8407 35.71 25.6478 35.7411 25.611C35.9312 25.3864 36.9612 23.5872 37.368 22.7691C38.2111 21.0732 38.6503 19.8157 38.9689 18.1855C39.1897 17.0557 39.2061 16.9508 39.1614 16.9538C39.1416 16.9551 39.0065 17.118 38.861 17.3157ZM16.7352 20.606C16.7172 20.653 16.7101 21.4829 16.7194 22.4501L16.7364 24.2088L17.1625 24.2261L17.5885 24.2433V23.5708V22.8983L18.1027 22.8775C18.7717 22.8503 19.1097 22.6959 19.3327 22.3155C19.6116 21.8396 19.5312 21.2513 19.1363 20.8777C18.8706 20.6263 18.6739 20.5816 17.6925 20.5502C16.9189 20.5255 16.7627 20.5346 16.7352 20.606ZM20.2916 22.3949V24.2537L21.2276 24.2267C22.1352 24.2006 22.1751 24.194 22.5435 24.0127C23.2314 23.674 23.5237 23.1805 23.5237 22.3575C23.5237 21.8686 23.4006 21.5008 23.1319 21.187C22.723 20.7092 22.147 20.5373 20.9527 20.5365L20.2916 20.536V22.3949ZM24.3855 20.5752C24.364 20.5967 24.3463 21.4309 24.3463 22.4288V24.2433L24.7724 24.2261L25.1984 24.2088L25.2149 23.4596L25.2313 22.7103H25.7878H26.3443V22.3871V22.0639H25.7861H25.2278V21.6526V21.2412H25.9624H26.6969V20.8886V20.536H25.5608C24.9359 20.536 24.4071 20.5537 24.3855 20.5752ZM17.5885 21.7341V22.2402H17.8736C18.0303 22.2402 18.2382 22.2125 18.3356 22.1785C18.6352 22.0741 18.7418 21.666 18.5358 21.4116C18.4433 21.2974 18.3575 21.2714 18.0069 21.2516L17.5885 21.2279V21.7341ZM21.1143 22.3871V23.4742H21.4526C22.2694 23.4742 22.6617 23.1214 22.6634 22.3853C22.6651 21.6702 22.2706 21.3 21.5071 21.3H21.1143V22.3871Z" fill="white"/>
<path id="Vector_2" fill-rule="evenodd" clip-rule="evenodd" d="M30.4941 22.2024L31.481 23.4318L31.4241 23.8218C31.2888 24.7505 30.7193 26.1755 30.0563 27.2443C29.4531 28.2169 28.5324 29.3076 27.7115 30.0221C27.1363 30.5228 27.1656 30.4274 27.8477 29.5798C28.9868 28.1645 29.6867 26.8547 30.0325 25.4916C30.1843 24.893 30.313 24.0041 30.4079 22.8976L30.4651 22.2311L30.4941 22.2024ZM27.1835 18.0787L29.9385 21.5104L29.6079 21.8435L29.6107 22.8214C29.615 24.3453 29.3372 25.7495 28.807 26.8844C28.632 27.2589 28.2943 27.7853 28.2545 27.7455C28.2435 27.7344 28.3147 27.3894 28.4128 26.9787C28.511 26.5681 28.6435 25.8464 28.7073 25.375C29.0643 22.7387 28.5789 20.6486 27.1106 18.4997L26.9426 18.2538L27.1835 18.0787Z" fill="white"/>
</g>
</g>
</g>
</g>
<circle id="Ellipse 4" cx="40.3422" cy="39.2105" r="5.0921" fill="#008C25" stroke="white" stroke-width="1.13158"/>
</g>
</svg>
