<svg width="32" height="32" viewBox="0 0 32 32" fill="none" xmlns="http://www.w3.org/2000/svg">
<circle cx="16" cy="16" r="14" fill="#2C2C2C"/>
<circle cx="16" cy="16" r="14.7568" stroke="#C6C6C6" stroke-opacity="0.25" stroke-width="1.51351"/>
<path fill-rule="evenodd" clip-rule="evenodd" d="M22.8387 7.4898C22.3689 8.12672 21.4161 9.22152 20.7586 9.87983C20.0128 10.6266 19.1802 11.3455 18.4273 11.8928L18.0047 12.2L18.1171 12.3644C19.099 13.8015 19.4236 15.1992 19.1849 16.9623C19.1422 17.2776 19.0536 17.7602 18.9879 18.0348C18.9223 18.3094 18.8747 18.5402 18.882 18.5476C18.9087 18.5742 19.1345 18.2222 19.2515 17.9717C19.6061 17.2128 19.7919 16.2737 19.789 15.2545L19.7872 14.6006L21.0299 13.3486C22.3783 11.9902 22.9748 11.3458 23.2801 10.9176L23.4763 10.6425L23.4542 9.97438C23.442 9.60693 23.4039 9.09407 23.3693 8.8347C23.302 8.32927 23.1344 7.52596 23.0606 7.35461L23.0155 7.25L22.8387 7.4898ZM10.7149 8.29241C10.0508 8.3872 9.3709 8.73806 8.84524 9.2572C8.27143 9.82389 7.94599 10.5167 7.86209 11.3502C7.83725 11.5972 7.82782 13.1605 7.83686 15.5359C7.8494 18.8283 7.8595 19.3613 7.91357 19.5839C8.21386 20.8205 9.03591 21.763 10.0468 22.03C10.1765 22.0642 10.3799 22.1034 10.4988 22.1169C10.6177 22.1305 10.7633 22.1508 10.8224 22.1621L10.93 22.1828L10.9404 23.4664L10.9507 24.75L12.2192 23.4878L13.4876 22.2257L13.8894 22.2189C14.5298 22.2081 15.0423 22.0598 15.6601 21.7063C16.4573 21.2502 17.2573 20.4684 17.8147 19.6008C17.9517 19.3875 18.2886 18.6769 18.3913 18.3844C18.6071 17.7699 18.799 16.6219 18.6828 16.6402C18.6666 16.6428 16.6948 16.6428 14.301 16.6402L9.94859 16.6356V14.7492V12.8628H13.7999C15.9181 12.8628 17.6512 12.8523 17.6512 12.8394C17.6512 12.8265 17.5495 12.6629 17.4253 12.4759C17.301 12.2889 17.1938 12.1237 17.1871 12.109C17.1804 12.0942 17.5517 11.7604 18.0123 11.3671C18.4729 10.9739 19.255 10.3061 19.7502 9.8832L20.6505 9.11431L20.4969 8.98124C20.2737 8.78793 19.7233 8.49861 19.3607 8.38394L19.0463 8.28451L14.9396 8.28007C12.6809 8.27759 10.7798 8.28317 10.7149 8.29241ZM24.4549 10.1942C23.6863 11.4048 22.8482 12.3981 21.3199 13.9104L20.3604 14.8598L20.3222 15.3055C20.2587 16.0455 20.1726 16.64 20.0711 17.0403C19.8399 17.9519 19.3718 18.8278 18.61 19.7743C18.1538 20.3412 18.1342 20.4049 18.5189 20.0701C19.0679 19.5923 19.6836 18.8629 20.087 18.2124C20.5304 17.4976 20.9113 16.5446 21.0018 15.9236L21.0485 15.6031L21.2657 15.4424C21.459 15.2993 22.5157 14.442 22.6268 14.338C22.6507 14.3156 22.8011 14.1825 22.9608 14.0422C23.874 13.2404 24.7199 12.3489 24.7269 12.181C24.7411 11.8419 24.7395 9.79788 24.725 9.79865C24.7142 9.79924 24.5927 9.97723 24.4549 10.1942ZM25.9826 11.5738C25.7079 11.9473 24.91 12.923 24.5588 13.3148C23.785 14.1782 22.5416 15.3269 21.6934 15.9618C21.4784 16.1227 21.47 16.136 21.4226 16.3915C21.1389 17.9204 19.8221 19.5535 17.7834 20.9046C17.4778 21.1072 17.2166 21.2729 17.2028 21.2729C17.1892 21.2729 17.112 21.3156 17.0314 21.3679C16.9508 21.4201 16.6638 21.579 16.3936 21.721C15.8476 22.0079 15.8578 22.0285 16.4919 21.9189C18.313 21.6041 20.029 20.8386 21.5418 19.6663C22.2253 19.1367 23.2314 18.0802 23.6923 17.408C23.7835 17.275 23.8753 17.146 23.8961 17.1213C24.0233 16.9711 24.7121 15.7679 24.9841 15.2208C25.548 14.0866 25.8417 13.2457 26.0548 12.1555C26.2024 11.3999 26.2134 11.3298 26.1835 11.3318C26.1703 11.3326 26.0799 11.4416 25.9826 11.5738ZM11.1857 13.7742C11.1737 13.8056 11.1689 14.3606 11.1752 15.0075L11.1865 16.1836L11.4714 16.1952L11.7564 16.2067V15.757V15.3072L12.1002 15.2933C12.5476 15.2751 12.7737 15.1719 12.9228 14.9175C13.1093 14.5992 13.0556 14.2058 12.7915 13.9559C12.6137 13.7878 12.4822 13.7579 11.8259 13.7369C11.3085 13.7204 11.2041 13.7265 11.1857 13.7742ZM13.5641 14.9705V16.2136L14.1901 16.1956C14.797 16.1781 14.8237 16.1738 15.07 16.0525C15.5301 15.826 15.7256 15.4959 15.7256 14.9456C15.7256 14.6186 15.6433 14.3726 15.4636 14.1627C15.1901 13.8432 14.8049 13.7282 14.0062 13.7277L13.5641 13.7274V14.9705ZM16.3019 13.7536C16.2875 13.768 16.2757 14.3259 16.2757 14.9933V16.2067L16.5607 16.1952L16.8456 16.1836L16.8566 15.6826L16.8676 15.1815H17.2397H17.6119V14.9653V14.7492H17.2386H16.8652V14.4741V14.199H17.3565H17.8477V13.9632V13.7274H17.0879C16.67 13.7274 16.3163 13.7392 16.3019 13.7536ZM11.7564 14.5286V14.8671H11.947C12.0518 14.8671 12.1909 14.8486 12.256 14.8258C12.4563 14.756 12.5276 14.4831 12.3899 14.313C12.328 14.2366 12.2706 14.2192 12.0362 14.206L11.7564 14.1901V14.5286ZM14.1143 14.9653V15.6924H14.3405C14.8867 15.6924 15.1491 15.4564 15.1503 14.9642C15.1514 14.4859 14.8876 14.2383 14.377 14.2383H14.1143V14.9653Z" fill="#EDB01A"/>
<path fill-rule="evenodd" clip-rule="evenodd" d="M20.387 14.8417L21.0471 15.6639L21.009 15.9247C20.9185 16.5458 20.5377 17.4988 20.0943 18.2136C19.6909 18.864 19.0752 19.5935 18.5262 20.0713C18.1415 20.4061 18.1611 20.3423 18.6172 19.7755C19.379 18.829 19.8471 17.953 20.0783 17.0414C20.1799 16.6411 20.2659 16.0467 20.3294 15.3067L20.3677 14.8609L20.387 14.8417ZM18.1731 12.084L20.0155 14.379L19.7944 14.6017L19.7962 15.2557C19.7991 16.2748 19.6134 17.2139 19.2588 17.9729C19.1417 18.2234 18.9159 18.5754 18.8893 18.5488C18.8819 18.5413 18.9295 18.3106 18.9952 18.036C19.0608 17.7613 19.1494 17.2787 19.1921 16.9635C19.4309 15.2004 19.1062 13.8026 18.1243 12.3655L18.012 12.2011L18.1731 12.084Z" fill="#EDB01A"/>
</svg>
