<svg width="20" height="20" viewBox="0 0 20 20" fill="none" xmlns="http://www.w3.org/2000/svg">
<path d="M13.3334 10.7501V14.2501C13.3334 17.1667 12.1667 18.3334 9.25008 18.3334H5.75008C2.83341 18.3334 1.66675 17.1667 1.66675 14.2501V10.7501C1.66675 7.83341 2.83341 6.66675 5.75008 6.66675H9.25008C12.1667 6.66675 13.3334 7.83341 13.3334 10.7501Z" stroke="#8A8A8A" stroke-width="1.25" stroke-linecap="round" stroke-linejoin="round"/>
<path d="M18.3334 5.75008V9.25008C18.3334 12.1667 17.1667 13.3334 14.2501 13.3334H13.3334V10.7501C13.3334 7.83341 12.1667 6.66675 9.25008 6.66675H6.66675V5.75008C6.66675 2.83341 7.83341 1.66675 10.7501 1.66675H14.2501C17.1667 1.66675 18.3334 2.83341 18.3334 5.75008Z" stroke="#8A8A8A" stroke-width="1.25" stroke-linecap="round" stroke-linejoin="round"/>
</svg>
