<svg width="16" height="17" viewBox="0 0 16 17" fill="none" xmlns="http://www.w3.org/2000/svg">
<path d="M10.4096 10.329L9.75397 10.4414C9.73815 10.3432 9.74324 10.2426 9.7689 10.1466C9.79456 10.0506 9.84017 9.96158 9.90256 9.88562C9.96495 9.80967 10.0426 9.74865 10.1302 9.7068C10.2177 9.66496 10.3131 9.64329 10.4096 9.64331V10.329ZM0.664439 10.329V11.0147C0.488219 11.0147 0.319216 10.9424 0.19461 10.8138C0.0700031 10.6852 0 10.5108 0 10.329H0.664439ZM2.43628 0.500977H12.5003V1.87233H2.43628V0.500977ZM13.5634 11.0147H10.4096V9.64331H13.5634V11.0147ZM11.0651 10.2165L11.7792 14.6369L10.468 14.8627L9.75397 10.4414L11.0651 10.2165ZM10.2501 16.5001H10.0605V15.1287H10.2492L10.2501 16.5001ZM7.29554 14.9733L5.06746 11.5239L6.17309 10.7632L8.40117 14.2126L7.29554 14.9733ZM4.1461 11.0147H0.664439V9.64331H4.1461V11.0147ZM0 10.329V3.01512H1.32888V10.329H0ZM14.8896 2.52143L15.9527 8.00683L14.6504 8.27653L13.5873 2.79113L14.8896 2.52143ZM5.06746 11.5239C4.96637 11.3673 4.82939 11.2398 4.66866 11.151C4.50793 11.0621 4.32843 11.0156 4.1461 11.0156V9.64423C4.96115 9.64423 5.72127 10.0639 6.17309 10.7632L5.06746 11.5239ZM11.7792 14.6369C11.8162 14.8661 11.8045 15.1018 11.7447 15.3258C11.6849 15.5498 11.5786 15.7577 11.433 15.9351C11.2875 16.1124 11.1063 16.2549 10.902 16.3526C10.6977 16.4503 10.4753 16.5 10.2501 16.5001V15.1296C10.2822 15.1295 10.3139 15.1223 10.343 15.1083C10.3721 15.0943 10.3979 15.0739 10.4187 15.0486C10.4394 15.0233 10.4546 14.9937 10.4631 14.9617C10.4716 14.9298 10.4733 14.8954 10.468 14.8627L11.7792 14.6369ZM13.5634 9.64423C13.7273 9.64426 13.8891 9.60677 14.0372 9.53446C14.1853 9.46216 14.316 9.35683 14.4199 9.22609C14.5238 9.09535 14.5983 8.94244 14.638 8.77839C14.6777 8.61435 14.6817 8.44325 14.6496 8.27745L15.9527 8.00775C16.0234 8.37251 16.0147 8.74981 15.9274 9.1107C15.84 9.47159 15.6762 9.80797 15.4476 10.0956C15.2191 10.3832 14.9315 10.615 14.6057 10.774C14.2798 10.9331 13.9239 11.0156 13.5634 11.0156V9.64423ZM12.5003 0.500977C13.0635 0.500863 13.6093 0.70302 14.0449 1.07138C14.4806 1.43975 14.7791 1.95156 14.8896 2.52143L13.5873 2.79113C13.5373 2.53169 13.4016 2.29911 13.2034 2.13138C13.0051 1.96366 12.7567 1.87211 12.5003 1.87233V0.500977ZM10.0605 16.5001C9.51359 16.5 8.97515 16.3616 8.49297 16.0952C8.01079 15.8289 7.59978 15.4438 7.29643 14.9742L8.40117 14.2136C8.58327 14.4955 8.83001 14.7266 9.11949 14.8864C9.40896 15.0462 9.7322 15.1288 10.0605 15.1287V16.5001ZM2.43628 1.87233C1.82499 1.87233 1.32888 2.3843 1.32888 3.01512H0C0 2.34833 0.256678 1.70884 0.713569 1.23735C1.17046 0.765858 1.79014 0.500977 2.43628 0.500977V1.87233Z" fill="#3083CF"/>
<path d="M4.2085 10.3289V1.18652" stroke="#3083CF" stroke-width="1.5"/>
</svg>
