<svg width="18" height="17" viewBox="0 0 18 17" fill="none" xmlns="http://www.w3.org/2000/svg">
<path d="M11.4113 10.3238L10.7559 10.4374C10.74 10.3392 10.7449 10.2386 10.7704 10.1425C10.7959 10.0465 10.8413 9.95735 10.9036 9.88129C10.9659 9.80523 11.0434 9.74407 11.1309 9.70208C11.2184 9.66008 11.3137 9.63826 11.4102 9.63812L11.4113 10.3238ZM1.66624 10.3401L1.66739 11.0259C1.49117 11.0261 1.32205 10.9542 1.19722 10.8258C1.0724 10.6974 1.00211 10.5231 1.0018 10.3413L1.66624 10.3401ZM3.42163 0.508617L13.4857 0.491771L13.4879 1.8632L3.42392 1.88004L3.42163 0.508617ZM14.5664 11.0043L11.4125 11.0095L11.4102 9.63812L14.5641 9.63284L14.5664 11.0043ZM12.0667 10.2103L12.7882 14.6296L11.4774 14.8577L10.7559 10.4374L12.0667 10.2103ZM11.2622 16.4955L11.0726 16.4958L11.0703 15.1244L11.259 15.1241L11.2622 16.4955ZM8.30511 14.9736L6.07125 11.5277L7.17561 10.7652L9.40946 14.2111L8.30511 14.9736ZM5.14905 11.02L1.66739 11.0259L1.66509 9.65443L5.14675 9.6486L5.14905 11.02ZM1.0018 10.3413L0.98956 3.02698L2.31844 3.02475L2.33068 10.339L1.0018 10.3413ZM15.8784 2.50834L16.9506 7.99227L15.6488 8.26416L14.5765 2.78023L15.8784 2.50834ZM6.07125 11.5277C5.96991 11.3713 5.83271 11.244 5.67183 11.1555C5.51095 11.0669 5.33138 11.0207 5.14905 11.0209L5.14675 9.64951C5.9618 9.64815 6.72262 10.0665 7.17561 10.7652L6.07125 11.5277ZM12.7882 14.6296C12.8256 14.8588 12.8142 15.0945 12.7548 15.3187C12.6954 15.5428 12.5894 15.7509 12.4442 15.9285C12.299 16.1061 12.118 16.2489 11.9139 16.3469C11.7098 16.445 11.4874 16.4951 11.2622 16.4955L11.2599 15.125C11.292 15.1249 11.3237 15.1175 11.3528 15.1035C11.3819 15.0895 11.4077 15.0691 11.4284 15.0437C11.4491 15.0184 11.4642 14.9887 11.4726 14.9567C11.4811 14.9247 11.4827 14.8903 11.4774 14.8577L12.7882 14.6296ZM14.5641 9.63375C14.7279 9.63351 14.8897 9.59575 15.0377 9.52319C15.1856 9.45063 15.3162 9.34508 15.4199 9.21416C15.5235 9.08323 15.5978 8.93019 15.6372 8.76607C15.6766 8.60195 15.6803 8.43084 15.6479 8.26508L16.9506 7.99318C17.0219 8.35784 17.0139 8.73518 16.9271 9.09624C16.8404 9.45729 16.6771 9.79397 16.449 10.082C16.2209 10.37 15.9338 10.6022 15.6082 10.7619C15.2826 10.9215 14.9268 11.0046 14.5664 11.0052L14.5641 9.63375ZM13.4857 0.491771C14.0488 0.490715 14.595 0.691969 15.0312 1.05962C15.4675 1.42728 15.7668 1.93862 15.8784 2.50834L14.5765 2.78023C14.526 2.52086 14.3899 2.28849 14.1914 2.12109C13.9929 1.95369 13.7443 1.86255 13.4879 1.8632L13.4857 0.491771ZM11.0726 16.4958C10.5257 16.4967 9.98704 16.3591 9.50441 16.0936C9.02179 15.828 8.61014 15.4436 8.306 14.9745L9.40947 14.212C9.59203 14.4936 9.83916 14.7243 10.1289 14.8836C10.4186 15.043 10.742 15.1251 11.0703 15.1244L11.0726 16.4958ZM3.42392 1.88004C2.81264 1.88107 2.31738 2.3939 2.31844 3.02475L0.98956 3.02698C0.988444 2.36015 1.24405 1.7202 1.70015 1.24792C2.15625 0.775633 2.77549 0.509699 3.42163 0.508617L3.42392 1.88004Z" fill="#8A8A8A"/>
<path d="M5.21074 10.3372L5.19543 1.19434" stroke="#8A8A8A" stroke-width="1.5"/>
</svg>
