<svg width="14" height="14" viewBox="0 0 14 14" fill="none" xmlns="http://www.w3.org/2000/svg">
<g id="Export-r">
<g id="Vector">
<path d="M8.98729 3.48101C9.06934 3.56306 9.18084 3.60938 9.29688 3.60938C9.41291 3.60937 9.52419 3.56328 9.60623 3.48123C9.68828 3.39919 9.73438 3.28791 9.73438 3.17188C9.73438 3.05584 9.68828 2.94456 9.60623 2.86252L7.30936 0.565641C7.22731 0.483594 7.11603 0.4375 7 0.4375C6.88397 0.4375 6.77269 0.483594 6.69064 0.565641L4.39393 2.86235C4.31188 2.9444 4.26562 3.05584 4.26562 3.17188C4.26562 3.17888 4.26579 3.18589 4.26613 3.19289C4.27135 3.30153 4.31686 3.40433 4.39377 3.48123C4.47581 3.56328 4.58709 3.60938 4.70312 3.60938C4.81916 3.60937 4.93044 3.56328 5.01248 3.48123L7 1.49372L8.98729 3.48101Z" fill="#616D7F"/>
<path d="M7.4375 7V0.875C7.4375 0.633375 7.24162 0.4375 7 0.4375C6.75838 0.4375 6.5625 0.633375 6.5625 0.875V7C6.5625 7.24162 6.75838 7.4375 7 7.4375C7.24162 7.4375 7.4375 7.24162 7.4375 7Z" fill="#616D7F"/>
<path d="M3.0625 5.6875H4.375C4.61662 5.6875 4.8125 5.49162 4.8125 5.25C4.8125 5.00838 4.61662 4.8125 4.375 4.8125H3.0625C2.70006 4.8125 2.44378 5.06878 2.44378 5.06878C2.1875 5.32506 2.1875 5.6875 2.1875 5.6875V11.375C2.1875 11.7374 2.44378 11.9937 2.44378 11.9937C2.70006 12.25 3.0625 12.25 3.0625 12.25H10.9375C11.2999 12.25 11.5562 11.9937 11.5562 11.9937C11.8125 11.7374 11.8125 11.375 11.8125 11.375V5.6875C11.8125 5.32506 11.5562 5.06878 11.5562 5.06878C11.2999 4.8125 10.9375 4.8125 10.9375 4.8125H9.625C9.38338 4.8125 9.1875 5.00838 9.1875 5.25C9.1875 5.49162 9.38338 5.6875 9.625 5.6875H10.9375V11.375H3.0625V5.6875Z" fill="#616D7F"/>
</g>
</g>
</svg>
