<svg width="31" height="31" viewBox="0 0 31 31" fill="none" xmlns="http://www.w3.org/2000/svg">
<path d="M30.1714 15.6001C30.1714 7.2685 23.4173 0.514404 15.0857 0.514404C6.7541 0.514404 0 7.2685 0 15.6001C0 23.1297 5.5166 29.3708 12.7286 30.5026V19.9608H8.89821V15.6001H12.7286V12.2765C12.7286 8.49569 14.9808 6.40726 18.4267 6.40726C20.0767 6.40726 21.8036 6.7019 21.8036 6.7019V10.4144H19.9014C18.0274 10.4144 17.4429 11.5774 17.4429 12.7715V15.6001H21.6268L20.9579 19.9608H17.4429V30.5026C24.6548 29.3708 30.1714 23.1297 30.1714 15.6001Z" fill="#1877F2"/>
<path d="M20.9579 19.9608L21.6268 15.6001H17.4429V12.7715C17.4429 11.5774 18.0274 10.4144 19.9014 10.4144H21.8036V6.7019C21.8036 6.7019 20.0767 6.40726 18.4267 6.40726C14.9808 6.40726 12.7286 8.49569 12.7286 12.2765V15.6001H8.89821V19.9608H12.7286V30.5026C14.2905 30.7469 15.8809 30.7469 17.4429 30.5026V19.9608H20.9579Z" fill="white"/>
</svg>
