<svg width="24" height="24" viewBox="0 0 24 24" fill="none" xmlns="http://www.w3.org/2000/svg">
<path d="M2.3999 2.4C2.3999 1.07452 3.47442 0 4.7999 0H14.3999L21.5999 7.2V21.6C21.5999 22.9255 20.5254 24 19.1999 24H4.7999C3.47442 24 2.3999 22.9255 2.3999 21.6V2.4Z" fill="#D92D20"/>
<path opacity="0.3" d="M14.3999 0L21.5999 7.2H16.7999C15.4744 7.2 14.3999 6.12548 14.3999 4.8V0Z" fill="white"/>
<path d="M15.0449 15.1168C14.4461 15.1168 13.6966 15.2212 13.4514 15.258C12.4367 14.1983 12.1479 13.5959 12.083 13.4353C12.171 13.2092 12.4772 12.3502 12.5207 11.2469C12.5422 10.6946 12.4255 10.2818 12.1738 10.0202C11.9226 9.75896 11.6185 9.73865 11.5313 9.73865C11.2255 9.73865 10.7126 9.89327 10.7126 10.9287C10.7126 11.8271 11.1314 12.7804 11.2472 13.0267C10.6372 14.803 9.98224 16.0189 9.84317 16.269C7.39189 17.1919 7.2002 18.0843 7.2002 18.3372C7.2002 18.7917 7.52387 19.063 8.06602 19.063C9.38324 19.063 10.5853 16.8516 10.784 16.4676C11.7196 16.0948 12.9717 15.8639 13.29 15.8088C14.2031 16.6786 15.2591 16.9107 15.6976 16.9107C16.0275 16.9107 16.8002 16.9107 16.8002 16.1162C16.8002 15.3785 15.8547 15.1168 15.0449 15.1168ZM14.9814 15.6383C15.6929 15.6383 15.8809 15.8736 15.8809 15.998C15.8809 16.0761 15.8513 16.3308 15.4699 16.3308C15.128 16.3308 14.5375 16.1331 13.9566 15.7043C14.1989 15.6725 14.5574 15.6383 14.9814 15.6383ZM11.4939 10.2442C11.5588 10.2442 11.6015 10.265 11.6367 10.3138C11.8414 10.5978 11.6764 11.5256 11.4755 12.2516C11.2817 11.6291 11.1362 10.6738 11.3409 10.3378C11.3809 10.2722 11.4266 10.2442 11.4939 10.2442ZM11.1484 15.8014C11.406 15.281 11.6947 14.5226 11.852 14.0937C12.1666 14.6204 12.5899 15.1095 12.8347 15.3746C12.0725 15.5353 11.4958 15.6958 11.1484 15.8014ZM7.71188 18.4066C7.69491 18.3865 7.6924 18.3441 7.70519 18.2931C7.732 18.1864 7.93695 17.6573 9.41928 16.9942C9.20703 17.3285 8.87521 17.8062 8.51069 18.1631C8.25409 18.4033 8.05429 18.5251 7.91682 18.5251C7.86764 18.5251 7.79989 18.5117 7.71188 18.4066Z" fill="white"/>
</svg>
