<svg width="18" height="18" viewBox="0 0 18 18" fill="none" xmlns="http://www.w3.org/2000/svg">
  <g id="Arrow" clip-path="url(#clip0_4669_4214)">
    <g id="Bolt" filter="url(#filter0_d_4669_4214)">
      <path d="M6.36246 11.0878H3.41549C3.19385 11.0878 3.02985 10.9908 2.92349 10.7967C2.81713 10.6026 2.83245 10.4129 2.96944 10.2276L9.28263 1.28323C9.37619 1.16003 9.49313 1.07553 9.63346 1.02973C9.77379 0.983952 9.91412 0.991039 10.0544 1.051C10.1948 1.10551 10.3059 1.1971 10.3877 1.32575C10.4696 1.45441 10.4988 1.59179 10.4754 1.73788L9.71197 7.68608H13.2837C13.5254 7.68608 13.6958 7.79021 13.7949 7.99847C13.8941 8.20672 13.8679 8.40352 13.7164 8.58887L6.76172 16.758C6.66816 16.8725 6.5476 16.9469 6.40003 16.9812C6.25246 17.0156 6.11575 17.0028 5.98991 16.9428C5.85848 16.8883 5.75685 16.7994 5.68501 16.6762C5.61318 16.553 5.58617 16.4156 5.604 16.2641L6.36246 11.0878Z" fill="#008000"/>
    </g>
  </g>
  <defs>
    <filter id="filter0_d_4669_4214" x="-109.759" y="-22.2375" width="236.225" height="241.225" filterUnits="userSpaceOnUse" color-interpolation-filters="sRGB">
      <feFlood flood-opacity="0" result="BackgroundImageFix"/>
      <feColorMatrix in="SourceAlpha" type="matrix" values="0 0 0 0 0 0 0 0 0 0 0 0 0 0 0 0 0 0 127 0" result="hardAlpha"/>
      <feOffset dy="89.375"/>
      <feGaussianBlur stdDeviation="56.3063"/>
      <feComposite in2="hardAlpha" operator="out"/>
      <feColorMatrix type="matrix" values="0 0 0 0 0.262745 0 0 0 0 0.0941176 0 0 0 0 1 0 0 0 0.28 0"/>
      <feBlend mode="normal" in2="BackgroundImageFix" result="effect1_dropShadow_4669_4214"/>
      <feBlend mode="normal" in="SourceGraphic" in2="effect1_dropShadow_4669_4214" result="shape"/>
    </filter>
    <clipPath id="clip0_4669_4214">
      <rect width="17" height="17" fill="white" transform="matrix(1 0 0 -1 0.244019 17.4634)"/>
    </clipPath>
  </defs>
</svg>
