<svg width="19" height="23" viewBox="0 0 19 23" fill="none" xmlns="http://www.w3.org/2000/svg">
<path d="M17.2181 3.8246H16.5894L15.6725 1.96469H15.8428C16.1033 1.96469 16.3532 1.8612 16.5374 1.67697C16.7216 1.49274 16.8251 1.24288 16.8251 0.982346C16.8251 0.721812 16.7216 0.471948 16.5374 0.287722C16.3532 0.103497 16.1033 0 15.8428 0H3.28185C2.51415 0 1.77788 0.304971 1.23503 0.847822C0.692178 1.39067 0.387207 2.12694 0.387207 2.89465V21.6902C0.387207 22.0376 0.525203 22.3707 0.770837 22.6164C1.01647 22.862 1.34962 23 1.697 23H16.8906C17.238 23 17.5712 22.862 17.8168 22.6164C18.0624 22.3707 18.2004 22.0376 18.2004 21.6902V4.80695C18.2004 4.54641 18.0969 4.29655 17.9127 4.11232C17.7285 3.9281 17.4786 3.8246 17.2181 3.8246ZM3.28185 1.96469H13.4852L14.402 3.8246H3.28185C3.03521 3.8246 2.79868 3.72662 2.62428 3.55222C2.44988 3.37782 2.3519 3.14129 2.3519 2.89465C2.3519 2.64801 2.44988 2.41147 2.62428 2.23707C2.79868 2.06267 3.03521 1.96469 3.28185 1.96469ZM2.3519 21.0353V5.61902C2.65127 5.72333 2.96495 5.78076 3.28185 5.78929H16.2357V21.0353H2.3519Z" fill="white"/>
<path d="M12.8302 7.9375H5.75732V9.90219H12.8302V7.9375Z" fill="white"/>
</svg>
