<svg width="16" height="17" viewBox="0 0 16 17" fill="none" xmlns="http://www.w3.org/2000/svg">
<path d="M10.4096 6.67297L9.75397 6.56052C9.73815 6.65874 9.74324 6.75934 9.7689 6.85532C9.79456 6.95131 9.84017 7.04037 9.90256 7.11633C9.96495 7.19228 10.0426 7.25331 10.1302 7.29515C10.2177 7.337 10.3131 7.35866 10.4096 7.35864V6.67297ZM0.664439 6.67297V5.98729C0.488219 5.98729 0.319216 6.05953 0.19461 6.18812C0.0700031 6.31671 0 6.49111 0 6.67297H0.664439ZM2.43628 16.501H12.5003V15.1296H2.43628V16.501ZM13.5634 5.98729H10.4096V7.35864H13.5634V5.98729ZM11.0651 6.78542L11.7792 2.3651L10.468 2.13928L9.75397 6.56052L11.0651 6.78542ZM10.2501 0.50189H10.0605V1.87324H10.2492L10.2501 0.50189ZM7.29554 2.02866L5.06746 5.47806L6.17309 6.23871L8.40117 2.7893L7.29554 2.02866ZM4.1461 5.98729H0.664439V7.35864H4.1461V5.98729ZM0 6.67297V13.9868H1.32888V6.67297H0ZM14.8896 14.4805L15.9527 8.99512L14.6504 8.72542L13.5873 14.2108L14.8896 14.4805ZM5.06746 5.47806C4.96637 5.63466 4.82939 5.76216 4.66866 5.85099C4.50793 5.93982 4.32843 5.98633 4.1461 5.98638V7.35773C4.96115 7.35773 5.72127 6.93809 6.17309 6.23871L5.06746 5.47806ZM11.7792 2.3651C11.8162 2.1359 11.8045 1.9002 11.7447 1.67616C11.6849 1.45213 11.5786 1.24422 11.433 1.0669C11.2875 0.889576 11.1063 0.747094 10.902 0.649362C10.6977 0.55163 10.4753 0.501909 10.2501 0.50189V1.87233C10.2822 1.87241 10.3139 1.87969 10.343 1.89368C10.3721 1.90767 10.3979 1.92802 10.4187 1.95333C10.4394 1.97864 10.4546 2.00829 10.4631 2.04025C10.4716 2.0722 10.4733 2.10659 10.468 2.13928L11.7792 2.3651ZM13.5634 7.35773C13.7273 7.35769 13.8891 7.39518 14.0372 7.46749C14.1853 7.5398 14.316 7.64512 14.4199 7.77586C14.5238 7.90661 14.5983 8.05952 14.638 8.22356C14.6777 8.38761 14.6817 8.5587 14.6496 8.72451L15.9527 8.9942C16.0234 8.62945 16.0147 8.25214 15.9274 7.89125C15.84 7.53037 15.6762 7.19398 15.4476 6.90635C15.2191 6.61871 14.9315 6.387 14.6057 6.22791C14.2798 6.06883 13.9239 5.98633 13.5634 5.98638V7.35773ZM12.5003 16.501C13.0635 16.5011 13.6093 16.2989 14.0449 15.9306C14.4806 15.5622 14.7791 15.0504 14.8896 14.4805L13.5873 14.2108C13.5373 14.4703 13.4016 14.7028 13.2034 14.8706C13.0051 15.0383 12.7567 15.1298 12.5003 15.1296V16.501ZM10.0605 0.50189C9.51359 0.501931 8.97515 0.640392 8.49297 0.906731C8.01079 1.17307 7.59978 1.55813 7.29643 2.02775L8.40117 2.78839C8.58327 2.50649 8.83001 2.27537 9.11949 2.11556C9.40896 1.95575 9.7322 1.87311 10.0605 1.87324V0.50189ZM2.43628 15.1296C1.82499 15.1296 1.32888 14.6177 1.32888 13.9868H0C0 14.6536 0.256678 15.2931 0.713569 15.7646C1.17046 16.2361 1.79014 16.501 2.43628 16.501V15.1296Z" fill="#3083CF"/>
<path d="M4.2085 6.67309V15.8154" stroke="#3083CF" stroke-width="1.5"/>
</svg>
