<svg width="18" height="17" viewBox="0 0 18 17" fill="none" xmlns="http://www.w3.org/2000/svg">
<path d="M11.4113 6.6752L10.7559 6.56164C10.74 6.65984 10.7449 6.76046 10.7704 6.85649C10.7959 6.95252 10.8413 7.04167 10.9036 7.11773C10.9659 7.1938 11.0434 7.25495 11.1309 7.29695C11.2184 7.33894 11.3137 7.36077 11.4102 7.36091L11.4113 6.6752ZM1.66624 6.65888L1.66739 5.97317C1.49117 5.97287 1.32205 6.04484 1.19722 6.17322C1.0724 6.30161 1.00211 6.47591 1.0018 6.65777L1.66624 6.65888ZM3.42163 16.4904L13.4857 16.5073L13.4879 15.1358L3.42392 15.119L3.42163 16.4904ZM14.5664 5.99476L11.4125 5.98948L11.4102 7.36091L14.5641 7.36619L14.5664 5.99476ZM12.0667 6.78875L12.7882 2.36938L11.4774 2.14136L10.7559 6.56164L12.0667 6.78875ZM11.2622 0.503508L11.0726 0.503191L11.0703 1.87462L11.259 1.87493L11.2622 0.503508ZM8.30511 2.02542L6.07125 5.47128L7.17561 6.23382L9.40946 2.78795L8.30511 2.02542ZM5.14905 5.979L1.66739 5.97317L1.66509 7.3446L5.14675 7.35042L5.14905 5.979ZM1.0018 6.65777L0.98956 13.972L2.31844 13.9743L2.33068 6.66L1.0018 6.65777ZM15.8784 14.4907L16.9506 9.00676L15.6488 8.73486L14.5765 14.2188L15.8784 14.4907ZM6.07125 5.47128C5.96991 5.62772 5.83271 5.75499 5.67183 5.84356C5.51095 5.93213 5.33138 5.97834 5.14905 5.97808L5.14675 7.34951C5.9618 7.35087 6.72262 6.93249 7.17561 6.23382L6.07125 5.47128ZM12.7882 2.36938C12.8256 2.14023 12.8142 1.9045 12.7548 1.68035C12.6954 1.4562 12.5894 1.24811 12.4442 1.07053C12.299 0.892952 12.118 0.750159 11.9139 0.65208C11.7098 0.554 11.4874 0.503904 11.2622 0.503508L11.2599 1.87402C11.292 1.87416 11.3237 1.8815 11.3528 1.89553C11.3819 1.90957 11.4077 1.92997 11.4284 1.95531C11.4491 1.98065 11.4642 2.01034 11.4726 2.04231C11.4811 2.07427 11.4827 2.10867 11.4774 2.14136L12.7882 2.36938ZM14.5641 7.36527C14.7279 7.36551 14.8897 7.40328 15.0377 7.47583C15.1856 7.54839 15.3162 7.65394 15.4199 7.78487C15.5235 7.91579 15.5978 8.06883 15.6372 8.23295C15.6766 8.39707 15.6803 8.56819 15.6479 8.73395L16.9506 9.00584C17.0219 8.64118 17.0139 8.26384 16.9271 7.90279C16.8404 7.54173 16.6771 7.20505 16.449 6.91702C16.2209 6.62899 15.9338 6.39678 15.6082 6.23714C15.2826 6.0775 14.9268 5.9944 14.5664 5.99385L14.5641 7.36527ZM13.4857 16.5073C14.0488 16.5083 14.595 16.3071 15.0312 15.9394C15.4675 15.5717 15.7668 15.0604 15.8784 14.4907L14.5765 14.2188C14.526 14.4782 14.3899 14.7105 14.1914 14.8779C13.9929 15.0453 13.7443 15.1365 13.4879 15.1358L13.4857 16.5073ZM11.0726 0.503191C10.5257 0.502317 9.98704 0.639884 9.50441 0.90543C9.02179 1.17098 8.61014 1.55538 8.306 2.02451L9.40947 2.78704C9.59203 2.50543 9.83916 2.27471 10.1289 2.11538C10.4186 1.95605 10.742 1.87394 11.0703 1.87462L11.0726 0.503191ZM3.42392 15.119C2.81264 15.118 2.31738 14.6051 2.31844 13.9743L0.98956 13.972C0.988444 14.6389 1.24405 15.2788 1.70015 15.7511C2.15625 16.2234 2.77549 16.4893 3.42163 16.4904L3.42392 15.119Z" fill="#8A8A8A"/>
<path d="M5.21074 6.66184L5.19543 15.8047" stroke="#8A8A8A" stroke-width="1.5"/>
</svg>
