<svg width="44" height="44" viewBox="0 0 44 44" fill="none" xmlns="http://www.w3.org/2000/svg">
<g filter="url(#filter0_d_169_23497)">
<rect x="2" y="1" width="40" height="40" rx="8" fill="white"/>
<path d="M17.8333 13.5V16.3333C17.8333 16.8 17.8333 17.0334 17.9242 17.2117C18.0041 17.3685 18.1315 17.4959 18.2883 17.5758C18.4666 17.6667 18.7 17.6667 19.1667 17.6667H24.8333C25.3 17.6667 25.5334 17.6667 25.7117 17.5758C25.8685 17.4959 25.9959 17.3685 26.0758 17.2117C26.1667 17.0334 26.1667 16.8 26.1667 16.3333V14.3333M26.1667 28.5V23.1667C26.1667 22.7 26.1667 22.4666 26.0758 22.2883C25.9959 22.1315 25.8685 22.0041 25.7117 21.9242C25.5334 21.8333 25.3 21.8333 24.8333 21.8333H19.1667C18.7 21.8333 18.4666 21.8333 18.2883 21.9242C18.1315 22.0041 18.0041 22.1315 17.9242 22.2883C17.8333 22.4666 17.8333 22.7 17.8333 23.1667V28.5M29.5 18.7712V24.5C29.5 25.9001 29.5 26.6002 29.2275 27.135C28.9878 27.6054 28.6054 27.9878 28.135 28.2275C27.6002 28.5 26.9001 28.5 25.5 28.5H18.5C17.0999 28.5 16.3998 28.5 15.865 28.2275C15.3946 27.9878 15.0122 27.6054 14.7725 27.135C14.5 26.6002 14.5 25.9001 14.5 24.5V17.5C14.5 16.0999 14.5 15.3998 14.7725 14.865C15.0122 14.3946 15.3946 14.0122 15.865 13.7725C16.3998 13.5 17.0999 13.5 18.5 13.5H24.2288C24.6364 13.5 24.8402 13.5 25.0321 13.5461C25.2021 13.5869 25.3647 13.6542 25.5138 13.7456C25.682 13.8487 25.8261 13.9928 26.1144 14.281L28.719 16.8856C29.0072 17.1739 29.1513 17.318 29.2544 17.4862C29.3458 17.6353 29.4131 17.7979 29.4539 17.9679C29.5 18.1598 29.5 18.3636 29.5 18.7712Z" stroke="#475467" stroke-width="1.66667" stroke-linecap="round" stroke-linejoin="round"/>
<rect x="2.5" y="1.5" width="39" height="39" rx="7.5" stroke="#D0D5DD"/>
</g>
<defs>
<filter id="filter0_d_169_23497" x="0" y="0" width="44" height="44" filterUnits="userSpaceOnUse" color-interpolation-filters="sRGB">
<feFlood flood-opacity="0" result="BackgroundImageFix"/>
<feColorMatrix in="SourceAlpha" type="matrix" values="0 0 0 0 0 0 0 0 0 0 0 0 0 0 0 0 0 0 127 0" result="hardAlpha"/>
<feOffset dy="1"/>
<feGaussianBlur stdDeviation="1"/>
<feColorMatrix type="matrix" values="0 0 0 0 0.0627451 0 0 0 0 0.0941176 0 0 0 0 0.156863 0 0 0 0.05 0"/>
<feBlend mode="normal" in2="BackgroundImageFix" result="effect1_dropShadow_169_23497"/>
<feBlend mode="normal" in="SourceGraphic" in2="effect1_dropShadow_169_23497" result="shape"/>
</filter>
</defs>
</svg>
