<svg width="18" height="18" viewBox="0 0 18 18" fill="none" xmlns="http://www.w3.org/2000/svg">
  <g id="Arrow" clip-path="url(#clip0_4669_4207)">
    <g id="Vector" filter="url(#filter0_d_4669_4207)">
      <path d="M14.6937 5.62053C14.6322 5.62053 14.58 5.6078 14.5369 5.58234C14.4938 5.55688 14.46 5.51233 14.4354 5.44869L13.9004 4.15036L12.5535 3.53938C12.492 3.51392 12.449 3.47892 12.4244 3.43437C12.3998 3.38982 12.3875 3.33572 12.3875 3.27208C12.3875 3.20843 12.3998 3.15434 12.4244 3.10979C12.449 3.06523 12.492 3.03023 12.5535 3.00477L13.9004 2.41289L14.4354 1.17184C14.46 1.10819 14.4938 1.06364 14.5369 1.03819C14.58 1.01273 14.6322 1 14.6937 1C14.7552 1 14.8075 1.01273 14.8506 1.03819C14.8936 1.06364 14.9274 1.10819 14.952 1.17184L15.4871 2.41289L16.8339 3.00477C16.8954 3.03023 16.9385 3.06523 16.9631 3.10979C16.9877 3.15434 17 3.20843 17 3.27208C17 3.33572 16.9877 3.38982 16.9631 3.43437C16.9385 3.47892 16.8954 3.51392 16.8339 3.53938L15.4871 4.15036L14.952 5.44869C14.9274 5.51233 14.8936 5.55688 14.8506 5.58234C14.8075 5.6078 14.7552 5.62053 14.6937 5.62053ZM14.6937 17C14.6445 17 14.5953 16.9873 14.5461 16.9618C14.4969 16.9364 14.46 16.8918 14.4354 16.8282L13.9004 15.5871L12.572 14.9952C12.5105 14.9698 12.4674 14.9348 12.4428 14.8902C12.4182 14.8457 12.4059 14.7916 12.4059 14.7279C12.4059 14.6643 12.4182 14.6102 12.4428 14.5656C12.4674 14.5211 12.5105 14.4861 12.572 14.4606L13.9004 13.8687L14.4354 12.5513C14.46 12.4877 14.4938 12.4431 14.5369 12.4177C14.58 12.3922 14.6322 12.3795 14.6937 12.3795C14.7552 12.3795 14.8075 12.3922 14.8506 12.4177C14.8936 12.4431 14.9274 12.4877 14.952 12.5513L15.4871 13.8687L16.8155 14.4606C16.877 14.4861 16.92 14.5211 16.9446 14.5656C16.9692 14.6102 16.9815 14.6643 16.9815 14.7279C16.9815 14.7916 16.9692 14.8457 16.9446 14.8902C16.92 14.9348 16.877 14.9698 16.8155 14.9952L15.4871 15.5871L14.952 16.8282C14.9274 16.8918 14.8905 16.9364 14.8413 16.9618C14.7921 16.9873 14.7429 17 14.6937 17ZM6.5941 13.6969C6.49569 13.6969 6.40037 13.6683 6.30812 13.611C6.21587 13.5537 6.14514 13.4741 6.09594 13.3723L4.89668 10.7184L2.31365 9.51551C2.21525 9.4646 2.13838 9.39141 2.08303 9.29594C2.02768 9.20048 2 9.10183 2 9C2 8.89817 2.02768 8.79952 2.08303 8.70406C2.13838 8.60859 2.21525 8.5354 2.31365 8.48449L4.89668 7.28162L6.09594 4.64678C6.14514 4.53222 6.21587 4.4463 6.30812 4.38902C6.40037 4.33174 6.49569 4.3031 6.59410 4.3031C6.69250 4.3031 6.78782 4.33174 6.88007 4.38902C6.97232 4.44630 7.04305 4.52586 7.09225 4.62769L8.30996 7.28162L10.87451 8.48449C10.98522 8.53540 11.06831 8.60859 11.12357 8.70406C11.17882 8.79952 11.20660 8.89817 11.20660 9.00000C11.20660 9.10183 11.17882 9.20048 11.12357 9.29594C11.06831 9.39141 10.98522 9.46460 10.87451 9.51551L8.30996 10.7184L7.09225 13.3723C7.04305 13.48690 6.97232 13.56960 6.88007 13.62051C6.78782 13.67142 6.69250 13.69696 6.59410 13.69696Z" fill="#A063FC"/>
    </g>
  </g>
  <defs>
    <filter id="filter0_d_4669_4207" x="-38.95" y="-7.45" width="96.9" height="97.9" filterUnits="userSpaceOnUse" color-interpolation-filters="sRGB">
      <feFlood flood-opacity="0" result="BackgroundImageFix"/>
      <feColorMatrix in="SourceAlpha" type="matrix" values="0 0 0 0 0 0 0 0 0 0 0 0 0 0 0 0 0 0 127 0" result="hardAlpha"/>
      <feOffset dy="32.5"/>
      <feGaussianBlur stdDeviation="20.475"/>
      <feComposite in2="hardAlpha" operator="out"/>
      <feColorMatrix type="matrix" values="0 0 0 0 0.262745 0 0 0 0 0.0941176 0 0 0 0 1 0 0 0 0.28 0"/>
      <feBlend mode="normal" in2="BackgroundImageFix" result="effect1_dropShadow_4669_4207"/>
      <feBlend mode="normal" in="SourceGraphic" in2="effect1_dropShadow_4669_4207" result="shape"/>
    </filter>
    <clipPath id="clip0_4669_4207">
      <rect width="17" height="17" fill="white" transform="matrix(1 0 0 -1 0.92688 17.4634)"/>
    </clipPath>
  </defs>
</svg>
