<svg width="32" height="31" viewBox="0 0 32 31" fill="none" xmlns="http://www.w3.org/2000/svg">
<path d="M15.9524 30.6858C24.284 30.6858 31.0381 23.9317 31.0381 15.6001C31.0381 7.26851 24.284 0.514404 15.9524 0.514404C7.6208 0.514404 0.866699 7.26851 0.866699 15.6001C0.866699 23.9317 7.6208 30.6858 15.9524 30.6858Z" fill="url(#paint0_linear_341_92674)"/>
<path fill-rule="evenodd" clip-rule="evenodd" d="M7.69536 15.4409C12.0932 13.5248 15.0257 12.2616 16.493 11.6513C20.6825 9.9088 21.553 9.60611 22.1204 9.59611C22.2452 9.59391 22.5242 9.62484 22.705 9.7715C22.8576 9.89534 22.8996 10.0626 22.9197 10.18C22.9398 10.2975 22.9648 10.5649 22.9449 10.7739C22.7179 13.1593 21.7355 18.9481 21.2358 21.6198C21.0243 22.7503 20.6079 23.1293 20.2048 23.1664C19.3288 23.247 18.6635 22.5874 17.815 22.0312C16.4873 21.1609 15.7372 20.6191 14.4484 19.7698C12.959 18.7883 13.9245 18.2488 14.7733 17.3672C14.9955 17.1365 18.8554 13.6256 18.9301 13.3071C18.9394 13.2673 18.9481 13.1188 18.8599 13.0404C18.7717 12.962 18.6415 12.9888 18.5475 13.0101C18.4144 13.0403 16.2933 14.4423 12.1843 17.216C11.5822 17.6294 11.0369 17.8308 10.5483 17.8203C10.0097 17.8086 8.97356 17.5157 8.20331 17.2653C7.25856 16.9582 6.5077 16.7959 6.57308 16.2743C6.60714 16.0027 6.98123 15.7249 7.69536 15.4409Z" fill="white"/>
<defs>
<linearGradient id="paint0_linear_341_92674" x1="15.9524" y1="0.514404" x2="15.9524" y2="30.4621" gradientUnits="userSpaceOnUse">
<stop stop-color="#2AABEE"/>
<stop offset="1" stop-color="#229ED9"/>
</linearGradient>
</defs>
</svg>
