<svg width="32" height="31" viewBox="0 0 32 31" fill="none" xmlns="http://www.w3.org/2000/svg">
<path d="M10.4217 27.8581C21.8071 27.8581 28.0345 18.4253 28.0345 10.2453C28.0345 9.97734 28.0345 9.71063 28.0164 9.44512C29.2279 8.56884 30.2737 7.48383 31.1048 6.24092C29.9751 6.74176 28.7766 7.07007 27.5494 7.21485C28.8417 6.44132 29.8089 5.22452 30.2708 3.79099C29.0558 4.5121 27.7264 5.02026 26.3401 5.29353C25.4068 4.30111 24.1724 3.64396 22.828 3.42376C21.4836 3.20357 20.104 3.4326 18.9029 4.07543C17.7018 4.71825 16.746 5.73903 16.1834 6.9798C15.6209 8.22057 15.4829 9.61215 15.791 10.9392C13.3299 10.8158 10.9223 10.1762 8.72444 9.06195C6.52657 7.94773 4.58757 6.3838 3.03328 4.47166C2.24169 5.8344 1.99925 7.44761 2.3553 8.98282C2.71136 10.518 3.63915 11.8598 4.94977 12.735C3.96461 12.7061 3.00091 12.4404 2.14021 11.9602V12.0387C2.1406 13.4678 2.63533 14.8529 3.5405 15.9589C4.44567 17.0649 5.70554 17.8237 7.10642 18.1067C6.1951 18.3553 5.23891 18.3916 4.31134 18.2129C4.70706 19.4428 5.4772 20.5183 6.51411 21.2891C7.55101 22.0598 8.80285 22.4873 10.0946 22.5118C8.81116 23.5206 7.3414 24.2665 5.76942 24.7067C4.19744 25.147 2.55408 25.273 0.93335 25.0775C3.76423 26.8941 7.05805 27.8577 10.4217 27.8533" fill="#1DA1F2"/>
</svg>
