<svg width="37" height="37" viewBox="0 0 37 37" fill="none" xmlns="http://www.w3.org/2000/svg">
<path d="M36.4121 18.6891C36.4154 21.0775 35.934 23.4419 34.997 25.6389C34.0601 27.836 32.6871 29.82 30.9611 31.4711C30.9269 31.5064 30.8893 31.5406 30.8507 31.5748L30.7855 31.6366L30.7613 31.6598C30.3021 32.0868 29.8212 32.4898 29.3207 32.8675C28.9071 33.178 28.4799 33.4702 28.039 33.744C27.4844 34.0894 26.9109 34.4038 26.3214 34.6856L25.9207 34.8711C23.9068 35.7717 21.7417 36.2862 19.538 36.3878H19.4772C19.2178 36.4 18.9551 36.4066 18.6902 36.4055C18.4252 36.4044 18.1636 36.4 17.9042 36.3878H17.8424C15.5582 36.2832 13.3163 35.7342 11.2422 34.7717L11.06 34.6856C10.3908 34.3675 9.74254 34.0069 9.11938 33.606C8.75657 33.3719 8.40263 33.1258 8.05748 32.8675C7.5666 32.499 7.09532 32.1051 6.64559 31.6874L6.61907 31.6631L6.49321 31.5439C6.47783 31.5318 6.46347 31.5186 6.4502 31.5042L6.34644 31.4037C4.24842 29.3659 2.68743 26.8405 1.80274 24.0527C0.918057 21.2649 0.737155 18.3015 1.27624 15.4269C1.81532 12.5522 3.05762 9.85566 4.89224 7.57783C6.72687 5.30001 9.09676 3.51172 11.7906 2.37252C14.4844 1.23332 17.4183 0.778645 20.3305 1.04903C23.2428 1.31942 26.0428 2.30649 28.4808 3.92215C30.9188 5.53781 32.919 7.73184 34.3029 10.3085C35.6869 12.8851 36.4115 15.7643 36.4121 18.6891Z" fill="#EAEAEA"/>
<path d="M26 27V25C26 23.9391 25.5786 22.9217 24.8284 22.1716C24.0783 21.4214 23.0609 21 22 21H14C12.9391 21 11.9217 21.4214 11.1716 22.1716C10.4214 22.9217 10 23.9391 10 25V27M22 13C22 15.2091 20.2091 17 18 17C15.7909 17 14 15.2091 14 13C14 10.7909 15.7909 9 18 9C20.2091 9 22 10.7909 22 13Z" stroke="#101828" stroke-width="2" stroke-linecap="round" stroke-linejoin="round"/>
</svg>
