<svg width="24" height="24" viewBox="0 0 24 24" fill="none" xmlns="http://www.w3.org/2000/svg">
<path d="M24 11.9974C24.0022 13.6149 23.6762 15.2161 23.0417 16.7039C22.4072 18.1918 21.4774 19.5354 20.3085 20.6535C20.2853 20.6775 20.2599 20.7006 20.2337 20.7238L20.1896 20.7657L20.1732 20.7814C19.8622 21.0705 19.5366 21.3435 19.1976 21.5992C18.9175 21.8095 18.6282 22.0074 18.3297 22.1928C17.954 22.4267 17.5657 22.6396 17.1664 22.8304L16.8951 22.956C15.5313 23.566 14.0651 23.9144 12.5726 23.9832H12.5315C12.3558 23.9914 12.1779 23.9959 11.9985 23.9952C11.8191 23.9944 11.6419 23.9914 11.4662 23.9832H11.4244C9.87748 23.9124 8.35925 23.5406 6.95463 22.8888L6.83129 22.8304C6.37804 22.6151 5.93906 22.3709 5.51706 22.0993C5.27135 21.9408 5.03166 21.7741 4.79792 21.5992C4.46549 21.3497 4.14634 21.0829 3.84178 20.8001L3.82382 20.7836L3.73858 20.7029C3.72817 20.6947 3.71844 20.6857 3.70946 20.676L3.63919 20.6079C2.21838 19.2279 1.16126 17.5176 0.562143 15.6297C-0.0369754 13.7418 -0.159484 11.735 0.205587 9.78822C0.570658 7.84146 1.41196 6.01534 2.65439 4.47277C3.89682 2.9302 5.50174 1.71915 7.32601 0.947674C9.15028 0.176196 11.1372 -0.131717 13.1094 0.0513929C15.0816 0.234503 16.9778 0.902955 18.6288 1.9971C20.2799 3.09125 21.6344 4.57706 22.5716 6.322C23.5088 8.06694 23.9996 10.0167 24 11.9974Z" fill="#EAEAEA"/>
<path d="M16.9487 17.6256V16.2712C16.9487 15.5527 16.6633 14.8637 16.1553 14.3557C15.6473 13.8477 14.9582 13.5623 14.2398 13.5623H8.82213C8.1037 13.5623 7.41469 13.8477 6.90668 14.3557C6.39868 14.8637 6.11328 15.5527 6.11328 16.2712V17.6256M14.2398 8.14464C14.2398 9.64069 13.027 10.8535 11.531 10.8535C10.0349 10.8535 8.82213 9.64069 8.82213 8.14464C8.82213 6.64858 10.0349 5.43579 11.531 5.43579C13.027 5.43579 14.2398 6.64858 14.2398 8.14464Z" stroke="#101828" stroke-width="1.66139" stroke-linecap="round" stroke-linejoin="round"/>
</svg>
