<svg xmlns="http://www.w3.org/2000/svg" width="17" height="17" viewBox="0 0 17 17" fill="none">
  <path d="M15.2714 7.60764L14.308 6.48848C14.1239 6.27598 13.9751 5.87931 13.9751 5.59598V4.39181C13.9751 3.64098 13.3589 3.02473 12.608 3.02473H11.4039C11.1276 3.02473 10.7239 2.87598 10.5114 2.69181L9.39221 1.72848C8.90346 1.31056 8.10305 1.31056 7.60721 1.72848L6.49513 2.69889C6.28263 2.87598 5.87888 3.02473 5.60263 3.02473H4.37721C3.62638 3.02473 3.01013 3.64098 3.01013 4.39181V5.60306C3.01013 5.87931 2.86138 6.27598 2.6843 6.48848L1.72805 7.61473C1.31721 8.10348 1.31721 8.89681 1.72805 9.38556L2.6843 10.5118C2.86138 10.7243 3.01013 11.121 3.01013 11.3972V12.6085C3.01013 13.3593 3.62638 13.9756 4.37721 13.9756H5.60263C5.87888 13.9756 6.28263 14.1243 6.49513 14.3085L7.6143 15.2718C8.10305 15.6897 8.90346 15.6897 9.3993 15.2718L10.5185 14.3085C10.731 14.1243 11.1276 13.9756 11.411 13.9756H12.6151C13.366 13.9756 13.9822 13.3593 13.9822 12.6085V11.4043C13.9822 11.1281 14.131 10.7243 14.3151 10.5118L15.2785 9.39264C15.6893 8.90389 15.6893 8.09639 15.2714 7.60764ZM11.4464 7.16139L8.02513 10.5826C7.92596 10.6818 7.79138 10.7385 7.64971 10.7385C7.50805 10.7385 7.37346 10.6818 7.2743 10.5826L5.56013 8.86848C5.35471 8.66306 5.35471 8.32306 5.56013 8.11764C5.76555 7.91223 6.10555 7.91223 6.31096 8.11764L7.64971 9.45639L10.6955 6.41056C10.901 6.20514 11.241 6.20514 11.4464 6.41056C11.6518 6.61598 11.6518 6.95598 11.4464 7.16139Z" fill="#292D32"/>
</svg>