<svg width="20" height="20" viewBox="0 0 20 20" fill="none" xmlns="http://www.w3.org/2000/svg">
<g id="alert-triangle">
<path id="Icon" d="M9.99977 6.66666V9.99999M9.99977 13.3333H10.0081M8.57477 2.38333L1.51644 14.1667C1.37091 14.4187 1.29391 14.7044 1.2931 14.9954C1.29228 15.2864 1.36768 15.5726 1.5118 15.8254C1.65591 16.0783 1.86371 16.2889 2.11453 16.4365C2.36535 16.5841 2.65044 16.6635 2.94144 16.6667H17.0581C17.3491 16.6635 17.6342 16.5841 17.885 16.4365C18.1358 16.2889 18.3436 16.0783 18.4878 15.8254C18.6319 15.5726 18.7073 15.2864 18.7064 14.9954C18.7056 14.7044 18.6286 14.4187 18.4831 14.1667L11.4248 2.38333C11.2762 2.13841 11.067 1.93593 10.8174 1.7954C10.5678 1.65487 10.2862 1.58104 9.99977 1.58104C9.71333 1.58104 9.43172 1.65487 9.18211 1.7954C8.93251 1.93593 8.72333 2.13841 8.57477 2.38333Z" stroke="#D92D20" stroke-width="1.66667" stroke-linecap="round" stroke-linejoin="round"/>
</g>
</svg>
