<svg width="44" height="44" viewBox="0 0 44 44" fill="none" xmlns="http://www.w3.org/2000/svg">
<g filter="url(#filter0_d_158_75510)">
<rect x="2" y="1" width="40" height="40" rx="8" fill="white"/>
<g clip-path="url(#clip0_158_75510)">
<path d="M18.667 24.3334V26.6667C18.667 27.6001 18.667 28.0668 18.8486 28.4233C19.0084 28.7369 19.2634 28.9919 19.577 29.1517C19.9335 29.3334 20.4002 29.3334 21.3337 29.3334H27.667C28.6004 29.3334 29.0671 29.3334 29.4236 29.1517C29.7372 28.9919 29.9922 28.7369 30.152 28.4233C30.3337 28.0668 30.3337 27.6001 30.3337 26.6667V20.3334C30.3337 19.3999 30.3337 18.9332 30.152 18.5767C29.9922 18.2631 29.7372 18.0081 29.4236 17.8483C29.0671 17.6667 28.6004 17.6667 27.667 17.6667H25.3337M16.3337 24.3334H22.667C23.6004 24.3334 24.0671 24.3334 24.4236 24.1517C24.7372 23.9919 24.9922 23.7369 25.152 23.4233C25.3337 23.0668 25.3337 22.6001 25.3337 21.6667V15.3334C25.3337 14.3999 25.3337 13.9332 25.152 13.5767C24.9922 13.2631 24.7372 13.0081 24.4236 12.8483C24.0671 12.6667 23.6004 12.6667 22.667 12.6667H16.3337C15.4002 12.6667 14.9335 12.6667 14.577 12.8483C14.2634 13.0081 14.0084 13.2631 13.8486 13.5767C13.667 13.9332 13.667 14.3999 13.667 15.3334V21.6667C13.667 22.6001 13.667 23.0668 13.8486 23.4233C14.0084 23.7369 14.2634 23.9919 14.577 24.1517C14.9335 24.3334 15.4002 24.3334 16.3337 24.3334Z" stroke="#475467" stroke-width="1.66667" stroke-linecap="round" stroke-linejoin="round"/>
</g>
<rect x="2.5" y="1.5" width="39" height="39" rx="7.5" stroke="#D0D5DD"/>
</g>
<defs>
<filter id="filter0_d_158_75510" x="0" y="0" width="44" height="44" filterUnits="userSpaceOnUse" color-interpolation-filters="sRGB">
<feFlood flood-opacity="0" result="BackgroundImageFix"/>
<feColorMatrix in="SourceAlpha" type="matrix" values="0 0 0 0 0 0 0 0 0 0 0 0 0 0 0 0 0 0 127 0" result="hardAlpha"/>
<feOffset dy="1"/>
<feGaussianBlur stdDeviation="1"/>
<feColorMatrix type="matrix" values="0 0 0 0 0.0627451 0 0 0 0 0.0941176 0 0 0 0 0.156863 0 0 0 0.05 0"/>
<feBlend mode="normal" in2="BackgroundImageFix" result="effect1_dropShadow_158_75510"/>
<feBlend mode="normal" in="SourceGraphic" in2="effect1_dropShadow_158_75510" result="shape"/>
</filter>
<clipPath id="clip0_158_75510">
<rect width="20" height="20" fill="white" transform="translate(12 11)"/>
</clipPath>
</defs>
</svg>
