<svg width="36" height="34" viewBox="0 0 36 34" fill="none" xmlns="http://www.w3.org/2000/svg">
<path fill-rule="evenodd" clip-rule="evenodd" d="M18.4 32.1C26.9052 32.1 33.8 25.2052 33.8 16.7C33.8 8.19486 26.9052 1.30005 18.4 1.30005C9.89481 1.30005 3 8.19486 3 16.7C3 19.462 3.7271 22.0542 5.00032 24.2955L3 32.1L11.0463 30.2342C13.2315 31.424 15.7368 32.1 18.4 32.1ZM18.4 29.7308C25.5967 29.7308 31.4308 23.8967 31.4308 16.7C31.4308 9.50335 25.5967 3.66928 18.4 3.66928C11.2033 3.66928 5.36923 9.50335 5.36923 16.7C5.36923 19.4787 6.23895 22.0543 7.72102 24.1693L6.55385 28.5462L11.0079 27.4327C13.1083 28.8821 15.655 29.7308 18.4 29.7308Z" fill="#BFC8D0"/>
<path d="M31.6001 15.5999C31.6001 22.8901 25.6902 28.7999 18.4001 28.7999C15.6195 28.7999 13.0396 27.9401 10.912 26.4719L6.40007 27.5999L7.58241 23.1661C6.08109 21.0236 5.20007 18.4147 5.20007 15.5999C5.20007 8.30974 11.1099 2.3999 18.4001 2.3999C25.6902 2.3999 31.6001 8.30974 31.6001 15.5999Z" fill="url(#paint0_linear_341_92677)"/>
<path fill-rule="evenodd" clip-rule="evenodd" d="M18.4 31C26.9052 31 33.8 24.1051 33.8 15.6C33.8 7.09477 26.9052 0.199951 18.4 0.199951C9.89481 0.199951 3 7.09477 3 15.6C3 18.3619 3.7271 20.9541 5.00032 23.1954L3 31L11.0463 29.1341C13.2315 30.3239 15.7368 31 18.4 31ZM18.4 28.6307C25.5967 28.6307 31.4308 22.7966 31.4308 15.6C31.4308 8.40326 25.5967 2.56918 18.4 2.56918C11.2033 2.56918 5.36923 8.40326 5.36923 15.6C5.36923 18.3786 6.23895 20.9542 7.72102 23.0692L6.55385 27.4461L11.0079 26.3326C13.1083 27.782 15.655 28.6307 18.4 28.6307Z" fill="white"/>
<path d="M14.5501 8.45012C14.184 7.71468 13.6223 7.77979 13.0548 7.77979C12.0407 7.77979 10.4595 8.9945 10.4595 11.2552C10.4595 13.108 11.2759 15.1361 14.027 18.17C16.6819 21.0979 20.1704 22.6125 23.0665 22.561C25.9626 22.5094 26.5585 20.0172 26.5585 19.1756C26.5585 18.8026 26.327 18.6164 26.1675 18.5659C25.1806 18.0922 23.3604 17.2097 22.9462 17.0439C22.532 16.8781 22.3158 17.1023 22.1814 17.2244C21.8058 17.5823 21.0613 18.6371 20.8064 18.8744C20.5514 19.1116 20.1714 18.9915 20.0133 18.9018C19.4313 18.6683 17.8533 17.9664 16.5955 16.7471C15.04 15.2392 14.9487 14.7204 14.6556 14.2586C14.4211 13.8891 14.5932 13.6625 14.679 13.5634C15.0142 13.1767 15.477 12.5796 15.6845 12.2829C15.892 11.9862 15.7273 11.5358 15.6284 11.2552C15.2032 10.0486 14.843 9.03847 14.5501 8.45012Z" fill="white"/>
<defs>
<linearGradient id="paint0_linear_341_92677" x1="29.9501" y1="5.6999" x2="5.20007" y2="28.7999" gradientUnits="userSpaceOnUse">
<stop stop-color="#5BD066"/>
<stop offset="1" stop-color="#27B43E"/>
</linearGradient>
</defs>
</svg>
